ISO-10303-21;
HEADER;
FILE_DESCRIPTION(('FreeCAD Model'),'2;1');
FILE_NAME('Open CASCADE Shape Model','2026-03-05T21:17:22',(''),(''),
  'Open CASCADE STEP processor 7.8','FreeCAD','Unknown');
FILE_SCHEMA(('AUTOMOTIVE_DESIGN { 1 0 10303 214 1 1 1 1 }'));
ENDSEC;
DATA;
#1 = APPLICATION_PROTOCOL_DEFINITION('international standard',
  'automotive_design',2000,#2);
#2 = APPLICATION_CONTEXT(
  'core data for automotive mechanical design processes');
#3 = SHAPE_DEFINITION_REPRESENTATION(#4,#10);
#4 = PRODUCT_DEFINITION_SHAPE('','',#5);
#5 = PRODUCT_DEFINITION('design','',#6,#9);
#6 = PRODUCT_DEFINITION_FORMATION('','',#7);
#7 = PRODUCT('Screw Linear Transporter','Screw Linear Transporter','',(
    #8));
#8 = PRODUCT_CONTEXT('',#2,'mechanical');
#9 = PRODUCT_DEFINITION_CONTEXT('part definition',#2,'design');
#10 = ADVANCED_BREP_SHAPE_REPRESENTATION('',(#11,#15),#2166);
#11 = AXIS2_PLACEMENT_3D('',#12,#13,#14);
#12 = CARTESIAN_POINT('',(0.,0.,0.));
#13 = DIRECTION('',(0.,0.,1.));
#14 = DIRECTION('',(1.,0.,-0.));
#15 = MANIFOLD_SOLID_BREP('',#16);
#16 = CLOSED_SHELL('',(#17,#129,#155,#195,#220,#245,#287,#360,#394,#419,
    #460,#484,#529,#555,#580,#646,#688,#713,#739,#826,#851,#869,#970,
    #994,#1083,#1169,#1196,#1208,#1226,#1243,#1268,#1286,#1312,#1357,
    #1383,#1409,#1483,#1501,#1518,#1545,#1579,#1613,#1631,#1665,#1683,
    #1717,#1751,#1769,#1787,#1813,#1839,#1865,#1883,#1902,#1914,#1926,
    #1943,#1960,#1977,#2002,#2027,#2052,#2078,#2104,#2130,#2142,#2154));
#17 = ADVANCED_FACE('',(#18,#29,#113),#124,.T.);
#18 = FACE_BOUND('',#19,.T.);
#19 = EDGE_LOOP('',(#20));
#20 = ORIENTED_EDGE('',*,*,#21,.F.);
#21 = EDGE_CURVE('',#22,#22,#24,.T.);
#22 = VERTEX_POINT('',#23);
#23 = CARTESIAN_POINT('',(-38.,-19.5,69.1));
#24 = CIRCLE('',#25,6.);
#25 = AXIS2_PLACEMENT_3D('',#26,#27,#28);
#26 = CARTESIAN_POINT('',(-44.,-19.5,69.1));
#27 = DIRECTION('',(-0.,1.,0.));
#28 = DIRECTION('',(1.,0.,0.));
#29 = FACE_BOUND('',#30,.T.);
#30 = EDGE_LOOP('',(#31,#41,#50,#58,#66,#74,#82,#90,#99,#107));
#31 = ORIENTED_EDGE('',*,*,#32,.T.);
#32 = EDGE_CURVE('',#33,#35,#37,.T.);
#33 = VERTEX_POINT('',#34);
#34 = CARTESIAN_POINT('',(58.,-19.5,61.));
#35 = VERTEX_POINT('',#36);
#36 = CARTESIAN_POINT('',(-45.11460624519,-19.5,61.));
#37 = LINE('',#38,#39);
#38 = CARTESIAN_POINT('',(59.,-19.5,61.));
#39 = VECTOR('',#40,1.);
#40 = DIRECTION('',(-1.,0.,0.));
#41 = ORIENTED_EDGE('',*,*,#42,.T.);
#42 = EDGE_CURVE('',#35,#43,#45,.T.);
#43 = VERTEX_POINT('',#44);
#44 = CARTESIAN_POINT('',(-80.89169388519,-19.5,52.554175279993));
#45 = CIRCLE('',#46,80.);
#46 = AXIS2_PLACEMENT_3D('',#47,#48,#49);
#47 = CARTESIAN_POINT('',(-45.11460624519,-19.5,-19.));
#48 = DIRECTION('',(0.,-1.,2.2E-16));
#49 = DIRECTION('',(0.,2.2E-16,1.));
#50 = ORIENTED_EDGE('',*,*,#51,.T.);
#51 = EDGE_CURVE('',#43,#52,#54,.T.);
#52 = VERTEX_POINT('',#53);
#53 = CARTESIAN_POINT('',(-184.1,-19.5,0.950022222588));
#54 = LINE('',#55,#56);
#55 = CARTESIAN_POINT('',(-64.00004444517,-19.5,61.));
#56 = VECTOR('',#57,1.);
#57 = DIRECTION('',(-0.894427191,-0.,-0.4472135955));
#58 = ORIENTED_EDGE('',*,*,#59,.T.);
#59 = EDGE_CURVE('',#52,#60,#62,.T.);
#60 = VERTEX_POINT('',#61);
#61 = CARTESIAN_POINT('',(-184.1,-19.5,12.000022222588));
#62 = LINE('',#63,#64);
#63 = CARTESIAN_POINT('',(-184.1,-19.5,2.222258813589E-05));
#64 = VECTOR('',#65,1.);
#65 = DIRECTION('',(0.,0.,1.));
#66 = ORIENTED_EDGE('',*,*,#67,.F.);
#67 = EDGE_CURVE('',#68,#60,#70,.T.);
#68 = VERTEX_POINT('',#69);
#69 = CARTESIAN_POINT('',(-176.,-19.5,12.000022222588));
#70 = LINE('',#71,#72);
#71 = CARTESIAN_POINT('',(-126.3348375696,-19.5,12.000022222588));
#72 = VECTOR('',#73,1.);
#73 = DIRECTION('',(-1.,0.,0.));
#74 = ORIENTED_EDGE('',*,*,#75,.T.);
#75 = EDGE_CURVE('',#68,#76,#78,.T.);
#76 = VERTEX_POINT('',#77);
#77 = CARTESIAN_POINT('',(-176.,-19.5,25.));
#78 = LINE('',#79,#80);
#79 = CARTESIAN_POINT('',(-176.,-19.5,38.313402394594));
#80 = VECTOR('',#81,1.);
#81 = DIRECTION('',(0.,0.,1.));
#82 = ORIENTED_EDGE('',*,*,#83,.T.);
#83 = EDGE_CURVE('',#76,#84,#86,.T.);
#84 = VERTEX_POINT('',#85);
#85 = CARTESIAN_POINT('',(-80.89164944001,-19.5,72.554175279993));
#86 = LINE('',#87,#88);
#87 = CARTESIAN_POINT('',(-186.,-19.5,20.));
#88 = VECTOR('',#89,1.);
#89 = DIRECTION('',(0.894427191,0.,0.4472135955));
#90 = ORIENTED_EDGE('',*,*,#91,.F.);
#91 = EDGE_CURVE('',#92,#84,#94,.T.);
#92 = VERTEX_POINT('',#93);
#93 = CARTESIAN_POINT('',(-45.11456180001,-19.5,81.));
#94 = CIRCLE('',#95,80.);
#95 = AXIS2_PLACEMENT_3D('',#96,#97,#98);
#96 = CARTESIAN_POINT('',(-45.11456180001,-19.5,1.));
#97 = DIRECTION('',(0.,-1.,2.2E-16));
#98 = DIRECTION('',(0.,-2.2E-16,-1.));
#99 = ORIENTED_EDGE('',*,*,#100,.T.);
#100 = EDGE_CURVE('',#92,#101,#103,.T.);
#101 = VERTEX_POINT('',#102);
#102 = CARTESIAN_POINT('',(58.,-19.5,81.));
#103 = LINE('',#104,#105);
#104 = CARTESIAN_POINT('',(-64.,-19.5,81.));
#105 = VECTOR('',#106,1.);
#106 = DIRECTION('',(1.,0.,0.));
#107 = ORIENTED_EDGE('',*,*,#108,.T.);
#108 = EDGE_CURVE('',#101,#33,#109,.T.);
#109 = LINE('',#110,#111);
#110 = CARTESIAN_POINT('',(58.,-19.5,81.));
#111 = VECTOR('',#112,1.);
#112 = DIRECTION('',(0.,0.,-1.));
#113 = FACE_BOUND('',#114,.T.);
#114 = EDGE_LOOP('',(#115));
#115 = ORIENTED_EDGE('',*,*,#116,.F.);
#116 = EDGE_CURVE('',#117,#117,#119,.T.);
#117 = VERTEX_POINT('',#118);
#118 = CARTESIAN_POINT('',(50.,-19.5,69.1));
#119 = CIRCLE('',#120,6.);
#120 = AXIS2_PLACEMENT_3D('',#121,#122,#123);
#121 = CARTESIAN_POINT('',(44.,-19.5,69.1));
#122 = DIRECTION('',(-0.,1.,0.));
#123 = DIRECTION('',(1.,0.,0.));
#124 = PLANE('',#125);
#125 = AXIS2_PLACEMENT_3D('',#126,#127,#128);
#126 = CARTESIAN_POINT('',(-66.66967513928,-19.5,53.926986855628));
#127 = DIRECTION('',(0.,1.,0.));
#128 = DIRECTION('',(0.,0.,1.));
#129 = ADVANCED_FACE('',(#130),#150,.T.);
#130 = FACE_BOUND('',#131,.T.);
#131 = EDGE_LOOP('',(#132,#141,#142,#143));
#132 = ORIENTED_EDGE('',*,*,#133,.F.);
#133 = EDGE_CURVE('',#22,#134,#136,.T.);
#134 = VERTEX_POINT('',#135);
#135 = CARTESIAN_POINT('',(-39.,-20.5,69.1));
#136 = CIRCLE('',#137,1.);
#137 = AXIS2_PLACEMENT_3D('',#138,#139,#140);
#138 = CARTESIAN_POINT('',(-38.,-20.5,69.1));
#139 = DIRECTION('',(0.,0.,1.));
#140 = DIRECTION('',(1.,0.,0.));
#141 = ORIENTED_EDGE('',*,*,#21,.T.);
#142 = ORIENTED_EDGE('',*,*,#133,.T.);
#143 = ORIENTED_EDGE('',*,*,#144,.F.);
#144 = EDGE_CURVE('',#134,#134,#145,.T.);
#145 = CIRCLE('',#146,5.);
#146 = AXIS2_PLACEMENT_3D('',#147,#148,#149);
#147 = CARTESIAN_POINT('',(-44.,-20.5,69.1));
#148 = DIRECTION('',(-0.,1.,0.));
#149 = DIRECTION('',(1.,0.,0.));
#150 = TOROIDAL_SURFACE('',#151,6.,1.);
#151 = AXIS2_PLACEMENT_3D('',#152,#153,#154);
#152 = CARTESIAN_POINT('',(-44.,-20.5,69.1));
#153 = DIRECTION('',(0.,1.,0.));
#154 = DIRECTION('',(1.,0.,0.));
#155 = ADVANCED_FACE('',(#156),#190,.T.);
#156 = FACE_BOUND('',#157,.T.);
#157 = EDGE_LOOP('',(#158,#159,#168,#176,#184));
#158 = ORIENTED_EDGE('',*,*,#32,.F.);
#159 = ORIENTED_EDGE('',*,*,#160,.F.);
#160 = EDGE_CURVE('',#161,#33,#163,.T.);
#161 = VERTEX_POINT('',#162);
#162 = CARTESIAN_POINT('',(59.,-18.5,61.));
#163 = CIRCLE('',#164,1.);
#164 = AXIS2_PLACEMENT_3D('',#165,#166,#167);
#165 = CARTESIAN_POINT('',(58.,-18.5,61.));
#166 = DIRECTION('',(0.,0.,-1.));
#167 = DIRECTION('',(0.,1.,0.));
#168 = ORIENTED_EDGE('',*,*,#169,.T.);
#169 = EDGE_CURVE('',#161,#170,#172,.T.);
#170 = VERTEX_POINT('',#171);
#171 = CARTESIAN_POINT('',(59.,-14.5,61.));
#172 = LINE('',#173,#174);
#173 = CARTESIAN_POINT('',(59.,-19.5,61.));
#174 = VECTOR('',#175,1.);
#175 = DIRECTION('',(0.,1.,-2.2E-16));
#176 = ORIENTED_EDGE('',*,*,#177,.F.);
#177 = EDGE_CURVE('',#178,#170,#180,.T.);
#178 = VERTEX_POINT('',#179);
#179 = CARTESIAN_POINT('',(-45.11460624519,-14.5,61.));
#180 = LINE('',#181,#182);
#181 = CARTESIAN_POINT('',(-186.,-14.5,61.));
#182 = VECTOR('',#183,1.);
#183 = DIRECTION('',(1.,0.,0.));
#184 = ORIENTED_EDGE('',*,*,#185,.F.);
#185 = EDGE_CURVE('',#35,#178,#186,.T.);
#186 = LINE('',#187,#188);
#187 = CARTESIAN_POINT('',(-45.11460624519,-19.5,61.));
#188 = VECTOR('',#189,1.);
#189 = DIRECTION('',(0.,1.,-2.2E-16));
#190 = PLANE('',#191);
#191 = AXIS2_PLACEMENT_3D('',#192,#193,#194);
#192 = CARTESIAN_POINT('',(59.,-19.5,61.));
#193 = DIRECTION('',(0.,2.2E-16,1.));
#194 = DIRECTION('',(-1.,0.,0.));
#195 = ADVANCED_FACE('',(#196),#215,.T.);
#196 = FACE_BOUND('',#197,.F.);
#197 = EDGE_LOOP('',(#198,#199,#207,#214));
#198 = ORIENTED_EDGE('',*,*,#42,.T.);
#199 = ORIENTED_EDGE('',*,*,#200,.T.);
#200 = EDGE_CURVE('',#43,#201,#203,.T.);
#201 = VERTEX_POINT('',#202);
#202 = CARTESIAN_POINT('',(-80.89169388519,-14.5,52.554175279993));
#203 = LINE('',#204,#205);
#204 = CARTESIAN_POINT('',(-80.89169388519,-19.5,52.554175279993));
#205 = VECTOR('',#206,1.);
#206 = DIRECTION('',(0.,1.,-2.2E-16));
#207 = ORIENTED_EDGE('',*,*,#208,.F.);
#208 = EDGE_CURVE('',#178,#201,#209,.T.);
#209 = CIRCLE('',#210,80.);
#210 = AXIS2_PLACEMENT_3D('',#211,#212,#213);
#211 = CARTESIAN_POINT('',(-45.11460624519,-14.5,-19.));
#212 = DIRECTION('',(0.,-1.,2.2E-16));
#213 = DIRECTION('',(0.,2.2E-16,1.));
#214 = ORIENTED_EDGE('',*,*,#185,.F.);
#215 = CYLINDRICAL_SURFACE('',#216,80.);
#216 = AXIS2_PLACEMENT_3D('',#217,#218,#219);
#217 = CARTESIAN_POINT('',(-45.11460624519,-19.5,-19.));
#218 = DIRECTION('',(0.,1.,-2.2E-16));
#219 = DIRECTION('',(0.,2.2E-16,1.));
#220 = ADVANCED_FACE('',(#221),#240,.F.);
#221 = FACE_BOUND('',#222,.F.);
#222 = EDGE_LOOP('',(#223,#232,#233,#234));
#223 = ORIENTED_EDGE('',*,*,#224,.T.);
#224 = EDGE_CURVE('',#225,#101,#227,.T.);
#225 = VERTEX_POINT('',#226);
#226 = CARTESIAN_POINT('',(59.,-18.5,81.));
#227 = CIRCLE('',#228,1.);
#228 = AXIS2_PLACEMENT_3D('',#229,#230,#231);
#229 = CARTESIAN_POINT('',(58.,-18.5,81.));
#230 = DIRECTION('',(0.,0.,-1.));
#231 = DIRECTION('',(0.,1.,0.));
#232 = ORIENTED_EDGE('',*,*,#108,.T.);
#233 = ORIENTED_EDGE('',*,*,#160,.F.);
#234 = ORIENTED_EDGE('',*,*,#235,.F.);
#235 = EDGE_CURVE('',#225,#161,#236,.T.);
#236 = LINE('',#237,#238);
#237 = CARTESIAN_POINT('',(59.,-18.5,81.));
#238 = VECTOR('',#239,1.);
#239 = DIRECTION('',(0.,0.,-1.));
#240 = CYLINDRICAL_SURFACE('',#241,1.);
#241 = AXIS2_PLACEMENT_3D('',#242,#243,#244);
#242 = CARTESIAN_POINT('',(58.,-18.5,81.));
#243 = DIRECTION('',(0.,0.,-1.));
#244 = DIRECTION('',(1.,3.2E-16,0.));
#245 = ADVANCED_FACE('',(#246),#282,.T.);
#246 = FACE_BOUND('',#247,.T.);
#247 = EDGE_LOOP('',(#248,#249,#250,#258,#267,#275));
#248 = ORIENTED_EDGE('',*,*,#51,.F.);
#249 = ORIENTED_EDGE('',*,*,#200,.T.);
#250 = ORIENTED_EDGE('',*,*,#251,.F.);
#251 = EDGE_CURVE('',#252,#201,#254,.T.);
#252 = VERTEX_POINT('',#253);
#253 = CARTESIAN_POINT('',(-184.1,-14.5,0.950022222588));
#254 = LINE('',#255,#256);
#255 = CARTESIAN_POINT('',(-112.8000266671,-14.5,36.600008889035));
#256 = VECTOR('',#257,1.);
#257 = DIRECTION('',(0.894427191,0.,0.4472135955));
#258 = ORIENTED_EDGE('',*,*,#259,.F.);
#259 = EDGE_CURVE('',#260,#252,#262,.T.);
#260 = VERTEX_POINT('',#261);
#261 = CARTESIAN_POINT('',(-184.9497058314,-14.7005883371,0.525169306863
    ));
#262 = ELLIPSE('',#263,2.124264578625,1.9);
#263 = AXIS2_PLACEMENT_3D('',#264,#265,#266);
#264 = CARTESIAN_POINT('',(-184.1,-16.4,0.950022222588));
#265 = DIRECTION('',(0.4472135955,-2.E-16,-0.894427191));
#266 = DIRECTION('',(-0.894427191,4.E-16,-0.4472135955));
#267 = ORIENTED_EDGE('',*,*,#268,.F.);
#268 = EDGE_CURVE('',#269,#260,#271,.T.);
#269 = VERTEX_POINT('',#270);
#270 = CARTESIAN_POINT('',(-184.9497058314,-19.7005883371,0.525169306863
    ));
#271 = LINE('',#272,#273);
#272 = CARTESIAN_POINT('',(-184.9497058314,-19.5,0.525169306863));
#273 = VECTOR('',#274,1.);
#274 = DIRECTION('',(0.,1.,-2.2E-16));
#275 = ORIENTED_EDGE('',*,*,#276,.T.);
#276 = EDGE_CURVE('',#269,#52,#277,.T.);
#277 = ELLIPSE('',#278,2.124264578625,1.9);
#278 = AXIS2_PLACEMENT_3D('',#279,#280,#281);
#279 = CARTESIAN_POINT('',(-184.1,-21.4,0.950022222588));
#280 = DIRECTION('',(0.4472135955,-2.E-16,-0.894427191));
#281 = DIRECTION('',(0.894427191,-4.E-16,0.4472135955));
#282 = PLANE('',#283);
#283 = AXIS2_PLACEMENT_3D('',#284,#285,#286);
#284 = CARTESIAN_POINT('',(-64.00004444517,-19.5,61.));
#285 = DIRECTION('',(-0.4472135955,2.E-16,0.894427191));
#286 = DIRECTION('',(-0.894427191,-1.E-16,-0.4472135955));
#287 = ADVANCED_FACE('',(#288),#355,.F.);
#288 = FACE_BOUND('',#289,.F.);
#289 = EDGE_LOOP('',(#290,#300,#308,#316,#324,#332,#338,#339,#340,#348)
  );
#290 = ORIENTED_EDGE('',*,*,#291,.F.);
#291 = EDGE_CURVE('',#292,#294,#296,.T.);
#292 = VERTEX_POINT('',#293);
#293 = CARTESIAN_POINT('',(-45.11456180001,-5.,81.));
#294 = VERTEX_POINT('',#295);
#295 = CARTESIAN_POINT('',(58.,-5.,81.));
#296 = LINE('',#297,#298);
#297 = CARTESIAN_POINT('',(-57.30679493886,-5.,81.));
#298 = VECTOR('',#299,1.);
#299 = DIRECTION('',(1.,0.,0.));
#300 = ORIENTED_EDGE('',*,*,#301,.F.);
#301 = EDGE_CURVE('',#302,#292,#304,.T.);
#302 = VERTEX_POINT('',#303);
#303 = CARTESIAN_POINT('',(-45.11456180001,0.,81.));
#304 = LINE('',#305,#306);
#305 = CARTESIAN_POINT('',(-45.11456180001,1.785376808799E-14,81.));
#306 = VECTOR('',#307,1.);
#307 = DIRECTION('',(0.,-1.,2.2E-16));
#308 = ORIENTED_EDGE('',*,*,#309,.F.);
#309 = EDGE_CURVE('',#310,#302,#312,.T.);
#310 = VERTEX_POINT('',#311);
#311 = CARTESIAN_POINT('',(64.,0.,81.));
#312 = LINE('',#313,#314);
#313 = CARTESIAN_POINT('',(64.,0.,81.));
#314 = VECTOR('',#315,1.);
#315 = DIRECTION('',(-1.,0.,0.));
#316 = ORIENTED_EDGE('',*,*,#317,.T.);
#317 = EDGE_CURVE('',#310,#318,#320,.T.);
#318 = VERTEX_POINT('',#319);
#319 = CARTESIAN_POINT('',(64.,-24.5,81.));
#320 = LINE('',#321,#322);
#321 = CARTESIAN_POINT('',(64.,1.799E-14,81.));
#322 = VECTOR('',#323,1.);
#323 = DIRECTION('',(0.,-1.,2.2E-16));
#324 = ORIENTED_EDGE('',*,*,#325,.T.);
#325 = EDGE_CURVE('',#318,#326,#328,.T.);
#326 = VERTEX_POINT('',#327);
#327 = CARTESIAN_POINT('',(-45.11456180001,-24.5,81.));
#328 = LINE('',#329,#330);
#329 = CARTESIAN_POINT('',(64.,-24.5,81.));
#330 = VECTOR('',#331,1.);
#331 = DIRECTION('',(-1.,0.,0.));
#332 = ORIENTED_EDGE('',*,*,#333,.F.);
#333 = EDGE_CURVE('',#92,#326,#334,.T.);
#334 = LINE('',#335,#336);
#335 = CARTESIAN_POINT('',(-45.11456180001,-19.5,81.));
#336 = VECTOR('',#337,1.);
#337 = DIRECTION('',(0.,-1.,2.2E-16));
#338 = ORIENTED_EDGE('',*,*,#100,.T.);
#339 = ORIENTED_EDGE('',*,*,#224,.F.);
#340 = ORIENTED_EDGE('',*,*,#341,.T.);
#341 = EDGE_CURVE('',#225,#342,#344,.T.);
#342 = VERTEX_POINT('',#343);
#343 = CARTESIAN_POINT('',(59.,-6.,81.));
#344 = LINE('',#345,#346);
#345 = CARTESIAN_POINT('',(59.,-19.5,81.));
#346 = VECTOR('',#347,1.);
#347 = DIRECTION('',(0.,1.,-2.2E-16));
#348 = ORIENTED_EDGE('',*,*,#349,.T.);
#349 = EDGE_CURVE('',#342,#294,#350,.T.);
#350 = CIRCLE('',#351,1.);
#351 = AXIS2_PLACEMENT_3D('',#352,#353,#354);
#352 = CARTESIAN_POINT('',(58.,-6.,81.));
#353 = DIRECTION('',(0.,-0.,1.));
#354 = DIRECTION('',(0.,1.,0.));
#355 = PLANE('',#356);
#356 = AXIS2_PLACEMENT_3D('',#357,#358,#359);
#357 = CARTESIAN_POINT('',(64.,1.799E-14,81.));
#358 = DIRECTION('',(-0.,-2.2E-16,-1.));
#359 = DIRECTION('',(-1.,0.,0.));
#360 = ADVANCED_FACE('',(#361),#389,.T.);
#361 = FACE_BOUND('',#362,.T.);
#362 = EDGE_LOOP('',(#363,#372,#380,#387,#388));
#363 = ORIENTED_EDGE('',*,*,#364,.F.);
#364 = EDGE_CURVE('',#365,#269,#367,.T.);
#365 = VERTEX_POINT('',#366);
#366 = CARTESIAN_POINT('',(-186.,-21.4,-1.174242356037));
#367 = ELLIPSE('',#368,2.687005768509,1.9);
#368 = AXIS2_PLACEMENT_3D('',#369,#370,#371);
#369 = CARTESIAN_POINT('',(-184.1,-21.4,-1.174242356037));
#370 = DIRECTION('',(0.,0.707106781187,-0.707106781187));
#371 = DIRECTION('',(0.,0.707106781187,0.707106781187));
#372 = ORIENTED_EDGE('',*,*,#373,.T.);
#373 = EDGE_CURVE('',#365,#374,#376,.T.);
#374 = VERTEX_POINT('',#375);
#375 = CARTESIAN_POINT('',(-186.,-21.4,12.000022222588));
#376 = LINE('',#377,#378);
#377 = CARTESIAN_POINT('',(-186.,-21.4,2.222258813589E-05));
#378 = VECTOR('',#379,1.);
#379 = DIRECTION('',(0.,0.,1.));
#380 = ORIENTED_EDGE('',*,*,#381,.F.);
#381 = EDGE_CURVE('',#60,#374,#382,.T.);
#382 = CIRCLE('',#383,1.9);
#383 = AXIS2_PLACEMENT_3D('',#384,#385,#386);
#384 = CARTESIAN_POINT('',(-184.1,-21.4,12.000022222588));
#385 = DIRECTION('',(-0.,0.,1.));
#386 = DIRECTION('',(0.,-1.,0.));
#387 = ORIENTED_EDGE('',*,*,#59,.F.);
#388 = ORIENTED_EDGE('',*,*,#276,.F.);
#389 = CYLINDRICAL_SURFACE('',#390,1.9);
#390 = AXIS2_PLACEMENT_3D('',#391,#392,#393);
#391 = CARTESIAN_POINT('',(-184.1,-21.4,2.222258813589E-05));
#392 = DIRECTION('',(0.,0.,1.));
#393 = DIRECTION('',(0.,1.,0.));
#394 = ADVANCED_FACE('',(#395),#414,.T.);
#395 = FACE_BOUND('',#396,.T.);
#396 = EDGE_LOOP('',(#397,#398,#406,#413));
#397 = ORIENTED_EDGE('',*,*,#91,.T.);
#398 = ORIENTED_EDGE('',*,*,#399,.T.);
#399 = EDGE_CURVE('',#84,#400,#402,.T.);
#400 = VERTEX_POINT('',#401);
#401 = CARTESIAN_POINT('',(-80.89164944001,-24.5,72.554175279993));
#402 = LINE('',#403,#404);
#403 = CARTESIAN_POINT('',(-80.89164944001,-19.5,72.554175279993));
#404 = VECTOR('',#405,1.);
#405 = DIRECTION('',(0.,-1.,2.2E-16));
#406 = ORIENTED_EDGE('',*,*,#407,.F.);
#407 = EDGE_CURVE('',#326,#400,#408,.T.);
#408 = CIRCLE('',#409,80.);
#409 = AXIS2_PLACEMENT_3D('',#410,#411,#412);
#410 = CARTESIAN_POINT('',(-45.11456180001,-24.5,1.));
#411 = DIRECTION('',(0.,-1.,2.2E-16));
#412 = DIRECTION('',(0.,-2.2E-16,-1.));
#413 = ORIENTED_EDGE('',*,*,#333,.F.);
#414 = CYLINDRICAL_SURFACE('',#415,80.);
#415 = AXIS2_PLACEMENT_3D('',#416,#417,#418);
#416 = CARTESIAN_POINT('',(-45.11456180001,-19.5,1.));
#417 = DIRECTION('',(0.,-1.,2.2E-16));
#418 = DIRECTION('',(0.,2.2E-16,1.));
#419 = ADVANCED_FACE('',(#420),#455,.T.);
#420 = FACE_BOUND('',#421,.T.);
#421 = EDGE_LOOP('',(#422,#423,#424,#432,#441,#449));
#422 = ORIENTED_EDGE('',*,*,#67,.T.);
#423 = ORIENTED_EDGE('',*,*,#381,.T.);
#424 = ORIENTED_EDGE('',*,*,#425,.F.);
#425 = EDGE_CURVE('',#426,#374,#428,.T.);
#426 = VERTEX_POINT('',#427);
#427 = CARTESIAN_POINT('',(-186.,-3.1,12.000022222588));
#428 = LINE('',#429,#430);
#429 = CARTESIAN_POINT('',(-186.,-6.12500000486,12.000022222588));
#430 = VECTOR('',#431,1.);
#431 = DIRECTION('',(0.,-1.,0.));
#432 = ORIENTED_EDGE('',*,*,#433,.F.);
#433 = EDGE_CURVE('',#434,#426,#436,.T.);
#434 = VERTEX_POINT('',#435);
#435 = CARTESIAN_POINT('',(-184.1,-5.,12.000022222588));
#436 = CIRCLE('',#437,1.9);
#437 = AXIS2_PLACEMENT_3D('',#438,#439,#440);
#438 = CARTESIAN_POINT('',(-184.1,-3.1,12.000022222588));
#439 = DIRECTION('',(-0.,-0.,-1.));
#440 = DIRECTION('',(0.,-1.,0.));
#441 = ORIENTED_EDGE('',*,*,#442,.F.);
#442 = EDGE_CURVE('',#443,#434,#445,.T.);
#443 = VERTEX_POINT('',#444);
#444 = CARTESIAN_POINT('',(-176.,-5.,12.000022222588));
#445 = LINE('',#446,#447);
#446 = CARTESIAN_POINT('',(-118.3067949388,-5.,12.000022222588));
#447 = VECTOR('',#448,1.);
#448 = DIRECTION('',(-1.,0.,0.));
#449 = ORIENTED_EDGE('',*,*,#450,.T.);
#450 = EDGE_CURVE('',#443,#68,#451,.T.);
#451 = LINE('',#452,#453);
#452 = CARTESIAN_POINT('',(-176.,2.66E-15,12.000022222588));
#453 = VECTOR('',#454,1.);
#454 = DIRECTION('',(0.,-1.,0.));
#455 = PLANE('',#456);
#456 = AXIS2_PLACEMENT_3D('',#457,#458,#459);
#457 = CARTESIAN_POINT('',(-186.,2.66E-15,12.000022222588));
#458 = DIRECTION('',(-0.,-0.,-1.));
#459 = DIRECTION('',(0.,-1.,0.));
#460 = ADVANCED_FACE('',(#461),#479,.F.);
#461 = FACE_BOUND('',#462,.F.);
#462 = EDGE_LOOP('',(#463,#471,#477,#478));
#463 = ORIENTED_EDGE('',*,*,#464,.T.);
#464 = EDGE_CURVE('',#400,#465,#467,.T.);
#465 = VERTEX_POINT('',#466);
#466 = CARTESIAN_POINT('',(-176.,-24.5,25.000001274839));
#467 = LINE('',#468,#469);
#468 = CARTESIAN_POINT('',(-64.,-24.5,81.));
#469 = VECTOR('',#470,1.);
#470 = DIRECTION('',(-0.894427191,-0.,-0.4472135955));
#471 = ORIENTED_EDGE('',*,*,#472,.T.);
#472 = EDGE_CURVE('',#465,#76,#473,.T.);
#473 = LINE('',#474,#475);
#474 = CARTESIAN_POINT('',(-176.,-6.125000010573,25.));
#475 = VECTOR('',#476,1.);
#476 = DIRECTION('',(0.,1.,-2.2E-16));
#477 = ORIENTED_EDGE('',*,*,#83,.T.);
#478 = ORIENTED_EDGE('',*,*,#399,.T.);
#479 = PLANE('',#480);
#480 = AXIS2_PLACEMENT_3D('',#481,#482,#483);
#481 = CARTESIAN_POINT('',(-64.,1.799E-14,81.));
#482 = DIRECTION('',(0.4472135955,-2.E-16,-0.894427191));
#483 = DIRECTION('',(-0.894427191,-1.E-16,-0.4472135955));
#484 = ADVANCED_FACE('',(#485,#513),#524,.F.);
#485 = FACE_BOUND('',#486,.F.);
#486 = EDGE_LOOP('',(#487,#488,#497,#505,#511,#512));
#487 = ORIENTED_EDGE('',*,*,#472,.F.);
#488 = ORIENTED_EDGE('',*,*,#489,.T.);
#489 = EDGE_CURVE('',#465,#490,#492,.T.);
#490 = VERTEX_POINT('',#491);
#491 = CARTESIAN_POINT('',(-176.,3.E-15,24.999999999996));
#492 = CIRCLE('',#493,12.25);
#493 = AXIS2_PLACEMENT_3D('',#494,#495,#496);
#494 = CARTESIAN_POINT('',(-176.,-12.25,24.999999999996));
#495 = DIRECTION('',(-1.,0.,0.));
#496 = DIRECTION('',(0.,-1.,0.));
#497 = ORIENTED_EDGE('',*,*,#498,.F.);
#498 = EDGE_CURVE('',#499,#490,#501,.T.);
#499 = VERTEX_POINT('',#500);
#500 = CARTESIAN_POINT('',(-176.,-5.,25.));
#501 = LINE('',#502,#503);
#502 = CARTESIAN_POINT('',(-176.,-6.125000010573,25.));
#503 = VECTOR('',#504,1.);
#504 = DIRECTION('',(0.,1.,-2.2E-16));
#505 = ORIENTED_EDGE('',*,*,#506,.F.);
#506 = EDGE_CURVE('',#443,#499,#507,.T.);
#507 = LINE('',#508,#509);
#508 = CARTESIAN_POINT('',(-176.,-5.,24.335424613372));
#509 = VECTOR('',#510,1.);
#510 = DIRECTION('',(0.,0.,1.));
#511 = ORIENTED_EDGE('',*,*,#450,.T.);
#512 = ORIENTED_EDGE('',*,*,#75,.T.);
#513 = FACE_BOUND('',#514,.F.);
#514 = EDGE_LOOP('',(#515));
#515 = ORIENTED_EDGE('',*,*,#516,.F.);
#516 = EDGE_CURVE('',#517,#517,#519,.T.);
#517 = VERTEX_POINT('',#518);
#518 = CARTESIAN_POINT('',(-176.,-14.5,24.999999999996));
#519 = CIRCLE('',#520,2.25);
#520 = AXIS2_PLACEMENT_3D('',#521,#522,#523);
#521 = CARTESIAN_POINT('',(-176.,-12.25,24.999999999996));
#522 = DIRECTION('',(-1.,0.,0.));
#523 = DIRECTION('',(0.,-1.,0.));
#524 = PLANE('',#525);
#525 = AXIS2_PLACEMENT_3D('',#526,#527,#528);
#526 = CARTESIAN_POINT('',(-176.,-12.25000002114,22.699817933561));
#527 = DIRECTION('',(-1.,0.,0.));
#528 = DIRECTION('',(0.,-1.,0.));
#529 = ADVANCED_FACE('',(#530),#550,.T.);
#530 = FACE_BOUND('',#531,.T.);
#531 = EDGE_LOOP('',(#532,#541,#542,#543));
#532 = ORIENTED_EDGE('',*,*,#533,.F.);
#533 = EDGE_CURVE('',#117,#534,#536,.T.);
#534 = VERTEX_POINT('',#535);
#535 = CARTESIAN_POINT('',(49.,-20.5,69.1));
#536 = CIRCLE('',#537,1.);
#537 = AXIS2_PLACEMENT_3D('',#538,#539,#540);
#538 = CARTESIAN_POINT('',(50.,-20.5,69.1));
#539 = DIRECTION('',(0.,0.,1.));
#540 = DIRECTION('',(1.,0.,0.));
#541 = ORIENTED_EDGE('',*,*,#116,.T.);
#542 = ORIENTED_EDGE('',*,*,#533,.T.);
#543 = ORIENTED_EDGE('',*,*,#544,.F.);
#544 = EDGE_CURVE('',#534,#534,#545,.T.);
#545 = CIRCLE('',#546,5.);
#546 = AXIS2_PLACEMENT_3D('',#547,#548,#549);
#547 = CARTESIAN_POINT('',(44.,-20.5,69.1));
#548 = DIRECTION('',(-0.,1.,0.));
#549 = DIRECTION('',(1.,0.,0.));
#550 = TOROIDAL_SURFACE('',#551,6.,1.);
#551 = AXIS2_PLACEMENT_3D('',#552,#553,#554);
#552 = CARTESIAN_POINT('',(44.,-20.5,69.1));
#553 = DIRECTION('',(0.,1.,0.));
#554 = DIRECTION('',(1.,0.,0.));
#555 = ADVANCED_FACE('',(#556),#575,.F.);
#556 = FACE_BOUND('',#557,.T.);
#557 = EDGE_LOOP('',(#558,#566,#567,#568));
#558 = ORIENTED_EDGE('',*,*,#559,.F.);
#559 = EDGE_CURVE('',#134,#560,#562,.T.);
#560 = VERTEX_POINT('',#561);
#561 = CARTESIAN_POINT('',(-39.,-23.5,69.1));
#562 = LINE('',#563,#564);
#563 = CARTESIAN_POINT('',(-39.,-5.,69.1));
#564 = VECTOR('',#565,1.);
#565 = DIRECTION('',(0.,-1.,2.22044604925E-16));
#566 = ORIENTED_EDGE('',*,*,#144,.T.);
#567 = ORIENTED_EDGE('',*,*,#559,.T.);
#568 = ORIENTED_EDGE('',*,*,#569,.F.);
#569 = EDGE_CURVE('',#560,#560,#570,.T.);
#570 = CIRCLE('',#571,5.);
#571 = AXIS2_PLACEMENT_3D('',#572,#573,#574);
#572 = CARTESIAN_POINT('',(-44.,-23.5,69.1));
#573 = DIRECTION('',(0.,1.,-2.3E-16));
#574 = DIRECTION('',(1.,-6.642793168993E-31,-2.88817094304E-15));
#575 = CYLINDRICAL_SURFACE('',#576,5.);
#576 = AXIS2_PLACEMENT_3D('',#577,#578,#579);
#577 = CARTESIAN_POINT('',(-44.,-5.,69.1));
#578 = DIRECTION('',(0.,1.,-2.22044604925E-16));
#579 = DIRECTION('',(1.,0.,0.));
#580 = ADVANCED_FACE('',(#581,#592,#619,#630),#641,.F.);
#581 = FACE_BOUND('',#582,.F.);
#582 = EDGE_LOOP('',(#583));
#583 = ORIENTED_EDGE('',*,*,#584,.T.);
#584 = EDGE_CURVE('',#585,#585,#587,.T.);
#585 = VERTEX_POINT('',#586);
#586 = CARTESIAN_POINT('',(-38.,-14.5,16.));
#587 = CIRCLE('',#588,6.);
#588 = AXIS2_PLACEMENT_3D('',#589,#590,#591);
#589 = CARTESIAN_POINT('',(-44.,-14.5,16.));
#590 = DIRECTION('',(-0.,1.,0.));
#591 = DIRECTION('',(1.,0.,7.105427357601E-16));
#592 = FACE_BOUND('',#593,.F.);
#593 = EDGE_LOOP('',(#594,#595,#603,#611,#617,#618));
#594 = ORIENTED_EDGE('',*,*,#251,.F.);
#595 = ORIENTED_EDGE('',*,*,#596,.T.);
#596 = EDGE_CURVE('',#252,#597,#599,.T.);
#597 = VERTEX_POINT('',#598);
#598 = CARTESIAN_POINT('',(-184.1,-14.5,-15.));
#599 = LINE('',#600,#601);
#600 = CARTESIAN_POINT('',(-184.1,-14.5,2.222258813589E-05));
#601 = VECTOR('',#602,1.);
#602 = DIRECTION('',(-0.,-0.,-1.));
#603 = ORIENTED_EDGE('',*,*,#604,.T.);
#604 = EDGE_CURVE('',#597,#605,#607,.T.);
#605 = VERTEX_POINT('',#606);
#606 = CARTESIAN_POINT('',(59.,-14.5,-15.));
#607 = LINE('',#608,#609);
#608 = CARTESIAN_POINT('',(-61.,-14.5,-15.));
#609 = VECTOR('',#610,1.);
#610 = DIRECTION('',(1.,0.,0.));
#611 = ORIENTED_EDGE('',*,*,#612,.F.);
#612 = EDGE_CURVE('',#170,#605,#613,.T.);
#613 = LINE('',#614,#615);
#614 = CARTESIAN_POINT('',(59.,-14.5,61.));
#615 = VECTOR('',#616,1.);
#616 = DIRECTION('',(-0.,-0.,-1.));
#617 = ORIENTED_EDGE('',*,*,#177,.F.);
#618 = ORIENTED_EDGE('',*,*,#208,.T.);
#619 = FACE_BOUND('',#620,.F.);
#620 = EDGE_LOOP('',(#621));
#621 = ORIENTED_EDGE('',*,*,#622,.T.);
#622 = EDGE_CURVE('',#623,#623,#625,.T.);
#623 = VERTEX_POINT('',#624);
#624 = CARTESIAN_POINT('',(50.,-14.5,16.));
#625 = CIRCLE('',#626,6.);
#626 = AXIS2_PLACEMENT_3D('',#627,#628,#629);
#627 = CARTESIAN_POINT('',(44.,-14.5,16.));
#628 = DIRECTION('',(-0.,1.,0.));
#629 = DIRECTION('',(1.,0.,7.105427357601E-16));
#630 = FACE_BOUND('',#631,.F.);
#631 = EDGE_LOOP('',(#632));
#632 = ORIENTED_EDGE('',*,*,#633,.T.);
#633 = EDGE_CURVE('',#634,#634,#636,.T.);
#634 = VERTEX_POINT('',#635);
#635 = CARTESIAN_POINT('',(6.,-14.5,42.55));
#636 = CIRCLE('',#637,6.);
#637 = AXIS2_PLACEMENT_3D('',#638,#639,#640);
#638 = CARTESIAN_POINT('',(0.,-14.5,42.55));
#639 = DIRECTION('',(-0.,1.,0.));
#640 = DIRECTION('',(1.,0.,0.));
#641 = PLANE('',#642);
#642 = AXIS2_PLACEMENT_3D('',#643,#644,#645);
#643 = CARTESIAN_POINT('',(-186.,-14.5,61.));
#644 = DIRECTION('',(0.,-1.,0.));
#645 = DIRECTION('',(1.,0.,0.));
#646 = ADVANCED_FACE('',(#647),#683,.T.);
#647 = FACE_BOUND('',#648,.T.);
#648 = EDGE_LOOP('',(#649,#650,#651,#652,#660,#668,#676,#682));
#649 = ORIENTED_EDGE('',*,*,#169,.F.);
#650 = ORIENTED_EDGE('',*,*,#235,.F.);
#651 = ORIENTED_EDGE('',*,*,#341,.T.);
#652 = ORIENTED_EDGE('',*,*,#653,.T.);
#653 = EDGE_CURVE('',#342,#654,#656,.T.);
#654 = VERTEX_POINT('',#655);
#655 = CARTESIAN_POINT('',(59.,-6.,61.));
#656 = LINE('',#657,#658);
#657 = CARTESIAN_POINT('',(59.,-6.,81.));
#658 = VECTOR('',#659,1.);
#659 = DIRECTION('',(0.,0.,-1.));
#660 = ORIENTED_EDGE('',*,*,#661,.F.);
#661 = EDGE_CURVE('',#662,#654,#664,.T.);
#662 = VERTEX_POINT('',#663);
#663 = CARTESIAN_POINT('',(59.,-10.,61.));
#664 = LINE('',#665,#666);
#665 = CARTESIAN_POINT('',(59.,-19.5,61.));
#666 = VECTOR('',#667,1.);
#667 = DIRECTION('',(0.,1.,-2.2E-16));
#668 = ORIENTED_EDGE('',*,*,#669,.T.);
#669 = EDGE_CURVE('',#662,#670,#672,.T.);
#670 = VERTEX_POINT('',#671);
#671 = CARTESIAN_POINT('',(59.,-10.,-15.));
#672 = LINE('',#673,#674);
#673 = CARTESIAN_POINT('',(59.,-10.,61.));
#674 = VECTOR('',#675,1.);
#675 = DIRECTION('',(-0.,-0.,-1.));
#676 = ORIENTED_EDGE('',*,*,#677,.F.);
#677 = EDGE_CURVE('',#605,#670,#678,.T.);
#678 = LINE('',#679,#680);
#679 = CARTESIAN_POINT('',(59.,-7.25,-15.));
#680 = VECTOR('',#681,1.);
#681 = DIRECTION('',(-1.58E-15,1.,-2.2E-16));
#682 = ORIENTED_EDGE('',*,*,#612,.F.);
#683 = PLANE('',#684);
#684 = AXIS2_PLACEMENT_3D('',#685,#686,#687);
#685 = CARTESIAN_POINT('',(59.,-12.25,36.438914027148));
#686 = DIRECTION('',(-1.,-3.2E-16,-0.));
#687 = DIRECTION('',(3.2E-16,-1.,0.));
#688 = ADVANCED_FACE('',(#689),#708,.T.);
#689 = FACE_BOUND('',#690,.F.);
#690 = EDGE_LOOP('',(#691,#692,#700,#707));
#691 = ORIENTED_EDGE('',*,*,#364,.F.);
#692 = ORIENTED_EDGE('',*,*,#693,.T.);
#693 = EDGE_CURVE('',#365,#694,#696,.T.);
#694 = VERTEX_POINT('',#695);
#695 = CARTESIAN_POINT('',(-186.,-16.4,-1.174242356037));
#696 = LINE('',#697,#698);
#697 = CARTESIAN_POINT('',(-186.,-19.5,-1.174242356037));
#698 = VECTOR('',#699,1.);
#699 = DIRECTION('',(0.,1.,-2.2E-16));
#700 = ORIENTED_EDGE('',*,*,#701,.T.);
#701 = EDGE_CURVE('',#694,#260,#702,.T.);
#702 = ELLIPSE('',#703,2.687005768509,1.9);
#703 = AXIS2_PLACEMENT_3D('',#704,#705,#706);
#704 = CARTESIAN_POINT('',(-184.1,-16.4,-1.174242356037));
#705 = DIRECTION('',(0.,0.707106781187,-0.707106781187));
#706 = DIRECTION('',(0.,0.707106781187,0.707106781187));
#707 = ORIENTED_EDGE('',*,*,#268,.F.);
#708 = CYLINDRICAL_SURFACE('',#709,1.9);
#709 = AXIS2_PLACEMENT_3D('',#710,#711,#712);
#710 = CARTESIAN_POINT('',(-184.1,-19.5,-1.174242356037));
#711 = DIRECTION('',(0.,1.,-2.2E-16));
#712 = DIRECTION('',(-0.4472135955,1.9677398202E-16,0.894427191));
#713 = ADVANCED_FACE('',(#714),#734,.T.);
#714 = FACE_BOUND('',#715,.F.);
#715 = EDGE_LOOP('',(#716,#717,#725,#732,#733));
#716 = ORIENTED_EDGE('',*,*,#701,.F.);
#717 = ORIENTED_EDGE('',*,*,#718,.T.);
#718 = EDGE_CURVE('',#694,#719,#721,.T.);
#719 = VERTEX_POINT('',#720);
#720 = CARTESIAN_POINT('',(-186.,-16.4,-15.));
#721 = LINE('',#722,#723);
#722 = CARTESIAN_POINT('',(-186.,-16.4,2.222258813589E-05));
#723 = VECTOR('',#724,1.);
#724 = DIRECTION('',(-0.,-0.,-1.));
#725 = ORIENTED_EDGE('',*,*,#726,.F.);
#726 = EDGE_CURVE('',#597,#719,#727,.T.);
#727 = CIRCLE('',#728,1.9);
#728 = AXIS2_PLACEMENT_3D('',#729,#730,#731);
#729 = CARTESIAN_POINT('',(-184.1,-16.4,-15.));
#730 = DIRECTION('',(0.,-0.,1.));
#731 = DIRECTION('',(0.,1.,0.));
#732 = ORIENTED_EDGE('',*,*,#596,.F.);
#733 = ORIENTED_EDGE('',*,*,#259,.F.);
#734 = CYLINDRICAL_SURFACE('',#735,1.9);
#735 = AXIS2_PLACEMENT_3D('',#736,#737,#738);
#736 = CARTESIAN_POINT('',(-184.1,-16.4,2.222258813589E-05));
#737 = DIRECTION('',(-0.,-0.,-1.));
#738 = DIRECTION('',(0.,1.,0.));
#739 = ADVANCED_FACE('',(#740,#799,#810),#821,.F.);
#740 = FACE_BOUND('',#741,.F.);
#741 = EDGE_LOOP('',(#742,#752,#761,#769,#775,#776,#777,#785,#792,#793)
  );
#742 = ORIENTED_EDGE('',*,*,#743,.T.);
#743 = EDGE_CURVE('',#744,#746,#748,.T.);
#744 = VERTEX_POINT('',#745);
#745 = CARTESIAN_POINT('',(58.,-5.,61.));
#746 = VERTEX_POINT('',#747);
#747 = CARTESIAN_POINT('',(-45.11460624519,-5.,61.));
#748 = LINE('',#749,#750);
#749 = CARTESIAN_POINT('',(4.193205061131,-5.,61.));
#750 = VECTOR('',#751,1.);
#751 = DIRECTION('',(-1.,0.,0.));
#752 = ORIENTED_EDGE('',*,*,#753,.T.);
#753 = EDGE_CURVE('',#746,#754,#756,.T.);
#754 = VERTEX_POINT('',#755);
#755 = CARTESIAN_POINT('',(-80.89169388519,-5.,52.554175279993));
#756 = CIRCLE('',#757,80.);
#757 = AXIS2_PLACEMENT_3D('',#758,#759,#760);
#758 = CARTESIAN_POINT('',(-45.11460624519,-5.,-19.));
#759 = DIRECTION('',(0.,-1.,2.2E-16));
#760 = DIRECTION('',(0.,2.2E-16,1.));
#761 = ORIENTED_EDGE('',*,*,#762,.T.);
#762 = EDGE_CURVE('',#754,#763,#765,.T.);
#763 = VERTEX_POINT('',#764);
#764 = CARTESIAN_POINT('',(-184.1,-5.,0.950022222588));
#765 = LINE('',#766,#767);
#766 = CARTESIAN_POINT('',(-65.65125635956,-5.,60.174394042806));
#767 = VECTOR('',#768,1.);
#768 = DIRECTION('',(-0.894427191,0.,-0.4472135955));
#769 = ORIENTED_EDGE('',*,*,#770,.T.);
#770 = EDGE_CURVE('',#763,#434,#771,.T.);
#771 = LINE('',#772,#773);
#772 = CARTESIAN_POINT('',(-184.1,-5.,2.222258812878E-05));
#773 = VECTOR('',#774,1.);
#774 = DIRECTION('',(0.,0.,1.));
#775 = ORIENTED_EDGE('',*,*,#442,.F.);
#776 = ORIENTED_EDGE('',*,*,#506,.T.);
#777 = ORIENTED_EDGE('',*,*,#778,.T.);
#778 = EDGE_CURVE('',#499,#779,#781,.T.);
#779 = VERTEX_POINT('',#780);
#780 = CARTESIAN_POINT('',(-80.89164944001,-5.,72.554175279993));
#781 = LINE('',#782,#783);
#782 = CARTESIAN_POINT('',(-130.6512296924,-5.,47.67438515377));
#783 = VECTOR('',#784,1.);
#784 = DIRECTION('',(0.894427191,0.,0.4472135955));
#785 = ORIENTED_EDGE('',*,*,#786,.F.);
#786 = EDGE_CURVE('',#292,#779,#787,.T.);
#787 = CIRCLE('',#788,80.);
#788 = AXIS2_PLACEMENT_3D('',#789,#790,#791);
#789 = CARTESIAN_POINT('',(-45.11456180001,-5.,1.));
#790 = DIRECTION('',(0.,-1.,2.2E-16));
#791 = DIRECTION('',(0.,-2.2E-16,-1.));
#792 = ORIENTED_EDGE('',*,*,#291,.T.);
#793 = ORIENTED_EDGE('',*,*,#794,.T.);
#794 = EDGE_CURVE('',#294,#744,#795,.T.);
#795 = LINE('',#796,#797);
#796 = CARTESIAN_POINT('',(58.,-5.,81.));
#797 = VECTOR('',#798,1.);
#798 = DIRECTION('',(0.,0.,-1.));
#799 = FACE_BOUND('',#800,.F.);
#800 = EDGE_LOOP('',(#801));
#801 = ORIENTED_EDGE('',*,*,#802,.T.);
#802 = EDGE_CURVE('',#803,#803,#805,.T.);
#803 = VERTEX_POINT('',#804);
#804 = CARTESIAN_POINT('',(-48.5,-5.,69.1));
#805 = CIRCLE('',#806,4.5);
#806 = AXIS2_PLACEMENT_3D('',#807,#808,#809);
#807 = CARTESIAN_POINT('',(-44.,-5.,69.1));
#808 = DIRECTION('',(0.,-1.,2.226347849766E-16));
#809 = DIRECTION('',(-1.,0.,0.));
#810 = FACE_BOUND('',#811,.F.);
#811 = EDGE_LOOP('',(#812));
#812 = ORIENTED_EDGE('',*,*,#813,.T.);
#813 = EDGE_CURVE('',#814,#814,#816,.T.);
#814 = VERTEX_POINT('',#815);
#815 = CARTESIAN_POINT('',(39.5,-5.,69.1));
#816 = CIRCLE('',#817,4.5);
#817 = AXIS2_PLACEMENT_3D('',#818,#819,#820);
#818 = CARTESIAN_POINT('',(44.,-5.,69.1));
#819 = DIRECTION('',(0.,-1.,2.226347849766E-16));
#820 = DIRECTION('',(-1.,0.,0.));
#821 = PLANE('',#822);
#822 = AXIS2_PLACEMENT_3D('',#823,#824,#825);
#823 = CARTESIAN_POINT('',(-50.61358987773,-5.,25.971031293182));
#824 = DIRECTION('',(0.,1.,0.));
#825 = DIRECTION('',(0.,0.,1.));
#826 = ADVANCED_FACE('',(#827),#846,.T.);
#827 = FACE_BOUND('',#828,.T.);
#828 = EDGE_LOOP('',(#829,#838,#844,#845));
#829 = ORIENTED_EDGE('',*,*,#830,.T.);
#830 = EDGE_CURVE('',#302,#831,#833,.T.);
#831 = VERTEX_POINT('',#832);
#832 = CARTESIAN_POINT('',(-80.89164944001,6.310887241768E-30,
    72.554175279993));
#833 = CIRCLE('',#834,80.);
#834 = AXIS2_PLACEMENT_3D('',#835,#836,#837);
#835 = CARTESIAN_POINT('',(-45.11456180001,5.72E-15,1.));
#836 = DIRECTION('',(0.,-1.,2.2E-16));
#837 = DIRECTION('',(0.,-2.2E-16,-1.));
#838 = ORIENTED_EDGE('',*,*,#839,.T.);
#839 = EDGE_CURVE('',#831,#779,#840,.T.);
#840 = LINE('',#841,#842);
#841 = CARTESIAN_POINT('',(-80.89164944001,1.599568664958E-14,
    72.554175279993));
#842 = VECTOR('',#843,1.);
#843 = DIRECTION('',(0.,-1.,2.2E-16));
#844 = ORIENTED_EDGE('',*,*,#786,.F.);
#845 = ORIENTED_EDGE('',*,*,#301,.F.);
#846 = CYLINDRICAL_SURFACE('',#847,80.);
#847 = AXIS2_PLACEMENT_3D('',#848,#849,#850);
#848 = CARTESIAN_POINT('',(-45.11456180001,2.537680879859E-16,1.));
#849 = DIRECTION('',(0.,-1.,2.2E-16));
#850 = DIRECTION('',(0.,2.2E-16,1.));
#851 = ADVANCED_FACE('',(#852),#864,.F.);
#852 = FACE_BOUND('',#853,.T.);
#853 = EDGE_LOOP('',(#854,#855,#856,#863));
#854 = ORIENTED_EDGE('',*,*,#349,.T.);
#855 = ORIENTED_EDGE('',*,*,#794,.T.);
#856 = ORIENTED_EDGE('',*,*,#857,.F.);
#857 = EDGE_CURVE('',#654,#744,#858,.T.);
#858 = CIRCLE('',#859,1.);
#859 = AXIS2_PLACEMENT_3D('',#860,#861,#862);
#860 = CARTESIAN_POINT('',(58.,-6.,61.));
#861 = DIRECTION('',(0.,-0.,1.));
#862 = DIRECTION('',(0.,1.,0.));
#863 = ORIENTED_EDGE('',*,*,#653,.F.);
#864 = CYLINDRICAL_SURFACE('',#865,1.);
#865 = AXIS2_PLACEMENT_3D('',#866,#867,#868);
#866 = CARTESIAN_POINT('',(58.,-6.,81.));
#867 = DIRECTION('',(0.,0.,-1.));
#868 = DIRECTION('',(1.,3.2E-16,0.));
#869 = ADVANCED_FACE('',(#870,#910,#921,#932,#943,#954),#965,.T.);
#870 = FACE_BOUND('',#871,.T.);
#871 = EDGE_LOOP('',(#872,#873,#881,#889,#897,#903,#909));
#872 = ORIENTED_EDGE('',*,*,#309,.F.);
#873 = ORIENTED_EDGE('',*,*,#874,.F.);
#874 = EDGE_CURVE('',#875,#310,#877,.T.);
#875 = VERTEX_POINT('',#876);
#876 = CARTESIAN_POINT('',(64.,0.,-15.));
#877 = LINE('',#878,#879);
#878 = CARTESIAN_POINT('',(64.,0.,0.));
#879 = VECTOR('',#880,1.);
#880 = DIRECTION('',(0.,2.2E-16,1.));
#881 = ORIENTED_EDGE('',*,*,#882,.T.);
#882 = EDGE_CURVE('',#875,#883,#885,.T.);
#883 = VERTEX_POINT('',#884);
#884 = CARTESIAN_POINT('',(-184.1,-2.886579864025E-15,-15.));
#885 = LINE('',#886,#887);
#886 = CARTESIAN_POINT('',(64.,0.,-15.));
#887 = VECTOR('',#888,1.);
#888 = DIRECTION('',(-1.,0.,0.));
#889 = ORIENTED_EDGE('',*,*,#890,.F.);
#890 = EDGE_CURVE('',#891,#883,#893,.T.);
#891 = VERTEX_POINT('',#892);
#892 = CARTESIAN_POINT('',(-184.1,1.7763568394E-15,24.999999999996));
#893 = LINE('',#894,#895);
#894 = CARTESIAN_POINT('',(-184.1,5.995204332976E-15,24.999999999996));
#895 = VECTOR('',#896,1.);
#896 = DIRECTION('',(-0.,-2.2E-16,-1.));
#897 = ORIENTED_EDGE('',*,*,#898,.T.);
#898 = EDGE_CURVE('',#891,#490,#899,.T.);
#899 = LINE('',#900,#901);
#900 = CARTESIAN_POINT('',(-186.,3.11E-15,24.999999999996));
#901 = VECTOR('',#902,1.);
#902 = DIRECTION('',(1.,0.,0.));
#903 = ORIENTED_EDGE('',*,*,#904,.F.);
#904 = EDGE_CURVE('',#831,#490,#905,.T.);
#905 = LINE('',#906,#907);
#906 = CARTESIAN_POINT('',(-64.,0.,81.));
#907 = VECTOR('',#908,1.);
#908 = DIRECTION('',(-0.894427191,-0.,-0.4472135955));
#909 = ORIENTED_EDGE('',*,*,#830,.F.);
#910 = FACE_BOUND('',#911,.T.);
#911 = EDGE_LOOP('',(#912));
#912 = ORIENTED_EDGE('',*,*,#913,.T.);
#913 = EDGE_CURVE('',#914,#914,#916,.T.);
#914 = VERTEX_POINT('',#915);
#915 = CARTESIAN_POINT('',(-41.74999999991,5.329070518201E-15,16.));
#916 = CIRCLE('',#917,2.250000000087);
#917 = AXIS2_PLACEMENT_3D('',#918,#919,#920);
#918 = CARTESIAN_POINT('',(-44.,5.329070518201E-15,16.));
#919 = DIRECTION('',(0.,-1.,2.22044604925E-16));
#920 = DIRECTION('',(1.,0.,0.));
#921 = FACE_BOUND('',#922,.T.);
#922 = EDGE_LOOP('',(#923));
#923 = ORIENTED_EDGE('',*,*,#924,.T.);
#924 = EDGE_CURVE('',#925,#925,#927,.T.);
#925 = VERTEX_POINT('',#926);
#926 = CARTESIAN_POINT('',(-41.74999999991,5.329070518201E-15,69.1));
#927 = CIRCLE('',#928,2.250000000087);
#928 = AXIS2_PLACEMENT_3D('',#929,#930,#931);
#929 = CARTESIAN_POINT('',(-44.,5.329070518201E-15,69.1));
#930 = DIRECTION('',(0.,-1.,2.22044604925E-16));
#931 = DIRECTION('',(1.,0.,0.));
#932 = FACE_BOUND('',#933,.T.);
#933 = EDGE_LOOP('',(#934));
#934 = ORIENTED_EDGE('',*,*,#935,.T.);
#935 = EDGE_CURVE('',#936,#936,#938,.T.);
#936 = VERTEX_POINT('',#937);
#937 = CARTESIAN_POINT('',(2.250000000087,5.329070518201E-15,42.55));
#938 = CIRCLE('',#939,2.250000000087);
#939 = AXIS2_PLACEMENT_3D('',#940,#941,#942);
#940 = CARTESIAN_POINT('',(0.,5.329070518201E-15,42.55));
#941 = DIRECTION('',(0.,-1.,2.22044604925E-16));
#942 = DIRECTION('',(1.,0.,0.));
#943 = FACE_BOUND('',#944,.T.);
#944 = EDGE_LOOP('',(#945));
#945 = ORIENTED_EDGE('',*,*,#946,.T.);
#946 = EDGE_CURVE('',#947,#947,#949,.T.);
#947 = VERTEX_POINT('',#948);
#948 = CARTESIAN_POINT('',(46.250000000087,5.329070518201E-15,16.));
#949 = CIRCLE('',#950,2.250000000087);
#950 = AXIS2_PLACEMENT_3D('',#951,#952,#953);
#951 = CARTESIAN_POINT('',(44.,5.329070518201E-15,16.));
#952 = DIRECTION('',(0.,-1.,2.22044604925E-16));
#953 = DIRECTION('',(1.,0.,0.));
#954 = FACE_BOUND('',#955,.T.);
#955 = EDGE_LOOP('',(#956));
#956 = ORIENTED_EDGE('',*,*,#957,.T.);
#957 = EDGE_CURVE('',#958,#958,#960,.T.);
#958 = VERTEX_POINT('',#959);
#959 = CARTESIAN_POINT('',(46.250000000087,5.329070518201E-15,69.1));
#960 = CIRCLE('',#961,2.250000000087);
#961 = AXIS2_PLACEMENT_3D('',#962,#963,#964);
#962 = CARTESIAN_POINT('',(44.,5.329070518201E-15,69.1));
#963 = DIRECTION('',(0.,-1.,2.22044604925E-16));
#964 = DIRECTION('',(1.,0.,0.));
#965 = PLANE('',#966);
#966 = AXIS2_PLACEMENT_3D('',#967,#968,#969);
#967 = CARTESIAN_POINT('',(-51.41922113625,5.72E-15,25.989117371423));
#968 = DIRECTION('',(0.,1.,0.));
#969 = DIRECTION('',(0.,0.,1.));
#970 = ADVANCED_FACE('',(#971),#989,.T.);
#971 = FACE_BOUND('',#972,.T.);
#972 = EDGE_LOOP('',(#973,#981,#982,#983));
#973 = ORIENTED_EDGE('',*,*,#974,.F.);
#974 = EDGE_CURVE('',#875,#975,#977,.T.);
#975 = VERTEX_POINT('',#976);
#976 = CARTESIAN_POINT('',(64.,-24.5,-15.));
#977 = LINE('',#978,#979);
#978 = CARTESIAN_POINT('',(64.,-3.33E-15,-15.));
#979 = VECTOR('',#980,1.);
#980 = DIRECTION('',(0.,-1.,2.2E-16));
#981 = ORIENTED_EDGE('',*,*,#874,.T.);
#982 = ORIENTED_EDGE('',*,*,#317,.T.);
#983 = ORIENTED_EDGE('',*,*,#984,.T.);
#984 = EDGE_CURVE('',#318,#975,#985,.T.);
#985 = LINE('',#986,#987);
#986 = CARTESIAN_POINT('',(64.,-24.5,-2.28126E-12));
#987 = VECTOR('',#988,1.);
#988 = DIRECTION('',(0.,-2.2E-16,-1.));
#989 = PLANE('',#990);
#990 = AXIS2_PLACEMENT_3D('',#991,#992,#993);
#991 = CARTESIAN_POINT('',(64.,-12.25,32.999999999999));
#992 = DIRECTION('',(1.,0.,0.));
#993 = DIRECTION('',(0.,0.,1.));
#994 = ADVANCED_FACE('',(#995,#1006,#1034,#1045,#1056,#1067),#1078,.T.);
#995 = FACE_BOUND('',#996,.T.);
#996 = EDGE_LOOP('',(#997));
#997 = ORIENTED_EDGE('',*,*,#998,.T.);
#998 = EDGE_CURVE('',#999,#999,#1001,.T.);
#999 = VERTEX_POINT('',#1000);
#1000 = CARTESIAN_POINT('',(-38.,-24.5,69.1));
#1001 = CIRCLE('',#1002,6.);
#1002 = AXIS2_PLACEMENT_3D('',#1003,#1004,#1005);
#1003 = CARTESIAN_POINT('',(-44.,-24.5,69.1));
#1004 = DIRECTION('',(0.,1.,-2.3E-16));
#1005 = DIRECTION('',(1.,-6.642793168993E-31,-2.88817094304E-15));
#1006 = FACE_BOUND('',#1007,.T.);
#1007 = EDGE_LOOP('',(#1008,#1009,#1017,#1025,#1031,#1032,#1033));
#1008 = ORIENTED_EDGE('',*,*,#464,.T.);
#1009 = ORIENTED_EDGE('',*,*,#1010,.F.);
#1010 = EDGE_CURVE('',#1011,#465,#1013,.T.);
#1011 = VERTEX_POINT('',#1012);
#1012 = CARTESIAN_POINT('',(-184.1,-24.5,25.000001274839));
#1013 = LINE('',#1014,#1015);
#1014 = CARTESIAN_POINT('',(-186.,-24.5,25.000001274839));
#1015 = VECTOR('',#1016,1.);
#1016 = DIRECTION('',(1.,0.,0.));
#1017 = ORIENTED_EDGE('',*,*,#1018,.F.);
#1018 = EDGE_CURVE('',#1019,#1011,#1021,.T.);
#1019 = VERTEX_POINT('',#1020);
#1020 = CARTESIAN_POINT('',(-184.1,-24.5,-15.));
#1021 = LINE('',#1022,#1023);
#1022 = CARTESIAN_POINT('',(-184.1,-24.5,-15.));
#1023 = VECTOR('',#1024,1.);
#1024 = DIRECTION('',(0.,2.2E-16,1.));
#1025 = ORIENTED_EDGE('',*,*,#1026,.F.);
#1026 = EDGE_CURVE('',#975,#1019,#1027,.T.);
#1027 = LINE('',#1028,#1029);
#1028 = CARTESIAN_POINT('',(64.,-24.5,-15.));
#1029 = VECTOR('',#1030,1.);
#1030 = DIRECTION('',(-1.,0.,0.));
#1031 = ORIENTED_EDGE('',*,*,#984,.F.);
#1032 = ORIENTED_EDGE('',*,*,#325,.T.);
#1033 = ORIENTED_EDGE('',*,*,#407,.T.);
#1034 = FACE_BOUND('',#1035,.T.);
#1035 = EDGE_LOOP('',(#1036));
#1036 = ORIENTED_EDGE('',*,*,#1037,.T.);
#1037 = EDGE_CURVE('',#1038,#1038,#1040,.T.);
#1038 = VERTEX_POINT('',#1039);
#1039 = CARTESIAN_POINT('',(-38.,-24.5,16.));
#1040 = CIRCLE('',#1041,6.);
#1041 = AXIS2_PLACEMENT_3D('',#1042,#1043,#1044);
#1042 = CARTESIAN_POINT('',(-44.,-24.5,16.));
#1043 = DIRECTION('',(0.,1.,-2.3E-16));
#1044 = DIRECTION('',(1.,-1.740048292248E-31,-7.565427357601E-16));
#1045 = FACE_BOUND('',#1046,.T.);
#1046 = EDGE_LOOP('',(#1047));
#1047 = ORIENTED_EDGE('',*,*,#1048,.T.);
#1048 = EDGE_CURVE('',#1049,#1049,#1051,.T.);
#1049 = VERTEX_POINT('',#1050);
#1050 = CARTESIAN_POINT('',(6.,-24.5,42.55));
#1051 = CIRCLE('',#1052,6.);
#1052 = AXIS2_PLACEMENT_3D('',#1053,#1054,#1055);
#1053 = CARTESIAN_POINT('',(0.,-24.5,42.55));
#1054 = DIRECTION('',(0.,1.,-2.3E-16));
#1055 = DIRECTION('',(1.,-3.374296584496E-31,-1.46708547152E-15));
#1056 = FACE_BOUND('',#1057,.T.);
#1057 = EDGE_LOOP('',(#1058));
#1058 = ORIENTED_EDGE('',*,*,#1059,.T.);
#1059 = EDGE_CURVE('',#1060,#1060,#1062,.T.);
#1060 = VERTEX_POINT('',#1061);
#1061 = CARTESIAN_POINT('',(50.,-24.5,16.));
#1062 = CIRCLE('',#1063,6.);
#1063 = AXIS2_PLACEMENT_3D('',#1064,#1065,#1066);
#1064 = CARTESIAN_POINT('',(44.,-24.5,16.));
#1065 = DIRECTION('',(0.,1.,-2.3E-16));
#1066 = DIRECTION('',(1.,-1.740048292248E-31,-7.565427357601E-16));
#1067 = FACE_BOUND('',#1068,.T.);
#1068 = EDGE_LOOP('',(#1069));
#1069 = ORIENTED_EDGE('',*,*,#1070,.T.);
#1070 = EDGE_CURVE('',#1071,#1071,#1073,.T.);
#1071 = VERTEX_POINT('',#1072);
#1072 = CARTESIAN_POINT('',(50.,-24.5,69.1));
#1073 = CIRCLE('',#1074,6.);
#1074 = AXIS2_PLACEMENT_3D('',#1075,#1076,#1077);
#1075 = CARTESIAN_POINT('',(44.,-24.5,69.1));
#1076 = DIRECTION('',(0.,1.,-2.3E-16));
#1077 = DIRECTION('',(1.,-6.642793168993E-31,-2.88817094304E-15));
#1078 = PLANE('',#1079);
#1079 = AXIS2_PLACEMENT_3D('',#1080,#1081,#1082);
#1080 = CARTESIAN_POINT('',(-51.41922129111,-24.5,25.989117389986));
#1081 = DIRECTION('',(0.,-1.,2.3E-16));
#1082 = DIRECTION('',(0.,-2.3E-16,-1.));
#1083 = ADVANCED_FACE('',(#1084,#1153),#1164,.T.);
#1084 = FACE_BOUND('',#1085,.T.);
#1085 = EDGE_LOOP('',(#1086,#1096,#1104,#1112,#1118,#1119,#1120,#1121,
    #1122,#1130,#1138,#1147));
#1086 = ORIENTED_EDGE('',*,*,#1087,.T.);
#1087 = EDGE_CURVE('',#1088,#1090,#1092,.T.);
#1088 = VERTEX_POINT('',#1089);
#1089 = CARTESIAN_POINT('',(-186.,-1.9,-15.));
#1090 = VERTEX_POINT('',#1091);
#1091 = CARTESIAN_POINT('',(-186.,-8.1,-15.));
#1092 = LINE('',#1093,#1094);
#1093 = CARTESIAN_POINT('',(-186.,-3.33E-15,-15.));
#1094 = VECTOR('',#1095,1.);
#1095 = DIRECTION('',(0.,-1.,2.2E-16));
#1096 = ORIENTED_EDGE('',*,*,#1097,.F.);
#1097 = EDGE_CURVE('',#1098,#1090,#1100,.T.);
#1098 = VERTEX_POINT('',#1099);
#1099 = CARTESIAN_POINT('',(-186.,-8.1,-1.174242356037));
#1100 = LINE('',#1101,#1102);
#1101 = CARTESIAN_POINT('',(-186.,-8.1,2.222258813589E-05));
#1102 = VECTOR('',#1103,1.);
#1103 = DIRECTION('',(-0.,-0.,-1.));
#1104 = ORIENTED_EDGE('',*,*,#1105,.T.);
#1105 = EDGE_CURVE('',#1098,#1106,#1108,.T.);
#1106 = VERTEX_POINT('',#1107);
#1107 = CARTESIAN_POINT('',(-186.,-3.1,-1.174242356037));
#1108 = LINE('',#1109,#1110);
#1109 = CARTESIAN_POINT('',(-186.,-10.,-1.174242356037));
#1110 = VECTOR('',#1111,1.);
#1111 = DIRECTION('',(0.,1.,-2.2E-16));
#1112 = ORIENTED_EDGE('',*,*,#1113,.T.);
#1113 = EDGE_CURVE('',#1106,#426,#1114,.T.);
#1114 = LINE('',#1115,#1116);
#1115 = CARTESIAN_POINT('',(-186.,-3.1,2.222258812878E-05));
#1116 = VECTOR('',#1117,1.);
#1117 = DIRECTION('',(0.,0.,1.));
#1118 = ORIENTED_EDGE('',*,*,#425,.T.);
#1119 = ORIENTED_EDGE('',*,*,#373,.F.);
#1120 = ORIENTED_EDGE('',*,*,#693,.T.);
#1121 = ORIENTED_EDGE('',*,*,#718,.T.);
#1122 = ORIENTED_EDGE('',*,*,#1123,.T.);
#1123 = EDGE_CURVE('',#719,#1124,#1126,.T.);
#1124 = VERTEX_POINT('',#1125);
#1125 = CARTESIAN_POINT('',(-186.,-22.6,-15.));
#1126 = LINE('',#1127,#1128);
#1127 = CARTESIAN_POINT('',(-186.,-3.33E-15,-15.));
#1128 = VECTOR('',#1129,1.);
#1129 = DIRECTION('',(0.,-1.,2.2E-16));
#1130 = ORIENTED_EDGE('',*,*,#1131,.T.);
#1131 = EDGE_CURVE('',#1124,#1132,#1134,.T.);
#1132 = VERTEX_POINT('',#1133);
#1133 = CARTESIAN_POINT('',(-186.,-22.6,25.000001274839));
#1134 = LINE('',#1135,#1136);
#1135 = CARTESIAN_POINT('',(-186.,-22.6,-15.));
#1136 = VECTOR('',#1137,1.);
#1137 = DIRECTION('',(0.,2.2E-16,1.));
#1138 = ORIENTED_EDGE('',*,*,#1139,.T.);
#1139 = EDGE_CURVE('',#1132,#1140,#1142,.T.);
#1140 = VERTEX_POINT('',#1141);
#1141 = CARTESIAN_POINT('',(-186.,-1.9,24.999999999996));
#1142 = CIRCLE('',#1143,10.35);
#1143 = AXIS2_PLACEMENT_3D('',#1144,#1145,#1146);
#1144 = CARTESIAN_POINT('',(-186.,-12.25,24.999999999996));
#1145 = DIRECTION('',(-1.,0.,0.));
#1146 = DIRECTION('',(0.,-1.,1.040688030627E-07));
#1147 = ORIENTED_EDGE('',*,*,#1148,.T.);
#1148 = EDGE_CURVE('',#1140,#1088,#1149,.T.);
#1149 = LINE('',#1150,#1151);
#1150 = CARTESIAN_POINT('',(-186.,-1.9,24.999999999996));
#1151 = VECTOR('',#1152,1.);
#1152 = DIRECTION('',(-0.,-2.2E-16,-1.));
#1153 = FACE_BOUND('',#1154,.T.);
#1154 = EDGE_LOOP('',(#1155));
#1155 = ORIENTED_EDGE('',*,*,#1156,.F.);
#1156 = EDGE_CURVE('',#1157,#1157,#1159,.T.);
#1157 = VERTEX_POINT('',#1158);
#1158 = CARTESIAN_POINT('',(-186.,-14.5,24.999999999996));
#1159 = CIRCLE('',#1160,2.25);
#1160 = AXIS2_PLACEMENT_3D('',#1161,#1162,#1163);
#1161 = CARTESIAN_POINT('',(-186.,-12.25,24.999999999996));
#1162 = DIRECTION('',(-1.,0.,0.));
#1163 = DIRECTION('',(0.,-1.,0.));
#1164 = PLANE('',#1165);
#1165 = AXIS2_PLACEMENT_3D('',#1166,#1167,#1168);
#1166 = CARTESIAN_POINT('',(-186.,-12.25000000972,6.372435190088));
#1167 = DIRECTION('',(-1.,-0.,-0.));
#1168 = DIRECTION('',(0.,0.,-1.));
#1169 = ADVANCED_FACE('',(#1170),#1191,.T.);
#1170 = FACE_BOUND('',#1171,.F.);
#1171 = EDGE_LOOP('',(#1172,#1181,#1182,#1183,#1184));
#1172 = ORIENTED_EDGE('',*,*,#1173,.F.);
#1173 = EDGE_CURVE('',#1106,#1174,#1176,.T.);
#1174 = VERTEX_POINT('',#1175);
#1175 = CARTESIAN_POINT('',(-184.9497058314,-4.799411662897,
    0.525169306863));
#1176 = ELLIPSE('',#1177,2.687005768509,1.9);
#1177 = AXIS2_PLACEMENT_3D('',#1178,#1179,#1180);
#1178 = CARTESIAN_POINT('',(-184.1,-3.1,-1.174242356037));
#1179 = DIRECTION('',(0.,0.707106781187,0.707106781187));
#1180 = DIRECTION('',(0.,0.707106781187,-0.707106781187));
#1181 = ORIENTED_EDGE('',*,*,#1113,.T.);
#1182 = ORIENTED_EDGE('',*,*,#433,.F.);
#1183 = ORIENTED_EDGE('',*,*,#770,.F.);
#1184 = ORIENTED_EDGE('',*,*,#1185,.F.);
#1185 = EDGE_CURVE('',#1174,#763,#1186,.T.);
#1186 = ELLIPSE('',#1187,2.124264578625,1.9);
#1187 = AXIS2_PLACEMENT_3D('',#1188,#1189,#1190);
#1188 = CARTESIAN_POINT('',(-184.1,-3.1,0.950022222588));
#1189 = DIRECTION('',(-0.4472135955,2.E-16,0.894427191));
#1190 = DIRECTION('',(0.894427191,-4.E-16,0.4472135955));
#1191 = CYLINDRICAL_SURFACE('',#1192,1.9);
#1192 = AXIS2_PLACEMENT_3D('',#1193,#1194,#1195);
#1193 = CARTESIAN_POINT('',(-184.1,-3.1,2.222258812878E-05));
#1194 = DIRECTION('',(0.,0.,1.));
#1195 = DIRECTION('',(0.,-1.,0.));
#1196 = ADVANCED_FACE('',(#1197),#1203,.F.);
#1197 = FACE_BOUND('',#1198,.F.);
#1198 = EDGE_LOOP('',(#1199,#1200,#1201,#1202));
#1199 = ORIENTED_EDGE('',*,*,#904,.F.);
#1200 = ORIENTED_EDGE('',*,*,#839,.T.);
#1201 = ORIENTED_EDGE('',*,*,#778,.F.);
#1202 = ORIENTED_EDGE('',*,*,#498,.T.);
#1203 = PLANE('',#1204);
#1204 = AXIS2_PLACEMENT_3D('',#1205,#1206,#1207);
#1205 = CARTESIAN_POINT('',(-64.,1.799E-14,81.));
#1206 = DIRECTION('',(0.4472135955,-2.E-16,-0.894427191));
#1207 = DIRECTION('',(-0.894427191,-1.E-16,-0.4472135955));
#1208 = ADVANCED_FACE('',(#1209),#1221,.T.);
#1209 = FACE_BOUND('',#1210,.T.);
#1210 = EDGE_LOOP('',(#1211,#1212,#1213,#1214));
#1211 = ORIENTED_EDGE('',*,*,#1010,.T.);
#1212 = ORIENTED_EDGE('',*,*,#489,.T.);
#1213 = ORIENTED_EDGE('',*,*,#898,.F.);
#1214 = ORIENTED_EDGE('',*,*,#1215,.F.);
#1215 = EDGE_CURVE('',#1011,#891,#1216,.T.);
#1216 = CIRCLE('',#1217,12.25);
#1217 = AXIS2_PLACEMENT_3D('',#1218,#1219,#1220);
#1218 = CARTESIAN_POINT('',(-184.1,-12.25,24.999999999996));
#1219 = DIRECTION('',(-1.,0.,0.));
#1220 = DIRECTION('',(0.,-1.,1.040688030627E-07));
#1221 = CYLINDRICAL_SURFACE('',#1222,12.25);
#1222 = AXIS2_PLACEMENT_3D('',#1223,#1224,#1225);
#1223 = CARTESIAN_POINT('',(-186.,-12.25,24.999999999996));
#1224 = DIRECTION('',(-1.,0.,0.));
#1225 = DIRECTION('',(0.,-1.,0.));
#1226 = ADVANCED_FACE('',(#1227),#1238,.F.);
#1227 = FACE_BOUND('',#1228,.F.);
#1228 = EDGE_LOOP('',(#1229,#1235,#1236,#1237));
#1229 = ORIENTED_EDGE('',*,*,#1230,.T.);
#1230 = EDGE_CURVE('',#1157,#517,#1231,.T.);
#1231 = LINE('',#1232,#1233);
#1232 = CARTESIAN_POINT('',(-186.,-14.5,24.999999999996));
#1233 = VECTOR('',#1234,1.);
#1234 = DIRECTION('',(1.,0.,0.));
#1235 = ORIENTED_EDGE('',*,*,#516,.T.);
#1236 = ORIENTED_EDGE('',*,*,#1230,.F.);
#1237 = ORIENTED_EDGE('',*,*,#1156,.F.);
#1238 = CYLINDRICAL_SURFACE('',#1239,2.25);
#1239 = AXIS2_PLACEMENT_3D('',#1240,#1241,#1242);
#1240 = CARTESIAN_POINT('',(-186.,-12.25,24.999999999996));
#1241 = DIRECTION('',(-1.,0.,0.));
#1242 = DIRECTION('',(0.,-1.,0.));
#1243 = ADVANCED_FACE('',(#1244),#1263,.F.);
#1244 = FACE_BOUND('',#1245,.T.);
#1245 = EDGE_LOOP('',(#1246,#1254,#1255,#1256));
#1246 = ORIENTED_EDGE('',*,*,#1247,.F.);
#1247 = EDGE_CURVE('',#534,#1248,#1250,.T.);
#1248 = VERTEX_POINT('',#1249);
#1249 = CARTESIAN_POINT('',(49.,-23.5,69.1));
#1250 = LINE('',#1251,#1252);
#1251 = CARTESIAN_POINT('',(49.,-5.,69.1));
#1252 = VECTOR('',#1253,1.);
#1253 = DIRECTION('',(0.,-1.,2.22044604925E-16));
#1254 = ORIENTED_EDGE('',*,*,#544,.T.);
#1255 = ORIENTED_EDGE('',*,*,#1247,.T.);
#1256 = ORIENTED_EDGE('',*,*,#1257,.F.);
#1257 = EDGE_CURVE('',#1248,#1248,#1258,.T.);
#1258 = CIRCLE('',#1259,5.);
#1259 = AXIS2_PLACEMENT_3D('',#1260,#1261,#1262);
#1260 = CARTESIAN_POINT('',(44.,-23.5,69.1));
#1261 = DIRECTION('',(0.,1.,-2.3E-16));
#1262 = DIRECTION('',(1.,-6.642793168993E-31,-2.88817094304E-15));
#1263 = CYLINDRICAL_SURFACE('',#1264,5.);
#1264 = AXIS2_PLACEMENT_3D('',#1265,#1266,#1267);
#1265 = CARTESIAN_POINT('',(44.,-5.,69.1));
#1266 = DIRECTION('',(0.,1.,-2.22044604925E-16));
#1267 = DIRECTION('',(1.,0.,0.));
#1268 = ADVANCED_FACE('',(#1269),#1281,.T.);
#1269 = FACE_BOUND('',#1270,.T.);
#1270 = EDGE_LOOP('',(#1271,#1278,#1279,#1280));
#1271 = ORIENTED_EDGE('',*,*,#1272,.F.);
#1272 = EDGE_CURVE('',#560,#999,#1273,.T.);
#1273 = CIRCLE('',#1274,1.);
#1274 = AXIS2_PLACEMENT_3D('',#1275,#1276,#1277);
#1275 = CARTESIAN_POINT('',(-38.,-23.5,69.1));
#1276 = DIRECTION('',(2.88817094304E-15,2.3E-16,1.));
#1277 = DIRECTION('',(1.,-6.642793168993E-31,-2.88817094304E-15));
#1278 = ORIENTED_EDGE('',*,*,#569,.T.);
#1279 = ORIENTED_EDGE('',*,*,#1272,.T.);
#1280 = ORIENTED_EDGE('',*,*,#998,.F.);
#1281 = TOROIDAL_SURFACE('',#1282,6.,1.);
#1282 = AXIS2_PLACEMENT_3D('',#1283,#1284,#1285);
#1283 = CARTESIAN_POINT('',(-44.,-23.5,69.1));
#1284 = DIRECTION('',(0.,1.,-2.3E-16));
#1285 = DIRECTION('',(1.,-6.642793168993E-31,-2.88817094304E-15));
#1286 = ADVANCED_FACE('',(#1287),#1307,.T.);
#1287 = FACE_BOUND('',#1288,.T.);
#1288 = EDGE_LOOP('',(#1289,#1298,#1299,#1300));
#1289 = ORIENTED_EDGE('',*,*,#1290,.F.);
#1290 = EDGE_CURVE('',#585,#1291,#1293,.T.);
#1291 = VERTEX_POINT('',#1292);
#1292 = CARTESIAN_POINT('',(-39.,-15.5,16.));
#1293 = CIRCLE('',#1294,1.);
#1294 = AXIS2_PLACEMENT_3D('',#1295,#1296,#1297);
#1295 = CARTESIAN_POINT('',(-38.,-15.5,16.));
#1296 = DIRECTION('',(-1.59872115546E-15,0.,1.));
#1297 = DIRECTION('',(1.,0.,1.59872115546E-15));
#1298 = ORIENTED_EDGE('',*,*,#584,.T.);
#1299 = ORIENTED_EDGE('',*,*,#1290,.T.);
#1300 = ORIENTED_EDGE('',*,*,#1301,.F.);
#1301 = EDGE_CURVE('',#1291,#1291,#1302,.T.);
#1302 = CIRCLE('',#1303,5.);
#1303 = AXIS2_PLACEMENT_3D('',#1304,#1305,#1306);
#1304 = CARTESIAN_POINT('',(-44.,-15.5,16.));
#1305 = DIRECTION('',(-0.,1.,0.));
#1306 = DIRECTION('',(1.,0.,7.105427357601E-16));
#1307 = TOROIDAL_SURFACE('',#1308,6.,1.);
#1308 = AXIS2_PLACEMENT_3D('',#1309,#1310,#1311);
#1309 = CARTESIAN_POINT('',(-44.,-15.5,16.));
#1310 = DIRECTION('',(0.,1.,0.));
#1311 = DIRECTION('',(1.,0.,7.105427357601E-16));
#1312 = ADVANCED_FACE('',(#1313),#1352,.T.);
#1313 = FACE_BOUND('',#1314,.T.);
#1314 = EDGE_LOOP('',(#1315,#1316,#1317,#1318,#1325,#1326,#1327,#1328,
    #1329,#1337,#1344,#1345));
#1315 = ORIENTED_EDGE('',*,*,#882,.F.);
#1316 = ORIENTED_EDGE('',*,*,#974,.T.);
#1317 = ORIENTED_EDGE('',*,*,#1026,.T.);
#1318 = ORIENTED_EDGE('',*,*,#1319,.T.);
#1319 = EDGE_CURVE('',#1019,#1124,#1320,.T.);
#1320 = CIRCLE('',#1321,1.9);
#1321 = AXIS2_PLACEMENT_3D('',#1322,#1323,#1324);
#1322 = CARTESIAN_POINT('',(-184.1,-22.6,-15.));
#1323 = DIRECTION('',(-0.,-2.2E-16,-1.));
#1324 = DIRECTION('',(0.,-1.,2.2E-16));
#1325 = ORIENTED_EDGE('',*,*,#1123,.F.);
#1326 = ORIENTED_EDGE('',*,*,#726,.F.);
#1327 = ORIENTED_EDGE('',*,*,#604,.T.);
#1328 = ORIENTED_EDGE('',*,*,#677,.T.);
#1329 = ORIENTED_EDGE('',*,*,#1330,.T.);
#1330 = EDGE_CURVE('',#670,#1331,#1333,.T.);
#1331 = VERTEX_POINT('',#1332);
#1332 = CARTESIAN_POINT('',(-184.1,-10.,-15.));
#1333 = LINE('',#1334,#1335);
#1334 = CARTESIAN_POINT('',(61.5,-10.,-15.));
#1335 = VECTOR('',#1336,1.);
#1336 = DIRECTION('',(-1.,0.,0.));
#1337 = ORIENTED_EDGE('',*,*,#1338,.T.);
#1338 = EDGE_CURVE('',#1331,#1090,#1339,.T.);
#1339 = CIRCLE('',#1340,1.9);
#1340 = AXIS2_PLACEMENT_3D('',#1341,#1342,#1343);
#1341 = CARTESIAN_POINT('',(-184.1,-8.1,-15.));
#1342 = DIRECTION('',(0.,0.,-1.));
#1343 = DIRECTION('',(0.,1.,0.));
#1344 = ORIENTED_EDGE('',*,*,#1087,.F.);
#1345 = ORIENTED_EDGE('',*,*,#1346,.F.);
#1346 = EDGE_CURVE('',#883,#1088,#1347,.T.);
#1347 = CIRCLE('',#1348,1.9);
#1348 = AXIS2_PLACEMENT_3D('',#1349,#1350,#1351);
#1349 = CARTESIAN_POINT('',(-184.1,-1.9,-15.));
#1350 = DIRECTION('',(0.,2.2E-16,1.));
#1351 = DIRECTION('',(0.,1.,-2.2E-16));
#1352 = PLANE('',#1353);
#1353 = AXIS2_PLACEMENT_3D('',#1354,#1355,#1356);
#1354 = CARTESIAN_POINT('',(64.,-3.33E-15,-15.));
#1355 = DIRECTION('',(-0.,-2.2E-16,-1.));
#1356 = DIRECTION('',(-1.,0.,0.));
#1357 = ADVANCED_FACE('',(#1358),#1378,.T.);
#1358 = FACE_BOUND('',#1359,.T.);
#1359 = EDGE_LOOP('',(#1360,#1369,#1370,#1371));
#1360 = ORIENTED_EDGE('',*,*,#1361,.F.);
#1361 = EDGE_CURVE('',#623,#1362,#1364,.T.);
#1362 = VERTEX_POINT('',#1363);
#1363 = CARTESIAN_POINT('',(49.,-15.5,16.));
#1364 = CIRCLE('',#1365,1.);
#1365 = AXIS2_PLACEMENT_3D('',#1366,#1367,#1368);
#1366 = CARTESIAN_POINT('',(50.,-15.5,16.));
#1367 = DIRECTION('',(-1.59872115546E-15,0.,1.));
#1368 = DIRECTION('',(1.,0.,1.59872115546E-15));
#1369 = ORIENTED_EDGE('',*,*,#622,.T.);
#1370 = ORIENTED_EDGE('',*,*,#1361,.T.);
#1371 = ORIENTED_EDGE('',*,*,#1372,.F.);
#1372 = EDGE_CURVE('',#1362,#1362,#1373,.T.);
#1373 = CIRCLE('',#1374,5.);
#1374 = AXIS2_PLACEMENT_3D('',#1375,#1376,#1377);
#1375 = CARTESIAN_POINT('',(44.,-15.5,16.));
#1376 = DIRECTION('',(-0.,1.,0.));
#1377 = DIRECTION('',(1.,0.,7.105427357601E-16));
#1378 = TOROIDAL_SURFACE('',#1379,6.,1.);
#1379 = AXIS2_PLACEMENT_3D('',#1380,#1381,#1382);
#1380 = CARTESIAN_POINT('',(44.,-15.5,16.));
#1381 = DIRECTION('',(0.,1.,0.));
#1382 = DIRECTION('',(1.,0.,7.105427357601E-16));
#1383 = ADVANCED_FACE('',(#1384),#1404,.T.);
#1384 = FACE_BOUND('',#1385,.T.);
#1385 = EDGE_LOOP('',(#1386,#1395,#1396,#1397));
#1386 = ORIENTED_EDGE('',*,*,#1387,.F.);
#1387 = EDGE_CURVE('',#634,#1388,#1390,.T.);
#1388 = VERTEX_POINT('',#1389);
#1389 = CARTESIAN_POINT('',(5.,-15.5,42.55));
#1390 = CIRCLE('',#1391,1.);
#1391 = AXIS2_PLACEMENT_3D('',#1392,#1393,#1394);
#1392 = CARTESIAN_POINT('',(6.,-15.5,42.55));
#1393 = DIRECTION('',(0.,0.,1.));
#1394 = DIRECTION('',(1.,0.,0.));
#1395 = ORIENTED_EDGE('',*,*,#633,.T.);
#1396 = ORIENTED_EDGE('',*,*,#1387,.T.);
#1397 = ORIENTED_EDGE('',*,*,#1398,.F.);
#1398 = EDGE_CURVE('',#1388,#1388,#1399,.T.);
#1399 = CIRCLE('',#1400,5.);
#1400 = AXIS2_PLACEMENT_3D('',#1401,#1402,#1403);
#1401 = CARTESIAN_POINT('',(0.,-15.5,42.55));
#1402 = DIRECTION('',(-0.,1.,0.));
#1403 = DIRECTION('',(1.,0.,0.));
#1404 = TOROIDAL_SURFACE('',#1405,6.,1.);
#1405 = AXIS2_PLACEMENT_3D('',#1406,#1407,#1408);
#1406 = CARTESIAN_POINT('',(0.,-15.5,42.55));
#1407 = DIRECTION('',(0.,1.,0.));
#1408 = DIRECTION('',(1.,0.,0.));
#1409 = ADVANCED_FACE('',(#1410,#1445,#1456,#1467),#1478,.F.);
#1410 = FACE_BOUND('',#1411,.F.);
#1411 = EDGE_LOOP('',(#1412,#1422,#1431,#1437,#1438,#1439));
#1412 = ORIENTED_EDGE('',*,*,#1413,.F.);
#1413 = EDGE_CURVE('',#1414,#1416,#1418,.T.);
#1414 = VERTEX_POINT('',#1415);
#1415 = CARTESIAN_POINT('',(-80.89169388519,-10.,52.554175279993));
#1416 = VERTEX_POINT('',#1417);
#1417 = CARTESIAN_POINT('',(-184.1,-10.,0.950022222588));
#1418 = LINE('',#1419,#1420);
#1419 = CARTESIAN_POINT('',(-14.8000266671,-10.,85.600008889035));
#1420 = VECTOR('',#1421,1.);
#1421 = DIRECTION('',(-0.894427191,0.,-0.4472135955));
#1422 = ORIENTED_EDGE('',*,*,#1423,.F.);
#1423 = EDGE_CURVE('',#1424,#1414,#1426,.T.);
#1424 = VERTEX_POINT('',#1425);
#1425 = CARTESIAN_POINT('',(-45.11460624519,-10.,61.));
#1426 = CIRCLE('',#1427,80.);
#1427 = AXIS2_PLACEMENT_3D('',#1428,#1429,#1430);
#1428 = CARTESIAN_POINT('',(-45.11460624519,-10.,-19.));
#1429 = DIRECTION('',(0.,-1.,2.2E-16));
#1430 = DIRECTION('',(0.,2.2E-16,1.));
#1431 = ORIENTED_EDGE('',*,*,#1432,.F.);
#1432 = EDGE_CURVE('',#662,#1424,#1433,.T.);
#1433 = LINE('',#1434,#1435);
#1434 = CARTESIAN_POINT('',(59.,-10.,61.));
#1435 = VECTOR('',#1436,1.);
#1436 = DIRECTION('',(-1.,0.,0.));
#1437 = ORIENTED_EDGE('',*,*,#669,.T.);
#1438 = ORIENTED_EDGE('',*,*,#1330,.T.);
#1439 = ORIENTED_EDGE('',*,*,#1440,.F.);
#1440 = EDGE_CURVE('',#1416,#1331,#1441,.T.);
#1441 = LINE('',#1442,#1443);
#1442 = CARTESIAN_POINT('',(-184.1,-10.,2.222258813589E-05));
#1443 = VECTOR('',#1444,1.);
#1444 = DIRECTION('',(-0.,-0.,-1.));
#1445 = FACE_BOUND('',#1446,.F.);
#1446 = EDGE_LOOP('',(#1447));
#1447 = ORIENTED_EDGE('',*,*,#1448,.F.);
#1448 = EDGE_CURVE('',#1449,#1449,#1451,.T.);
#1449 = VERTEX_POINT('',#1450);
#1450 = CARTESIAN_POINT('',(49.,-10.,16.));
#1451 = CIRCLE('',#1452,5.);
#1452 = AXIS2_PLACEMENT_3D('',#1453,#1454,#1455);
#1453 = CARTESIAN_POINT('',(44.,-10.,16.));
#1454 = DIRECTION('',(0.,1.,-2.22044604925E-16));
#1455 = DIRECTION('',(1.,0.,0.));
#1456 = FACE_BOUND('',#1457,.F.);
#1457 = EDGE_LOOP('',(#1458));
#1458 = ORIENTED_EDGE('',*,*,#1459,.F.);
#1459 = EDGE_CURVE('',#1460,#1460,#1462,.T.);
#1460 = VERTEX_POINT('',#1461);
#1461 = CARTESIAN_POINT('',(-39.,-10.,16.));
#1462 = CIRCLE('',#1463,5.);
#1463 = AXIS2_PLACEMENT_3D('',#1464,#1465,#1466);
#1464 = CARTESIAN_POINT('',(-44.,-10.,16.));
#1465 = DIRECTION('',(0.,1.,-2.22044604925E-16));
#1466 = DIRECTION('',(1.,0.,0.));
#1467 = FACE_BOUND('',#1468,.F.);
#1468 = EDGE_LOOP('',(#1469));
#1469 = ORIENTED_EDGE('',*,*,#1470,.F.);
#1470 = EDGE_CURVE('',#1471,#1471,#1473,.T.);
#1471 = VERTEX_POINT('',#1472);
#1472 = CARTESIAN_POINT('',(5.,-10.,42.55));
#1473 = CIRCLE('',#1474,5.);
#1474 = AXIS2_PLACEMENT_3D('',#1475,#1476,#1477);
#1475 = CARTESIAN_POINT('',(0.,-10.,42.55));
#1476 = DIRECTION('',(0.,1.,-2.22044604925E-16));
#1477 = DIRECTION('',(1.,0.,0.));
#1478 = PLANE('',#1479);
#1479 = AXIS2_PLACEMENT_3D('',#1480,#1481,#1482);
#1480 = CARTESIAN_POINT('',(59.,-10.,61.));
#1481 = DIRECTION('',(0.,1.,0.));
#1482 = DIRECTION('',(-1.,0.,0.));
#1483 = ADVANCED_FACE('',(#1484),#1496,.T.);
#1484 = FACE_BOUND('',#1485,.T.);
#1485 = EDGE_LOOP('',(#1486,#1487,#1493,#1494,#1495));
#1486 = ORIENTED_EDGE('',*,*,#743,.T.);
#1487 = ORIENTED_EDGE('',*,*,#1488,.F.);
#1488 = EDGE_CURVE('',#1424,#746,#1489,.T.);
#1489 = LINE('',#1490,#1491);
#1490 = CARTESIAN_POINT('',(-45.11460624519,-10.,61.));
#1491 = VECTOR('',#1492,1.);
#1492 = DIRECTION('',(0.,1.,-2.2E-16));
#1493 = ORIENTED_EDGE('',*,*,#1432,.F.);
#1494 = ORIENTED_EDGE('',*,*,#661,.T.);
#1495 = ORIENTED_EDGE('',*,*,#857,.T.);
#1496 = PLANE('',#1497);
#1497 = AXIS2_PLACEMENT_3D('',#1498,#1499,#1500);
#1498 = CARTESIAN_POINT('',(59.,-19.5,61.));
#1499 = DIRECTION('',(0.,2.2E-16,1.));
#1500 = DIRECTION('',(-1.,0.,0.));
#1501 = ADVANCED_FACE('',(#1502),#1513,.T.);
#1502 = FACE_BOUND('',#1503,.F.);
#1503 = EDGE_LOOP('',(#1504,#1505,#1511,#1512));
#1504 = ORIENTED_EDGE('',*,*,#1423,.T.);
#1505 = ORIENTED_EDGE('',*,*,#1506,.T.);
#1506 = EDGE_CURVE('',#1414,#754,#1507,.T.);
#1507 = LINE('',#1508,#1509);
#1508 = CARTESIAN_POINT('',(-80.89169388519,-10.,52.554175279993));
#1509 = VECTOR('',#1510,1.);
#1510 = DIRECTION('',(0.,1.,-2.2E-16));
#1511 = ORIENTED_EDGE('',*,*,#753,.F.);
#1512 = ORIENTED_EDGE('',*,*,#1488,.F.);
#1513 = CYLINDRICAL_SURFACE('',#1514,80.);
#1514 = AXIS2_PLACEMENT_3D('',#1515,#1516,#1517);
#1515 = CARTESIAN_POINT('',(-45.11460624519,-10.,-19.));
#1516 = DIRECTION('',(0.,1.,-2.2E-16));
#1517 = DIRECTION('',(0.,2.2E-16,1.));
#1518 = ADVANCED_FACE('',(#1519),#1540,.T.);
#1519 = FACE_BOUND('',#1520,.T.);
#1520 = EDGE_LOOP('',(#1521,#1522,#1523,#1524,#1525,#1533));
#1521 = ORIENTED_EDGE('',*,*,#1413,.F.);
#1522 = ORIENTED_EDGE('',*,*,#1506,.T.);
#1523 = ORIENTED_EDGE('',*,*,#762,.T.);
#1524 = ORIENTED_EDGE('',*,*,#1185,.F.);
#1525 = ORIENTED_EDGE('',*,*,#1526,.F.);
#1526 = EDGE_CURVE('',#1527,#1174,#1529,.T.);
#1527 = VERTEX_POINT('',#1528);
#1528 = CARTESIAN_POINT('',(-184.9497058314,-9.799411662897,
    0.525169306863));
#1529 = LINE('',#1530,#1531);
#1530 = CARTESIAN_POINT('',(-184.9497058314,-10.,0.525169306863));
#1531 = VECTOR('',#1532,1.);
#1532 = DIRECTION('',(0.,1.,-2.2E-16));
#1533 = ORIENTED_EDGE('',*,*,#1534,.T.);
#1534 = EDGE_CURVE('',#1527,#1416,#1535,.T.);
#1535 = ELLIPSE('',#1536,2.124264578625,1.9);
#1536 = AXIS2_PLACEMENT_3D('',#1537,#1538,#1539);
#1537 = CARTESIAN_POINT('',(-184.1,-8.1,0.950022222588));
#1538 = DIRECTION('',(-0.4472135955,2.E-16,0.894427191));
#1539 = DIRECTION('',(-0.894427191,4.E-16,-0.4472135955));
#1540 = PLANE('',#1541);
#1541 = AXIS2_PLACEMENT_3D('',#1542,#1543,#1544);
#1542 = CARTESIAN_POINT('',(-64.00004444517,-19.5,61.));
#1543 = DIRECTION('',(-0.4472135955,2.E-16,0.894427191));
#1544 = DIRECTION('',(-0.894427191,-1.E-16,-0.4472135955));
#1545 = ADVANCED_FACE('',(#1546),#1574,.F.);
#1546 = FACE_BOUND('',#1547,.T.);
#1547 = EDGE_LOOP('',(#1548,#1556,#1557,#1558,#1567));
#1548 = ORIENTED_EDGE('',*,*,#1549,.F.);
#1549 = EDGE_CURVE('',#803,#1550,#1552,.T.);
#1550 = VERTEX_POINT('',#1551);
#1551 = CARTESIAN_POINT('',(-46.25000000008,-2.750000000087,69.1));
#1552 = LINE('',#1553,#1554);
#1553 = CARTESIAN_POINT('',(-48.5,-5.,69.1));
#1554 = VECTOR('',#1555,1.);
#1555 = DIRECTION('',(0.707106781187,0.707106781187,-1.57426566185E-16)
  );
#1556 = ORIENTED_EDGE('',*,*,#802,.T.);
#1557 = ORIENTED_EDGE('',*,*,#1549,.T.);
#1558 = ORIENTED_EDGE('',*,*,#1559,.F.);
#1559 = EDGE_CURVE('',#1560,#1550,#1562,.T.);
#1560 = VERTEX_POINT('',#1561);
#1561 = CARTESIAN_POINT('',(-41.74999999991,-2.750000000087,69.1));
#1562 = CIRCLE('',#1563,2.250000000087);
#1563 = AXIS2_PLACEMENT_3D('',#1564,#1565,#1566);
#1564 = CARTESIAN_POINT('',(-44.,-2.750000000087,69.1));
#1565 = DIRECTION('',(0.,-1.,2.22044604925E-16));
#1566 = DIRECTION('',(0.,-2.22044604925E-16,-1.));
#1567 = ORIENTED_EDGE('',*,*,#1568,.F.);
#1568 = EDGE_CURVE('',#1550,#1560,#1569,.T.);
#1569 = CIRCLE('',#1570,2.250000000087);
#1570 = AXIS2_PLACEMENT_3D('',#1571,#1572,#1573);
#1571 = CARTESIAN_POINT('',(-44.,-2.750000000087,69.1));
#1572 = DIRECTION('',(0.,-1.,2.22044604925E-16));
#1573 = DIRECTION('',(0.,-2.22044604925E-16,-1.));
#1574 = CONICAL_SURFACE('',#1575,4.5,0.785398163397);
#1575 = AXIS2_PLACEMENT_3D('',#1576,#1577,#1578);
#1576 = CARTESIAN_POINT('',(-44.,-5.,69.1));
#1577 = DIRECTION('',(-0.,-1.,2.226347849766E-16));
#1578 = DIRECTION('',(-1.,0.,0.));
#1579 = ADVANCED_FACE('',(#1580),#1608,.F.);
#1580 = FACE_BOUND('',#1581,.T.);
#1581 = EDGE_LOOP('',(#1582,#1590,#1591,#1592,#1601));
#1582 = ORIENTED_EDGE('',*,*,#1583,.F.);
#1583 = EDGE_CURVE('',#814,#1584,#1586,.T.);
#1584 = VERTEX_POINT('',#1585);
#1585 = CARTESIAN_POINT('',(41.749999999913,-2.750000000087,69.1));
#1586 = LINE('',#1587,#1588);
#1587 = CARTESIAN_POINT('',(39.5,-5.,69.1));
#1588 = VECTOR('',#1589,1.);
#1589 = DIRECTION('',(0.707106781187,0.707106781187,-1.57426566185E-16)
  );
#1590 = ORIENTED_EDGE('',*,*,#813,.T.);
#1591 = ORIENTED_EDGE('',*,*,#1583,.T.);
#1592 = ORIENTED_EDGE('',*,*,#1593,.F.);
#1593 = EDGE_CURVE('',#1594,#1584,#1596,.T.);
#1594 = VERTEX_POINT('',#1595);
#1595 = CARTESIAN_POINT('',(46.250000000087,-2.750000000087,69.1));
#1596 = CIRCLE('',#1597,2.250000000087);
#1597 = AXIS2_PLACEMENT_3D('',#1598,#1599,#1600);
#1598 = CARTESIAN_POINT('',(44.,-2.750000000087,69.1));
#1599 = DIRECTION('',(0.,-1.,2.22044604925E-16));
#1600 = DIRECTION('',(0.,-2.22044604925E-16,-1.));
#1601 = ORIENTED_EDGE('',*,*,#1602,.F.);
#1602 = EDGE_CURVE('',#1584,#1594,#1603,.T.);
#1603 = CIRCLE('',#1604,2.250000000087);
#1604 = AXIS2_PLACEMENT_3D('',#1605,#1606,#1607);
#1605 = CARTESIAN_POINT('',(44.,-2.750000000087,69.1));
#1606 = DIRECTION('',(0.,-1.,2.22044604925E-16));
#1607 = DIRECTION('',(0.,-2.22044604925E-16,-1.));
#1608 = CONICAL_SURFACE('',#1609,4.5,0.785398163397);
#1609 = AXIS2_PLACEMENT_3D('',#1610,#1611,#1612);
#1610 = CARTESIAN_POINT('',(44.,-5.,69.1));
#1611 = DIRECTION('',(-0.,-1.,2.226347849766E-16));
#1612 = DIRECTION('',(-1.,0.,0.));
#1613 = ADVANCED_FACE('',(#1614),#1626,.T.);
#1614 = FACE_BOUND('',#1615,.F.);
#1615 = EDGE_LOOP('',(#1616,#1623,#1624,#1625));
#1616 = ORIENTED_EDGE('',*,*,#1617,.T.);
#1617 = EDGE_CURVE('',#891,#1140,#1618,.T.);
#1618 = CIRCLE('',#1619,1.9);
#1619 = AXIS2_PLACEMENT_3D('',#1620,#1621,#1622);
#1620 = CARTESIAN_POINT('',(-184.1,-1.9,24.999999999996));
#1621 = DIRECTION('',(0.,3.160733882926E-17,1.));
#1622 = DIRECTION('',(0.,1.,-3.160733882926E-17));
#1623 = ORIENTED_EDGE('',*,*,#1148,.T.);
#1624 = ORIENTED_EDGE('',*,*,#1346,.F.);
#1625 = ORIENTED_EDGE('',*,*,#890,.F.);
#1626 = CYLINDRICAL_SURFACE('',#1627,1.9);
#1627 = AXIS2_PLACEMENT_3D('',#1628,#1629,#1630);
#1628 = CARTESIAN_POINT('',(-184.1,-1.9,24.999999999996));
#1629 = DIRECTION('',(-0.,-2.2E-16,-1.));
#1630 = DIRECTION('',(0.,1.,-2.2E-16));
#1631 = ADVANCED_FACE('',(#1632),#1660,.F.);
#1632 = FACE_BOUND('',#1633,.F.);
#1633 = EDGE_LOOP('',(#1634,#1645,#1651,#1652,#1653));
#1634 = ORIENTED_EDGE('',*,*,#1635,.F.);
#1635 = EDGE_CURVE('',#1636,#1638,#1640,.T.);
#1636 = VERTEX_POINT('',#1637);
#1637 = CARTESIAN_POINT('',(-41.74999999991,-2.750000000087,16.));
#1638 = VERTEX_POINT('',#1639);
#1639 = CARTESIAN_POINT('',(-46.25000000008,-2.750000000087,16.));
#1640 = CIRCLE('',#1641,2.250000000087);
#1641 = AXIS2_PLACEMENT_3D('',#1642,#1643,#1644);
#1642 = CARTESIAN_POINT('',(-44.,-2.750000000087,16.));
#1643 = DIRECTION('',(0.,-1.,2.22044604925E-16));
#1644 = DIRECTION('',(0.,-2.22044604925E-16,-1.));
#1645 = ORIENTED_EDGE('',*,*,#1646,.T.);
#1646 = EDGE_CURVE('',#1636,#914,#1647,.T.);
#1647 = LINE('',#1648,#1649);
#1648 = CARTESIAN_POINT('',(-41.74999999991,-5.,16.));
#1649 = VECTOR('',#1650,1.);
#1650 = DIRECTION('',(0.,1.,-2.22044604925E-16));
#1651 = ORIENTED_EDGE('',*,*,#913,.T.);
#1652 = ORIENTED_EDGE('',*,*,#1646,.F.);
#1653 = ORIENTED_EDGE('',*,*,#1654,.F.);
#1654 = EDGE_CURVE('',#1638,#1636,#1655,.T.);
#1655 = CIRCLE('',#1656,2.250000000087);
#1656 = AXIS2_PLACEMENT_3D('',#1657,#1658,#1659);
#1657 = CARTESIAN_POINT('',(-44.,-2.750000000087,16.));
#1658 = DIRECTION('',(0.,-1.,2.22044604925E-16));
#1659 = DIRECTION('',(0.,-2.22044604925E-16,-1.));
#1660 = CYLINDRICAL_SURFACE('',#1661,2.250000000087);
#1661 = AXIS2_PLACEMENT_3D('',#1662,#1663,#1664);
#1662 = CARTESIAN_POINT('',(-44.,-5.,16.));
#1663 = DIRECTION('',(0.,-1.,2.22044604925E-16));
#1664 = DIRECTION('',(1.,0.,0.));
#1665 = ADVANCED_FACE('',(#1666),#1678,.F.);
#1666 = FACE_BOUND('',#1667,.F.);
#1667 = EDGE_LOOP('',(#1668,#1669,#1675,#1676,#1677));
#1668 = ORIENTED_EDGE('',*,*,#1559,.F.);
#1669 = ORIENTED_EDGE('',*,*,#1670,.T.);
#1670 = EDGE_CURVE('',#1560,#925,#1671,.T.);
#1671 = LINE('',#1672,#1673);
#1672 = CARTESIAN_POINT('',(-41.74999999991,-5.,69.1));
#1673 = VECTOR('',#1674,1.);
#1674 = DIRECTION('',(0.,1.,-2.22044604925E-16));
#1675 = ORIENTED_EDGE('',*,*,#924,.T.);
#1676 = ORIENTED_EDGE('',*,*,#1670,.F.);
#1677 = ORIENTED_EDGE('',*,*,#1568,.F.);
#1678 = CYLINDRICAL_SURFACE('',#1679,2.250000000087);
#1679 = AXIS2_PLACEMENT_3D('',#1680,#1681,#1682);
#1680 = CARTESIAN_POINT('',(-44.,-5.,69.1));
#1681 = DIRECTION('',(0.,-1.,2.22044604925E-16));
#1682 = DIRECTION('',(1.,0.,0.));
#1683 = ADVANCED_FACE('',(#1684),#1712,.F.);
#1684 = FACE_BOUND('',#1685,.F.);
#1685 = EDGE_LOOP('',(#1686,#1697,#1703,#1704,#1705));
#1686 = ORIENTED_EDGE('',*,*,#1687,.F.);
#1687 = EDGE_CURVE('',#1688,#1690,#1692,.T.);
#1688 = VERTEX_POINT('',#1689);
#1689 = CARTESIAN_POINT('',(2.250000000087,-2.750000000087,42.55));
#1690 = VERTEX_POINT('',#1691);
#1691 = CARTESIAN_POINT('',(-2.250000000087,-2.750000000087,42.55));
#1692 = CIRCLE('',#1693,2.250000000087);
#1693 = AXIS2_PLACEMENT_3D('',#1694,#1695,#1696);
#1694 = CARTESIAN_POINT('',(0.,-2.750000000087,42.55));
#1695 = DIRECTION('',(0.,-1.,2.22044604925E-16));
#1696 = DIRECTION('',(0.,-2.22044604925E-16,-1.));
#1697 = ORIENTED_EDGE('',*,*,#1698,.T.);
#1698 = EDGE_CURVE('',#1688,#936,#1699,.T.);
#1699 = LINE('',#1700,#1701);
#1700 = CARTESIAN_POINT('',(2.250000000087,-5.,42.55));
#1701 = VECTOR('',#1702,1.);
#1702 = DIRECTION('',(0.,1.,-2.22044604925E-16));
#1703 = ORIENTED_EDGE('',*,*,#935,.T.);
#1704 = ORIENTED_EDGE('',*,*,#1698,.F.);
#1705 = ORIENTED_EDGE('',*,*,#1706,.F.);
#1706 = EDGE_CURVE('',#1690,#1688,#1707,.T.);
#1707 = CIRCLE('',#1708,2.250000000087);
#1708 = AXIS2_PLACEMENT_3D('',#1709,#1710,#1711);
#1709 = CARTESIAN_POINT('',(0.,-2.750000000087,42.55));
#1710 = DIRECTION('',(0.,-1.,2.22044604925E-16));
#1711 = DIRECTION('',(0.,-2.22044604925E-16,-1.));
#1712 = CYLINDRICAL_SURFACE('',#1713,2.250000000087);
#1713 = AXIS2_PLACEMENT_3D('',#1714,#1715,#1716);
#1714 = CARTESIAN_POINT('',(0.,-5.,42.55));
#1715 = DIRECTION('',(0.,-1.,2.22044604925E-16));
#1716 = DIRECTION('',(1.,0.,0.));
#1717 = ADVANCED_FACE('',(#1718),#1746,.F.);
#1718 = FACE_BOUND('',#1719,.F.);
#1719 = EDGE_LOOP('',(#1720,#1731,#1737,#1738,#1739));
#1720 = ORIENTED_EDGE('',*,*,#1721,.F.);
#1721 = EDGE_CURVE('',#1722,#1724,#1726,.T.);
#1722 = VERTEX_POINT('',#1723);
#1723 = CARTESIAN_POINT('',(46.250000000087,-2.750000000087,16.));
#1724 = VERTEX_POINT('',#1725);
#1725 = CARTESIAN_POINT('',(41.749999999913,-2.750000000087,16.));
#1726 = CIRCLE('',#1727,2.250000000087);
#1727 = AXIS2_PLACEMENT_3D('',#1728,#1729,#1730);
#1728 = CARTESIAN_POINT('',(44.,-2.750000000087,16.));
#1729 = DIRECTION('',(0.,-1.,2.22044604925E-16));
#1730 = DIRECTION('',(0.,-2.22044604925E-16,-1.));
#1731 = ORIENTED_EDGE('',*,*,#1732,.T.);
#1732 = EDGE_CURVE('',#1722,#947,#1733,.T.);
#1733 = LINE('',#1734,#1735);
#1734 = CARTESIAN_POINT('',(46.250000000087,-5.,16.));
#1735 = VECTOR('',#1736,1.);
#1736 = DIRECTION('',(0.,1.,-2.22044604925E-16));
#1737 = ORIENTED_EDGE('',*,*,#946,.T.);
#1738 = ORIENTED_EDGE('',*,*,#1732,.F.);
#1739 = ORIENTED_EDGE('',*,*,#1740,.F.);
#1740 = EDGE_CURVE('',#1724,#1722,#1741,.T.);
#1741 = CIRCLE('',#1742,2.250000000087);
#1742 = AXIS2_PLACEMENT_3D('',#1743,#1744,#1745);
#1743 = CARTESIAN_POINT('',(44.,-2.750000000087,16.));
#1744 = DIRECTION('',(0.,-1.,2.22044604925E-16));
#1745 = DIRECTION('',(0.,-2.22044604925E-16,-1.));
#1746 = CYLINDRICAL_SURFACE('',#1747,2.250000000087);
#1747 = AXIS2_PLACEMENT_3D('',#1748,#1749,#1750);
#1748 = CARTESIAN_POINT('',(44.,-5.,16.));
#1749 = DIRECTION('',(0.,-1.,2.22044604925E-16));
#1750 = DIRECTION('',(1.,0.,0.));
#1751 = ADVANCED_FACE('',(#1752),#1764,.F.);
#1752 = FACE_BOUND('',#1753,.F.);
#1753 = EDGE_LOOP('',(#1754,#1755,#1761,#1762,#1763));
#1754 = ORIENTED_EDGE('',*,*,#1593,.F.);
#1755 = ORIENTED_EDGE('',*,*,#1756,.T.);
#1756 = EDGE_CURVE('',#1594,#958,#1757,.T.);
#1757 = LINE('',#1758,#1759);
#1758 = CARTESIAN_POINT('',(46.250000000087,-5.,69.1));
#1759 = VECTOR('',#1760,1.);
#1760 = DIRECTION('',(0.,1.,-2.22044604925E-16));
#1761 = ORIENTED_EDGE('',*,*,#957,.T.);
#1762 = ORIENTED_EDGE('',*,*,#1756,.F.);
#1763 = ORIENTED_EDGE('',*,*,#1602,.F.);
#1764 = CYLINDRICAL_SURFACE('',#1765,2.250000000087);
#1765 = AXIS2_PLACEMENT_3D('',#1766,#1767,#1768);
#1766 = CARTESIAN_POINT('',(44.,-5.,69.1));
#1767 = DIRECTION('',(0.,-1.,2.22044604925E-16));
#1768 = DIRECTION('',(1.,0.,0.));
#1769 = ADVANCED_FACE('',(#1770),#1782,.T.);
#1770 = FACE_BOUND('',#1771,.F.);
#1771 = EDGE_LOOP('',(#1772,#1773,#1774,#1781));
#1772 = ORIENTED_EDGE('',*,*,#1319,.T.);
#1773 = ORIENTED_EDGE('',*,*,#1131,.T.);
#1774 = ORIENTED_EDGE('',*,*,#1775,.F.);
#1775 = EDGE_CURVE('',#1011,#1132,#1776,.T.);
#1776 = CIRCLE('',#1777,1.9);
#1777 = AXIS2_PLACEMENT_3D('',#1778,#1779,#1780);
#1778 = CARTESIAN_POINT('',(-184.1,-22.6,25.000001274839));
#1779 = DIRECTION('',(-0.,-2.2E-16,-1.));
#1780 = DIRECTION('',(0.,-1.,2.2E-16));
#1781 = ORIENTED_EDGE('',*,*,#1018,.F.);
#1782 = CYLINDRICAL_SURFACE('',#1783,1.9);
#1783 = AXIS2_PLACEMENT_3D('',#1784,#1785,#1786);
#1784 = CARTESIAN_POINT('',(-184.1,-22.6,-15.));
#1785 = DIRECTION('',(0.,2.2E-16,1.));
#1786 = DIRECTION('',(0.,-1.,2.2E-16));
#1787 = ADVANCED_FACE('',(#1788),#1808,.T.);
#1788 = FACE_BOUND('',#1789,.T.);
#1789 = EDGE_LOOP('',(#1790,#1799,#1806,#1807));
#1790 = ORIENTED_EDGE('',*,*,#1791,.F.);
#1791 = EDGE_CURVE('',#1792,#1038,#1794,.T.);
#1792 = VERTEX_POINT('',#1793);
#1793 = CARTESIAN_POINT('',(-39.,-23.5,16.));
#1794 = CIRCLE('',#1795,1.);
#1795 = AXIS2_PLACEMENT_3D('',#1796,#1797,#1798);
#1796 = CARTESIAN_POINT('',(-38.,-23.5,16.));
#1797 = DIRECTION('',(7.565427357601E-16,2.3E-16,1.));
#1798 = DIRECTION('',(1.,-1.740048292248E-31,-7.565427357601E-16));
#1799 = ORIENTED_EDGE('',*,*,#1800,.T.);
#1800 = EDGE_CURVE('',#1792,#1792,#1801,.T.);
#1801 = CIRCLE('',#1802,5.);
#1802 = AXIS2_PLACEMENT_3D('',#1803,#1804,#1805);
#1803 = CARTESIAN_POINT('',(-44.,-23.5,16.));
#1804 = DIRECTION('',(0.,1.,-2.3E-16));
#1805 = DIRECTION('',(1.,-1.740048292248E-31,-7.565427357601E-16));
#1806 = ORIENTED_EDGE('',*,*,#1791,.T.);
#1807 = ORIENTED_EDGE('',*,*,#1037,.F.);
#1808 = TOROIDAL_SURFACE('',#1809,6.,1.);
#1809 = AXIS2_PLACEMENT_3D('',#1810,#1811,#1812);
#1810 = CARTESIAN_POINT('',(-44.,-23.5,16.));
#1811 = DIRECTION('',(0.,1.,-2.3E-16));
#1812 = DIRECTION('',(1.,-1.740048292248E-31,-7.565427357601E-16));
#1813 = ADVANCED_FACE('',(#1814),#1834,.T.);
#1814 = FACE_BOUND('',#1815,.T.);
#1815 = EDGE_LOOP('',(#1816,#1825,#1832,#1833));
#1816 = ORIENTED_EDGE('',*,*,#1817,.F.);
#1817 = EDGE_CURVE('',#1818,#1049,#1820,.T.);
#1818 = VERTEX_POINT('',#1819);
#1819 = CARTESIAN_POINT('',(5.,-23.5,42.55));
#1820 = CIRCLE('',#1821,1.);
#1821 = AXIS2_PLACEMENT_3D('',#1822,#1823,#1824);
#1822 = CARTESIAN_POINT('',(6.,-23.5,42.55));
#1823 = DIRECTION('',(-3.092713678801E-16,2.3E-16,1.));
#1824 = DIRECTION('',(1.,7.113241461241E-32,3.092713678801E-16));
#1825 = ORIENTED_EDGE('',*,*,#1826,.T.);
#1826 = EDGE_CURVE('',#1818,#1818,#1827,.T.);
#1827 = CIRCLE('',#1828,5.);
#1828 = AXIS2_PLACEMENT_3D('',#1829,#1830,#1831);
#1829 = CARTESIAN_POINT('',(0.,-23.5,42.55));
#1830 = DIRECTION('',(0.,1.,-2.3E-16));
#1831 = DIRECTION('',(1.,-3.374296584496E-31,-1.46708547152E-15));
#1832 = ORIENTED_EDGE('',*,*,#1817,.T.);
#1833 = ORIENTED_EDGE('',*,*,#1048,.F.);
#1834 = TOROIDAL_SURFACE('',#1835,6.,1.);
#1835 = AXIS2_PLACEMENT_3D('',#1836,#1837,#1838);
#1836 = CARTESIAN_POINT('',(0.,-23.5,42.55));
#1837 = DIRECTION('',(0.,1.,-2.3E-16));
#1838 = DIRECTION('',(1.,-3.374296584496E-31,-1.46708547152E-15));
#1839 = ADVANCED_FACE('',(#1840),#1860,.T.);
#1840 = FACE_BOUND('',#1841,.T.);
#1841 = EDGE_LOOP('',(#1842,#1851,#1858,#1859));
#1842 = ORIENTED_EDGE('',*,*,#1843,.F.);
#1843 = EDGE_CURVE('',#1844,#1060,#1846,.T.);
#1844 = VERTEX_POINT('',#1845);
#1845 = CARTESIAN_POINT('',(49.,-23.5,16.));
#1846 = CIRCLE('',#1847,1.);
#1847 = AXIS2_PLACEMENT_3D('',#1848,#1849,#1850);
#1848 = CARTESIAN_POINT('',(50.,-23.5,16.));
#1849 = DIRECTION('',(7.565427357601E-16,2.3E-16,1.));
#1850 = DIRECTION('',(1.,-1.740048292248E-31,-7.565427357601E-16));
#1851 = ORIENTED_EDGE('',*,*,#1852,.T.);
#1852 = EDGE_CURVE('',#1844,#1844,#1853,.T.);
#1853 = CIRCLE('',#1854,5.);
#1854 = AXIS2_PLACEMENT_3D('',#1855,#1856,#1857);
#1855 = CARTESIAN_POINT('',(44.,-23.5,16.));
#1856 = DIRECTION('',(0.,1.,-2.3E-16));
#1857 = DIRECTION('',(1.,-1.740048292248E-31,-7.565427357601E-16));
#1858 = ORIENTED_EDGE('',*,*,#1843,.T.);
#1859 = ORIENTED_EDGE('',*,*,#1059,.F.);
#1860 = TOROIDAL_SURFACE('',#1861,6.,1.);
#1861 = AXIS2_PLACEMENT_3D('',#1862,#1863,#1864);
#1862 = CARTESIAN_POINT('',(44.,-23.5,16.));
#1863 = DIRECTION('',(0.,1.,-2.3E-16));
#1864 = DIRECTION('',(1.,-1.740048292248E-31,-7.565427357601E-16));
#1865 = ADVANCED_FACE('',(#1866),#1878,.T.);
#1866 = FACE_BOUND('',#1867,.T.);
#1867 = EDGE_LOOP('',(#1868,#1875,#1876,#1877));
#1868 = ORIENTED_EDGE('',*,*,#1869,.F.);
#1869 = EDGE_CURVE('',#1248,#1071,#1870,.T.);
#1870 = CIRCLE('',#1871,1.);
#1871 = AXIS2_PLACEMENT_3D('',#1872,#1873,#1874);
#1872 = CARTESIAN_POINT('',(50.,-23.5,69.1));
#1873 = DIRECTION('',(2.88817094304E-15,2.3E-16,1.));
#1874 = DIRECTION('',(1.,-6.642793168993E-31,-2.88817094304E-15));
#1875 = ORIENTED_EDGE('',*,*,#1257,.T.);
#1876 = ORIENTED_EDGE('',*,*,#1869,.T.);
#1877 = ORIENTED_EDGE('',*,*,#1070,.F.);
#1878 = TOROIDAL_SURFACE('',#1879,6.,1.);
#1879 = AXIS2_PLACEMENT_3D('',#1880,#1881,#1882);
#1880 = CARTESIAN_POINT('',(44.,-23.5,69.1));
#1881 = DIRECTION('',(0.,1.,-2.3E-16));
#1882 = DIRECTION('',(1.,-6.642793168993E-31,-2.88817094304E-15));
#1883 = ADVANCED_FACE('',(#1884),#1897,.T.);
#1884 = FACE_BOUND('',#1885,.T.);
#1885 = EDGE_LOOP('',(#1886,#1893,#1894,#1895,#1896));
#1886 = ORIENTED_EDGE('',*,*,#1887,.F.);
#1887 = EDGE_CURVE('',#1098,#1527,#1888,.T.);
#1888 = ELLIPSE('',#1889,2.687005768509,1.9);
#1889 = AXIS2_PLACEMENT_3D('',#1890,#1891,#1892);
#1890 = CARTESIAN_POINT('',(-184.1,-8.1,-1.174242356037));
#1891 = DIRECTION('',(0.,0.707106781187,0.707106781187));
#1892 = DIRECTION('',(0.,0.707106781187,-0.707106781187));
#1893 = ORIENTED_EDGE('',*,*,#1097,.T.);
#1894 = ORIENTED_EDGE('',*,*,#1338,.F.);
#1895 = ORIENTED_EDGE('',*,*,#1440,.F.);
#1896 = ORIENTED_EDGE('',*,*,#1534,.F.);
#1897 = CYLINDRICAL_SURFACE('',#1898,1.9);
#1898 = AXIS2_PLACEMENT_3D('',#1899,#1900,#1901);
#1899 = CARTESIAN_POINT('',(-184.1,-8.1,2.222258813589E-05));
#1900 = DIRECTION('',(-0.,-0.,-1.));
#1901 = DIRECTION('',(0.,-1.,0.));
#1902 = ADVANCED_FACE('',(#1903),#1909,.T.);
#1903 = FACE_BOUND('',#1904,.T.);
#1904 = EDGE_LOOP('',(#1905,#1906,#1907,#1908));
#1905 = ORIENTED_EDGE('',*,*,#1775,.F.);
#1906 = ORIENTED_EDGE('',*,*,#1215,.T.);
#1907 = ORIENTED_EDGE('',*,*,#1617,.T.);
#1908 = ORIENTED_EDGE('',*,*,#1139,.F.);
#1909 = TOROIDAL_SURFACE('',#1910,10.35,1.9);
#1910 = AXIS2_PLACEMENT_3D('',#1911,#1912,#1913);
#1911 = CARTESIAN_POINT('',(-184.1,-12.25,24.999999999996));
#1912 = DIRECTION('',(-1.,-0.,-0.));
#1913 = DIRECTION('',(0.,-1.,1.040688030627E-07));
#1914 = ADVANCED_FACE('',(#1915),#1921,.T.);
#1915 = FACE_BOUND('',#1916,.F.);
#1916 = EDGE_LOOP('',(#1917,#1918,#1919,#1920));
#1917 = ORIENTED_EDGE('',*,*,#1887,.F.);
#1918 = ORIENTED_EDGE('',*,*,#1105,.T.);
#1919 = ORIENTED_EDGE('',*,*,#1173,.T.);
#1920 = ORIENTED_EDGE('',*,*,#1526,.F.);
#1921 = CYLINDRICAL_SURFACE('',#1922,1.9);
#1922 = AXIS2_PLACEMENT_3D('',#1923,#1924,#1925);
#1923 = CARTESIAN_POINT('',(-184.1,-10.,-1.174242356037));
#1924 = DIRECTION('',(0.,1.,-2.2E-16));
#1925 = DIRECTION('',(-0.4472135955,1.9677398202E-16,0.894427191));
#1926 = ADVANCED_FACE('',(#1927),#1938,.F.);
#1927 = FACE_BOUND('',#1928,.T.);
#1928 = EDGE_LOOP('',(#1929,#1935,#1936,#1937));
#1929 = ORIENTED_EDGE('',*,*,#1930,.F.);
#1930 = EDGE_CURVE('',#1291,#1792,#1931,.T.);
#1931 = LINE('',#1932,#1933);
#1932 = CARTESIAN_POINT('',(-39.,-5.,16.));
#1933 = VECTOR('',#1934,1.);
#1934 = DIRECTION('',(0.,-1.,2.22044604925E-16));
#1935 = ORIENTED_EDGE('',*,*,#1301,.T.);
#1936 = ORIENTED_EDGE('',*,*,#1930,.T.);
#1937 = ORIENTED_EDGE('',*,*,#1800,.F.);
#1938 = CYLINDRICAL_SURFACE('',#1939,5.);
#1939 = AXIS2_PLACEMENT_3D('',#1940,#1941,#1942);
#1940 = CARTESIAN_POINT('',(-44.,-5.,16.));
#1941 = DIRECTION('',(0.,1.,-2.22044604925E-16));
#1942 = DIRECTION('',(1.,0.,0.));
#1943 = ADVANCED_FACE('',(#1944),#1955,.F.);
#1944 = FACE_BOUND('',#1945,.T.);
#1945 = EDGE_LOOP('',(#1946,#1952,#1953,#1954));
#1946 = ORIENTED_EDGE('',*,*,#1947,.F.);
#1947 = EDGE_CURVE('',#1362,#1844,#1948,.T.);
#1948 = LINE('',#1949,#1950);
#1949 = CARTESIAN_POINT('',(49.,-5.,16.));
#1950 = VECTOR('',#1951,1.);
#1951 = DIRECTION('',(0.,-1.,2.22044604925E-16));
#1952 = ORIENTED_EDGE('',*,*,#1372,.T.);
#1953 = ORIENTED_EDGE('',*,*,#1947,.T.);
#1954 = ORIENTED_EDGE('',*,*,#1852,.F.);
#1955 = CYLINDRICAL_SURFACE('',#1956,5.);
#1956 = AXIS2_PLACEMENT_3D('',#1957,#1958,#1959);
#1957 = CARTESIAN_POINT('',(44.,-5.,16.));
#1958 = DIRECTION('',(0.,1.,-2.22044604925E-16));
#1959 = DIRECTION('',(1.,0.,0.));
#1960 = ADVANCED_FACE('',(#1961),#1972,.F.);
#1961 = FACE_BOUND('',#1962,.T.);
#1962 = EDGE_LOOP('',(#1963,#1969,#1970,#1971));
#1963 = ORIENTED_EDGE('',*,*,#1964,.F.);
#1964 = EDGE_CURVE('',#1388,#1818,#1965,.T.);
#1965 = LINE('',#1966,#1967);
#1966 = CARTESIAN_POINT('',(5.,-5.,42.55));
#1967 = VECTOR('',#1968,1.);
#1968 = DIRECTION('',(0.,-1.,2.22044604925E-16));
#1969 = ORIENTED_EDGE('',*,*,#1398,.T.);
#1970 = ORIENTED_EDGE('',*,*,#1964,.T.);
#1971 = ORIENTED_EDGE('',*,*,#1826,.F.);
#1972 = CYLINDRICAL_SURFACE('',#1973,5.);
#1973 = AXIS2_PLACEMENT_3D('',#1974,#1975,#1976);
#1974 = CARTESIAN_POINT('',(0.,-5.,42.55));
#1975 = DIRECTION('',(0.,1.,-2.22044604925E-16));
#1976 = DIRECTION('',(1.,0.,0.));
#1977 = ADVANCED_FACE('',(#1978),#1997,.F.);
#1978 = FACE_BOUND('',#1979,.T.);
#1979 = EDGE_LOOP('',(#1980,#1988,#1995,#1996));
#1980 = ORIENTED_EDGE('',*,*,#1981,.F.);
#1981 = EDGE_CURVE('',#1982,#1449,#1984,.T.);
#1982 = VERTEX_POINT('',#1983);
#1983 = CARTESIAN_POINT('',(49.,-5.,16.));
#1984 = LINE('',#1985,#1986);
#1985 = CARTESIAN_POINT('',(49.,-5.,16.));
#1986 = VECTOR('',#1987,1.);
#1987 = DIRECTION('',(0.,-1.,2.22044604925E-16));
#1988 = ORIENTED_EDGE('',*,*,#1989,.F.);
#1989 = EDGE_CURVE('',#1982,#1982,#1990,.T.);
#1990 = CIRCLE('',#1991,5.);
#1991 = AXIS2_PLACEMENT_3D('',#1992,#1993,#1994);
#1992 = CARTESIAN_POINT('',(44.,-5.,16.));
#1993 = DIRECTION('',(0.,-1.,2.22044604925E-16));
#1994 = DIRECTION('',(1.,0.,0.));
#1995 = ORIENTED_EDGE('',*,*,#1981,.T.);
#1996 = ORIENTED_EDGE('',*,*,#1448,.F.);
#1997 = CYLINDRICAL_SURFACE('',#1998,5.);
#1998 = AXIS2_PLACEMENT_3D('',#1999,#2000,#2001);
#1999 = CARTESIAN_POINT('',(44.,-5.,16.));
#2000 = DIRECTION('',(0.,1.,-2.22044604925E-16));
#2001 = DIRECTION('',(1.,0.,0.));
#2002 = ADVANCED_FACE('',(#2003),#2022,.F.);
#2003 = FACE_BOUND('',#2004,.T.);
#2004 = EDGE_LOOP('',(#2005,#2013,#2020,#2021));
#2005 = ORIENTED_EDGE('',*,*,#2006,.F.);
#2006 = EDGE_CURVE('',#2007,#1460,#2009,.T.);
#2007 = VERTEX_POINT('',#2008);
#2008 = CARTESIAN_POINT('',(-39.,-5.,16.));
#2009 = LINE('',#2010,#2011);
#2010 = CARTESIAN_POINT('',(-39.,-5.,16.));
#2011 = VECTOR('',#2012,1.);
#2012 = DIRECTION('',(0.,-1.,2.22044604925E-16));
#2013 = ORIENTED_EDGE('',*,*,#2014,.F.);
#2014 = EDGE_CURVE('',#2007,#2007,#2015,.T.);
#2015 = CIRCLE('',#2016,5.);
#2016 = AXIS2_PLACEMENT_3D('',#2017,#2018,#2019);
#2017 = CARTESIAN_POINT('',(-44.,-5.,16.));
#2018 = DIRECTION('',(0.,-1.,2.22044604925E-16));
#2019 = DIRECTION('',(1.,0.,0.));
#2020 = ORIENTED_EDGE('',*,*,#2006,.T.);
#2021 = ORIENTED_EDGE('',*,*,#1459,.F.);
#2022 = CYLINDRICAL_SURFACE('',#2023,5.);
#2023 = AXIS2_PLACEMENT_3D('',#2024,#2025,#2026);
#2024 = CARTESIAN_POINT('',(-44.,-5.,16.));
#2025 = DIRECTION('',(0.,1.,-2.22044604925E-16));
#2026 = DIRECTION('',(1.,0.,0.));
#2027 = ADVANCED_FACE('',(#2028),#2047,.F.);
#2028 = FACE_BOUND('',#2029,.T.);
#2029 = EDGE_LOOP('',(#2030,#2038,#2045,#2046));
#2030 = ORIENTED_EDGE('',*,*,#2031,.F.);
#2031 = EDGE_CURVE('',#2032,#1471,#2034,.T.);
#2032 = VERTEX_POINT('',#2033);
#2033 = CARTESIAN_POINT('',(5.,-5.,42.55));
#2034 = LINE('',#2035,#2036);
#2035 = CARTESIAN_POINT('',(5.,-5.,42.55));
#2036 = VECTOR('',#2037,1.);
#2037 = DIRECTION('',(0.,-1.,2.22044604925E-16));
#2038 = ORIENTED_EDGE('',*,*,#2039,.F.);
#2039 = EDGE_CURVE('',#2032,#2032,#2040,.T.);
#2040 = CIRCLE('',#2041,5.);
#2041 = AXIS2_PLACEMENT_3D('',#2042,#2043,#2044);
#2042 = CARTESIAN_POINT('',(0.,-5.,42.55));
#2043 = DIRECTION('',(0.,-1.,2.22044604925E-16));
#2044 = DIRECTION('',(1.,0.,0.));
#2045 = ORIENTED_EDGE('',*,*,#2031,.T.);
#2046 = ORIENTED_EDGE('',*,*,#1470,.F.);
#2047 = CYLINDRICAL_SURFACE('',#2048,5.);
#2048 = AXIS2_PLACEMENT_3D('',#2049,#2050,#2051);
#2049 = CARTESIAN_POINT('',(0.,-5.,42.55));
#2050 = DIRECTION('',(0.,1.,-2.22044604925E-16));
#2051 = DIRECTION('',(1.,0.,0.));
#2052 = ADVANCED_FACE('',(#2053),#2073,.F.);
#2053 = FACE_BOUND('',#2054,.T.);
#2054 = EDGE_LOOP('',(#2055,#2063,#2070,#2071,#2072));
#2055 = ORIENTED_EDGE('',*,*,#2056,.F.);
#2056 = EDGE_CURVE('',#2057,#1638,#2059,.T.);
#2057 = VERTEX_POINT('',#2058);
#2058 = CARTESIAN_POINT('',(-48.5,-5.,16.));
#2059 = LINE('',#2060,#2061);
#2060 = CARTESIAN_POINT('',(-48.5,-5.,16.));
#2061 = VECTOR('',#2062,1.);
#2062 = DIRECTION('',(0.707106781187,0.707106781187,-1.57426566185E-16)
  );
#2063 = ORIENTED_EDGE('',*,*,#2064,.T.);
#2064 = EDGE_CURVE('',#2057,#2057,#2065,.T.);
#2065 = CIRCLE('',#2066,4.5);
#2066 = AXIS2_PLACEMENT_3D('',#2067,#2068,#2069);
#2067 = CARTESIAN_POINT('',(-44.,-5.,16.));
#2068 = DIRECTION('',(0.,-1.,2.226347849766E-16));
#2069 = DIRECTION('',(-1.,0.,0.));
#2070 = ORIENTED_EDGE('',*,*,#2056,.T.);
#2071 = ORIENTED_EDGE('',*,*,#1635,.F.);
#2072 = ORIENTED_EDGE('',*,*,#1654,.F.);
#2073 = CONICAL_SURFACE('',#2074,4.5,0.785398163397);
#2074 = AXIS2_PLACEMENT_3D('',#2075,#2076,#2077);
#2075 = CARTESIAN_POINT('',(-44.,-5.,16.));
#2076 = DIRECTION('',(-0.,-1.,2.226347849766E-16));
#2077 = DIRECTION('',(-1.,0.,0.));
#2078 = ADVANCED_FACE('',(#2079),#2099,.F.);
#2079 = FACE_BOUND('',#2080,.T.);
#2080 = EDGE_LOOP('',(#2081,#2089,#2096,#2097,#2098));
#2081 = ORIENTED_EDGE('',*,*,#2082,.F.);
#2082 = EDGE_CURVE('',#2083,#1690,#2085,.T.);
#2083 = VERTEX_POINT('',#2084);
#2084 = CARTESIAN_POINT('',(-4.5,-5.,42.55));
#2085 = LINE('',#2086,#2087);
#2086 = CARTESIAN_POINT('',(-4.5,-5.,42.55));
#2087 = VECTOR('',#2088,1.);
#2088 = DIRECTION('',(0.707106781187,0.707106781187,-1.57426566185E-16)
  );
#2089 = ORIENTED_EDGE('',*,*,#2090,.T.);
#2090 = EDGE_CURVE('',#2083,#2083,#2091,.T.);
#2091 = CIRCLE('',#2092,4.5);
#2092 = AXIS2_PLACEMENT_3D('',#2093,#2094,#2095);
#2093 = CARTESIAN_POINT('',(0.,-5.,42.55));
#2094 = DIRECTION('',(0.,-1.,2.226347849766E-16));
#2095 = DIRECTION('',(-1.,0.,0.));
#2096 = ORIENTED_EDGE('',*,*,#2082,.T.);
#2097 = ORIENTED_EDGE('',*,*,#1687,.F.);
#2098 = ORIENTED_EDGE('',*,*,#1706,.F.);
#2099 = CONICAL_SURFACE('',#2100,4.5,0.785398163397);
#2100 = AXIS2_PLACEMENT_3D('',#2101,#2102,#2103);
#2101 = CARTESIAN_POINT('',(0.,-5.,42.55));
#2102 = DIRECTION('',(-0.,-1.,2.226347849766E-16));
#2103 = DIRECTION('',(-1.,0.,0.));
#2104 = ADVANCED_FACE('',(#2105),#2125,.F.);
#2105 = FACE_BOUND('',#2106,.T.);
#2106 = EDGE_LOOP('',(#2107,#2115,#2122,#2123,#2124));
#2107 = ORIENTED_EDGE('',*,*,#2108,.F.);
#2108 = EDGE_CURVE('',#2109,#1724,#2111,.T.);
#2109 = VERTEX_POINT('',#2110);
#2110 = CARTESIAN_POINT('',(39.5,-5.,16.));
#2111 = LINE('',#2112,#2113);
#2112 = CARTESIAN_POINT('',(39.5,-5.,16.));
#2113 = VECTOR('',#2114,1.);
#2114 = DIRECTION('',(0.707106781187,0.707106781187,-1.57426566185E-16)
  );
#2115 = ORIENTED_EDGE('',*,*,#2116,.T.);
#2116 = EDGE_CURVE('',#2109,#2109,#2117,.T.);
#2117 = CIRCLE('',#2118,4.5);
#2118 = AXIS2_PLACEMENT_3D('',#2119,#2120,#2121);
#2119 = CARTESIAN_POINT('',(44.,-5.,16.));
#2120 = DIRECTION('',(0.,-1.,2.226347849766E-16));
#2121 = DIRECTION('',(-1.,0.,0.));
#2122 = ORIENTED_EDGE('',*,*,#2108,.T.);
#2123 = ORIENTED_EDGE('',*,*,#1721,.F.);
#2124 = ORIENTED_EDGE('',*,*,#1740,.F.);
#2125 = CONICAL_SURFACE('',#2126,4.5,0.785398163397);
#2126 = AXIS2_PLACEMENT_3D('',#2127,#2128,#2129);
#2127 = CARTESIAN_POINT('',(44.,-5.,16.));
#2128 = DIRECTION('',(-0.,-1.,2.226347849766E-16));
#2129 = DIRECTION('',(-1.,0.,0.));
#2130 = ADVANCED_FACE('',(#2131,#2134),#2137,.T.);
#2131 = FACE_BOUND('',#2132,.T.);
#2132 = EDGE_LOOP('',(#2133));
#2133 = ORIENTED_EDGE('',*,*,#1989,.T.);
#2134 = FACE_BOUND('',#2135,.T.);
#2135 = EDGE_LOOP('',(#2136));
#2136 = ORIENTED_EDGE('',*,*,#2116,.F.);
#2137 = PLANE('',#2138);
#2138 = AXIS2_PLACEMENT_3D('',#2139,#2140,#2141);
#2139 = CARTESIAN_POINT('',(-2.489684103352E-15,-5.,42.55));
#2140 = DIRECTION('',(0.,-1.,2.22044604925E-16));
#2141 = DIRECTION('',(1.,0.,0.));
#2142 = ADVANCED_FACE('',(#2143,#2146),#2149,.T.);
#2143 = FACE_BOUND('',#2144,.T.);
#2144 = EDGE_LOOP('',(#2145));
#2145 = ORIENTED_EDGE('',*,*,#2014,.T.);
#2146 = FACE_BOUND('',#2147,.T.);
#2147 = EDGE_LOOP('',(#2148));
#2148 = ORIENTED_EDGE('',*,*,#2064,.F.);
#2149 = PLANE('',#2150);
#2150 = AXIS2_PLACEMENT_3D('',#2151,#2152,#2153);
#2151 = CARTESIAN_POINT('',(-2.489684103352E-15,-5.,42.55));
#2152 = DIRECTION('',(0.,-1.,2.22044604925E-16));
#2153 = DIRECTION('',(1.,0.,0.));
#2154 = ADVANCED_FACE('',(#2155,#2158),#2161,.T.);
#2155 = FACE_BOUND('',#2156,.T.);
#2156 = EDGE_LOOP('',(#2157));
#2157 = ORIENTED_EDGE('',*,*,#2039,.T.);
#2158 = FACE_BOUND('',#2159,.T.);
#2159 = EDGE_LOOP('',(#2160));
#2160 = ORIENTED_EDGE('',*,*,#2090,.F.);
#2161 = PLANE('',#2162);
#2162 = AXIS2_PLACEMENT_3D('',#2163,#2164,#2165);
#2163 = CARTESIAN_POINT('',(-2.489684103352E-15,-5.,42.55));
#2164 = DIRECTION('',(0.,-1.,2.22044604925E-16));
#2165 = DIRECTION('',(1.,0.,0.));
#2166 = ( GEOMETRIC_REPRESENTATION_CONTEXT(3) 
GLOBAL_UNCERTAINTY_ASSIGNED_CONTEXT((#2170)) 
GLOBAL_UNIT_ASSIGNED_CONTEXT((#2167,#2168,#2169)) REPRESENTATION_CONTEXT
('Context #1','3D Context with UNIT and UNCERTAINTY') );
#2167 = ( LENGTH_UNIT() NAMED_UNIT(*) SI_UNIT(.MILLI.,.METRE.) );
#2168 = ( NAMED_UNIT(*) PLANE_ANGLE_UNIT() SI_UNIT($,.RADIAN.) );
#2169 = ( NAMED_UNIT(*) SI_UNIT($,.STERADIAN.) SOLID_ANGLE_UNIT() );
#2170 = UNCERTAINTY_MEASURE_WITH_UNIT(LENGTH_MEASURE(2.E-05),#2167,
  'distance_accuracy_value','confusion accuracy');
#2171 = PRODUCT_RELATED_PRODUCT_CATEGORY('part',$,(#7));
#2172 = MECHANICAL_DESIGN_GEOMETRIC_PRESENTATION_REPRESENTATION('',(
    #2173),#2166);
#2173 = STYLED_ITEM('color',(#2174),#15);
#2174 = PRESENTATION_STYLE_ASSIGNMENT((#2175,#2181));
#2175 = SURFACE_STYLE_USAGE(.BOTH.,#2176);
#2176 = SURFACE_SIDE_STYLE('',(#2177));
#2177 = SURFACE_STYLE_FILL_AREA(#2178);
#2178 = FILL_AREA_STYLE('',(#2179));
#2179 = FILL_AREA_STYLE_COLOUR('',#2180);
#2180 = COLOUR_RGB('',0.678431390124,0.709803936702,0.741176476869);
#2181 = CURVE_STYLE('',#2182,POSITIVE_LENGTH_MEASURE(0.1),#2183);
#2182 = DRAUGHTING_PRE_DEFINED_CURVE_FONT('continuous');
#2183 = COLOUR_RGB('',9.803921802644E-02,9.803921802644E-02,
  9.803921802644E-02);
ENDSEC;
END-ISO-10303-21;
