ISO-10303-21;
HEADER;
FILE_DESCRIPTION(('FreeCAD Model'),'2;1');
FILE_NAME('Open CASCADE Shape Model','2025-11-21T18:12:38',(''),(''),
  'Open CASCADE STEP processor 7.8','FreeCAD','Unknown');
FILE_SCHEMA(('AUTOMOTIVE_DESIGN { 1 0 10303 214 1 1 1 1 }'));
ENDSEC;
DATA;
#1 = APPLICATION_PROTOCOL_DEFINITION('international standard',
  'automotive_design',2000,#2);
#2 = APPLICATION_CONTEXT(
  'core data for automotive mechanical design processes');
#3 = SHAPE_DEFINITION_REPRESENTATION(#4,#10);
#4 = PRODUCT_DEFINITION_SHAPE('','',#5);
#5 = PRODUCT_DEFINITION('design','',#6,#9);
#6 = PRODUCT_DEFINITION_FORMATION('','',#7);
#7 = PRODUCT('Pocket008','Pocket008','',(#8));
#8 = PRODUCT_CONTEXT('',#2,'mechanical');
#9 = PRODUCT_DEFINITION_CONTEXT('part definition',#2,'design');
#10 = ADVANCED_BREP_SHAPE_REPRESENTATION('',(#11,#15),#2031);
#11 = AXIS2_PLACEMENT_3D('',#12,#13,#14);
#12 = CARTESIAN_POINT('',(0.,0.,0.));
#13 = DIRECTION('',(0.,0.,1.));
#14 = DIRECTION('',(1.,0.,-0.));
#15 = MANIFOLD_SOLID_BREP('',#16);
#16 = CLOSED_SHELL('',(#17,#50,#75,#178,#265,#462,#493,#517,#714,#786,
    #803,#828,#853,#878,#903,#920,#1096,#1143,#1190,#1202,#1219,#1236,
    #1253,#1275,#1292,#1314,#1331,#1353,#1370,#1387,#1404,#1435,#1457,
    #1479,#1496,#1513,#1530,#1552,#1569,#1586,#1603,#1620,#1642,#1659,
    #1676,#1693,#1710,#1741,#1763,#1785,#1807,#1863,#1875,#1893,#1911,
    #1923,#1935,#1947,#1959,#1971,#1983,#1995,#2007,#2019));
#17 = ADVANCED_FACE('',(#18),#45,.F.);
#18 = FACE_BOUND('',#19,.F.);
#19 = EDGE_LOOP('',(#20,#30,#37,#38));
#20 = ORIENTED_EDGE('',*,*,#21,.F.);
#21 = EDGE_CURVE('',#22,#24,#26,.T.);
#22 = VERTEX_POINT('',#23);
#23 = CARTESIAN_POINT('',(-42.2,1.,15.99999999987));
#24 = VERTEX_POINT('',#25);
#25 = CARTESIAN_POINT('',(-42.2,5.,15.99999999987));
#26 = LINE('',#27,#28);
#27 = CARTESIAN_POINT('',(-42.2,3.552713678772E-15,15.99999999987));
#28 = VECTOR('',#29,1.);
#29 = DIRECTION('',(0.,1.,-2.22044604925E-16));
#30 = ORIENTED_EDGE('',*,*,#31,.F.);
#31 = EDGE_CURVE('',#22,#22,#32,.T.);
#32 = CIRCLE('',#33,1.8);
#33 = AXIS2_PLACEMENT_3D('',#34,#35,#36);
#34 = CARTESIAN_POINT('',(-44.,1.,15.99999999987));
#35 = DIRECTION('',(0.,-1.,0.));
#36 = DIRECTION('',(1.,0.,0.));
#37 = ORIENTED_EDGE('',*,*,#21,.T.);
#38 = ORIENTED_EDGE('',*,*,#39,.T.);
#39 = EDGE_CURVE('',#24,#24,#40,.T.);
#40 = CIRCLE('',#41,1.8);
#41 = AXIS2_PLACEMENT_3D('',#42,#43,#44);
#42 = CARTESIAN_POINT('',(-44.,5.,15.99999999987));
#43 = DIRECTION('',(0.,-1.,2.22044604925E-16));
#44 = DIRECTION('',(1.,0.,0.));
#45 = CYLINDRICAL_SURFACE('',#46,1.8);
#46 = AXIS2_PLACEMENT_3D('',#47,#48,#49);
#47 = CARTESIAN_POINT('',(-44.,3.552713678772E-15,15.99999999987));
#48 = DIRECTION('',(0.,-1.,2.22044604925E-16));
#49 = DIRECTION('',(1.,0.,0.));
#50 = ADVANCED_FACE('',(#51),#70,.F.);
#51 = FACE_BOUND('',#52,.F.);
#52 = EDGE_LOOP('',(#53,#61,#62,#63));
#53 = ORIENTED_EDGE('',*,*,#54,.F.);
#54 = EDGE_CURVE('',#22,#55,#57,.T.);
#55 = VERTEX_POINT('',#56);
#56 = CARTESIAN_POINT('',(-41.2,0.,15.99999999987));
#57 = LINE('',#58,#59);
#58 = CARTESIAN_POINT('',(-42.2,1.,15.99999999987));
#59 = VECTOR('',#60,1.);
#60 = DIRECTION('',(0.707106781187,-0.707106781187,0.));
#61 = ORIENTED_EDGE('',*,*,#31,.T.);
#62 = ORIENTED_EDGE('',*,*,#54,.T.);
#63 = ORIENTED_EDGE('',*,*,#64,.F.);
#64 = EDGE_CURVE('',#55,#55,#65,.T.);
#65 = CIRCLE('',#66,2.8);
#66 = AXIS2_PLACEMENT_3D('',#67,#68,#69);
#67 = CARTESIAN_POINT('',(-44.,0.,15.99999999987));
#68 = DIRECTION('',(0.,-1.,0.));
#69 = DIRECTION('',(1.,0.,0.));
#70 = CONICAL_SURFACE('',#71,1.8,0.785398163397);
#71 = AXIS2_PLACEMENT_3D('',#72,#73,#74);
#72 = CARTESIAN_POINT('',(-44.,1.,15.99999999987));
#73 = DIRECTION('',(0.,-1.,0.));
#74 = DIRECTION('',(1.,0.,0.));
#75 = ADVANCED_FACE('',(#76,#126,#129,#140,#151,#162),#173,.T.);
#76 = FACE_BOUND('',#77,.T.);
#77 = EDGE_LOOP('',(#78,#88,#96,#104,#112,#120));
#78 = ORIENTED_EDGE('',*,*,#79,.F.);
#79 = EDGE_CURVE('',#80,#82,#84,.T.);
#80 = VERTEX_POINT('',#81);
#81 = CARTESIAN_POINT('',(-59.,5.,69.1));
#82 = VERTEX_POINT('',#83);
#83 = CARTESIAN_POINT('',(-59.,5.,1.));
#84 = LINE('',#85,#86);
#85 = CARTESIAN_POINT('',(-59.,5.,0.));
#86 = VECTOR('',#87,1.);
#87 = DIRECTION('',(0.,0.,-1.));
#88 = ORIENTED_EDGE('',*,*,#89,.F.);
#89 = EDGE_CURVE('',#90,#80,#92,.T.);
#90 = VERTEX_POINT('',#91);
#91 = CARTESIAN_POINT('',(-59.9,5.,70.));
#92 = LINE('',#93,#94);
#93 = CARTESIAN_POINT('',(-35.95,5.,46.05));
#94 = VECTOR('',#95,1.);
#95 = DIRECTION('',(0.707106781187,0.,-0.707106781187));
#96 = ORIENTED_EDGE('',*,*,#97,.T.);
#97 = EDGE_CURVE('',#90,#98,#100,.T.);
#98 = VERTEX_POINT('',#99);
#99 = CARTESIAN_POINT('',(59.9,5.,70.));
#100 = LINE('',#101,#102);
#101 = CARTESIAN_POINT('',(7.013124682791E-16,5.,70.));
#102 = VECTOR('',#103,1.);
#103 = DIRECTION('',(1.,0.,0.));
#104 = ORIENTED_EDGE('',*,*,#105,.T.);
#105 = EDGE_CURVE('',#98,#106,#108,.T.);
#106 = VERTEX_POINT('',#107);
#107 = CARTESIAN_POINT('',(59.,5.,69.1));
#108 = LINE('',#109,#110);
#109 = CARTESIAN_POINT('',(35.95,5.,46.05));
#110 = VECTOR('',#111,1.);
#111 = DIRECTION('',(-0.707106781187,0.,-0.707106781187));
#112 = ORIENTED_EDGE('',*,*,#113,.F.);
#113 = EDGE_CURVE('',#114,#106,#116,.T.);
#114 = VERTEX_POINT('',#115);
#115 = CARTESIAN_POINT('',(59.,5.,1.));
#116 = LINE('',#117,#118);
#117 = CARTESIAN_POINT('',(59.,5.,0.));
#118 = VECTOR('',#119,1.);
#119 = DIRECTION('',(0.,0.,1.));
#120 = ORIENTED_EDGE('',*,*,#121,.T.);
#121 = EDGE_CURVE('',#114,#82,#122,.T.);
#122 = LINE('',#123,#124);
#123 = CARTESIAN_POINT('',(59.,5.,1.));
#124 = VECTOR('',#125,1.);
#125 = DIRECTION('',(-1.,0.,0.));
#126 = FACE_BOUND('',#127,.T.);
#127 = EDGE_LOOP('',(#128));
#128 = ORIENTED_EDGE('',*,*,#39,.T.);
#129 = FACE_BOUND('',#130,.T.);
#130 = EDGE_LOOP('',(#131));
#131 = ORIENTED_EDGE('',*,*,#132,.T.);
#132 = EDGE_CURVE('',#133,#133,#135,.T.);
#133 = VERTEX_POINT('',#134);
#134 = CARTESIAN_POINT('',(-42.2,5.,54.1));
#135 = CIRCLE('',#136,1.8);
#136 = AXIS2_PLACEMENT_3D('',#137,#138,#139);
#137 = CARTESIAN_POINT('',(-44.,5.,54.1));
#138 = DIRECTION('',(0.,-1.,2.22044604925E-16));
#139 = DIRECTION('',(1.,0.,0.));
#140 = FACE_BOUND('',#141,.T.);
#141 = EDGE_LOOP('',(#142));
#142 = ORIENTED_EDGE('',*,*,#143,.T.);
#143 = EDGE_CURVE('',#144,#144,#146,.T.);
#144 = VERTEX_POINT('',#145);
#145 = CARTESIAN_POINT('',(45.8,5.,15.99999999987));
#146 = CIRCLE('',#147,1.8);
#147 = AXIS2_PLACEMENT_3D('',#148,#149,#150);
#148 = CARTESIAN_POINT('',(44.,5.,15.99999999987));
#149 = DIRECTION('',(0.,-1.,2.22044604925E-16));
#150 = DIRECTION('',(1.,0.,0.));
#151 = FACE_BOUND('',#152,.T.);
#152 = EDGE_LOOP('',(#153));
#153 = ORIENTED_EDGE('',*,*,#154,.T.);
#154 = EDGE_CURVE('',#155,#155,#157,.T.);
#155 = VERTEX_POINT('',#156);
#156 = CARTESIAN_POINT('',(1.8,5.,35.05));
#157 = CIRCLE('',#158,1.8);
#158 = AXIS2_PLACEMENT_3D('',#159,#160,#161);
#159 = CARTESIAN_POINT('',(0.,5.,35.05));
#160 = DIRECTION('',(0.,-1.,2.22044604925E-16));
#161 = DIRECTION('',(1.,0.,0.));
#162 = FACE_BOUND('',#163,.T.);
#163 = EDGE_LOOP('',(#164));
#164 = ORIENTED_EDGE('',*,*,#165,.T.);
#165 = EDGE_CURVE('',#166,#166,#168,.T.);
#166 = VERTEX_POINT('',#167);
#167 = CARTESIAN_POINT('',(45.8,5.,54.1));
#168 = CIRCLE('',#169,1.8);
#169 = AXIS2_PLACEMENT_3D('',#170,#171,#172);
#170 = CARTESIAN_POINT('',(44.,5.,54.1));
#171 = DIRECTION('',(0.,-1.,2.22044604925E-16));
#172 = DIRECTION('',(1.,0.,0.));
#173 = PLANE('',#174);
#174 = AXIS2_PLACEMENT_3D('',#175,#176,#177);
#175 = CARTESIAN_POINT('',(0.,5.,35.));
#176 = DIRECTION('',(0.,1.,0.));
#177 = DIRECTION('',(0.,0.,1.));
#178 = ADVANCED_FACE('',(#179,#190,#224,#227,#238,#249),#260,.F.);
#179 = FACE_BOUND('',#180,.F.);
#180 = EDGE_LOOP('',(#181));
#181 = ORIENTED_EDGE('',*,*,#182,.T.);
#182 = EDGE_CURVE('',#183,#183,#185,.T.);
#183 = VERTEX_POINT('',#184);
#184 = CARTESIAN_POINT('',(-41.2,0.,54.1));
#185 = CIRCLE('',#186,2.8);
#186 = AXIS2_PLACEMENT_3D('',#187,#188,#189);
#187 = CARTESIAN_POINT('',(-44.,0.,54.1));
#188 = DIRECTION('',(0.,-1.,0.));
#189 = DIRECTION('',(1.,0.,0.));
#190 = FACE_BOUND('',#191,.F.);
#191 = EDGE_LOOP('',(#192,#202,#210,#218));
#192 = ORIENTED_EDGE('',*,*,#193,.F.);
#193 = EDGE_CURVE('',#194,#196,#198,.T.);
#194 = VERTEX_POINT('',#195);
#195 = CARTESIAN_POINT('',(-64.,0.,0.));
#196 = VERTEX_POINT('',#197);
#197 = CARTESIAN_POINT('',(64.,0.,0.));
#198 = LINE('',#199,#200);
#199 = CARTESIAN_POINT('',(-64.,0.,0.));
#200 = VECTOR('',#201,1.);
#201 = DIRECTION('',(1.,0.,0.));
#202 = ORIENTED_EDGE('',*,*,#203,.T.);
#203 = EDGE_CURVE('',#194,#204,#206,.T.);
#204 = VERTEX_POINT('',#205);
#205 = CARTESIAN_POINT('',(-64.,0.,66.));
#206 = LINE('',#207,#208);
#207 = CARTESIAN_POINT('',(-64.,0.,0.));
#208 = VECTOR('',#209,1.);
#209 = DIRECTION('',(0.,0.,1.));
#210 = ORIENTED_EDGE('',*,*,#211,.F.);
#211 = EDGE_CURVE('',#212,#204,#214,.T.);
#212 = VERTEX_POINT('',#213);
#213 = CARTESIAN_POINT('',(64.,0.,66.));
#214 = LINE('',#215,#216);
#215 = CARTESIAN_POINT('',(64.,0.,66.));
#216 = VECTOR('',#217,1.);
#217 = DIRECTION('',(-1.,-0.,-0.));
#218 = ORIENTED_EDGE('',*,*,#219,.F.);
#219 = EDGE_CURVE('',#196,#212,#220,.T.);
#220 = LINE('',#221,#222);
#221 = CARTESIAN_POINT('',(64.,0.,0.));
#222 = VECTOR('',#223,1.);
#223 = DIRECTION('',(0.,0.,1.));
#224 = FACE_BOUND('',#225,.F.);
#225 = EDGE_LOOP('',(#226));
#226 = ORIENTED_EDGE('',*,*,#64,.T.);
#227 = FACE_BOUND('',#228,.F.);
#228 = EDGE_LOOP('',(#229));
#229 = ORIENTED_EDGE('',*,*,#230,.T.);
#230 = EDGE_CURVE('',#231,#231,#233,.T.);
#231 = VERTEX_POINT('',#232);
#232 = CARTESIAN_POINT('',(2.8,0.,35.05));
#233 = CIRCLE('',#234,2.8);
#234 = AXIS2_PLACEMENT_3D('',#235,#236,#237);
#235 = CARTESIAN_POINT('',(0.,0.,35.05));
#236 = DIRECTION('',(0.,-1.,0.));
#237 = DIRECTION('',(1.,0.,0.));
#238 = FACE_BOUND('',#239,.F.);
#239 = EDGE_LOOP('',(#240));
#240 = ORIENTED_EDGE('',*,*,#241,.T.);
#241 = EDGE_CURVE('',#242,#242,#244,.T.);
#242 = VERTEX_POINT('',#243);
#243 = CARTESIAN_POINT('',(46.8,0.,15.99999999987));
#244 = CIRCLE('',#245,2.8);
#245 = AXIS2_PLACEMENT_3D('',#246,#247,#248);
#246 = CARTESIAN_POINT('',(44.,0.,15.99999999987));
#247 = DIRECTION('',(0.,-1.,0.));
#248 = DIRECTION('',(1.,0.,0.));
#249 = FACE_BOUND('',#250,.F.);
#250 = EDGE_LOOP('',(#251));
#251 = ORIENTED_EDGE('',*,*,#252,.T.);
#252 = EDGE_CURVE('',#253,#253,#255,.T.);
#253 = VERTEX_POINT('',#254);
#254 = CARTESIAN_POINT('',(46.8,0.,54.1));
#255 = CIRCLE('',#256,2.8);
#256 = AXIS2_PLACEMENT_3D('',#257,#258,#259);
#257 = CARTESIAN_POINT('',(44.,0.,54.1));
#258 = DIRECTION('',(0.,-1.,0.));
#259 = DIRECTION('',(1.,0.,0.));
#260 = PLANE('',#261);
#261 = AXIS2_PLACEMENT_3D('',#262,#263,#264);
#262 = CARTESIAN_POINT('',(-64.,0.,0.));
#263 = DIRECTION('',(0.,1.,0.));
#264 = DIRECTION('',(1.,0.,0.));
#265 = ADVANCED_FACE('',(#266),#457,.T.);
#266 = FACE_BOUND('',#267,.T.);
#267 = EDGE_LOOP('',(#268,#278,#286,#294,#302,#310,#316,#317,#325,#333,
    #342,#350,#359,#367,#375,#383,#392,#400,#409,#417,#425,#433,#442,
    #450));
#268 = ORIENTED_EDGE('',*,*,#269,.F.);
#269 = EDGE_CURVE('',#270,#272,#274,.T.);
#270 = VERTEX_POINT('',#271);
#271 = CARTESIAN_POINT('',(-59.,36.650000000001,1.));
#272 = VERTEX_POINT('',#273);
#273 = CARTESIAN_POINT('',(-59.,36.650000000001,22.58578643763));
#274 = LINE('',#275,#276);
#275 = CARTESIAN_POINT('',(-59.,36.650000000001,-2.253329969588E-40));
#276 = VECTOR('',#277,1.);
#277 = DIRECTION('',(0.,0.,1.));
#278 = ORIENTED_EDGE('',*,*,#279,.F.);
#279 = EDGE_CURVE('',#280,#270,#282,.T.);
#280 = VERTEX_POINT('',#281);
#281 = CARTESIAN_POINT('',(-59.,42.2,1.));
#282 = LINE('',#283,#284);
#283 = CARTESIAN_POINT('',(-59.,42.2,1.));
#284 = VECTOR('',#285,1.);
#285 = DIRECTION('',(0.,-1.,0.));
#286 = ORIENTED_EDGE('',*,*,#287,.F.);
#287 = EDGE_CURVE('',#288,#280,#290,.T.);
#288 = VERTEX_POINT('',#289);
#289 = CARTESIAN_POINT('',(-59.,42.2,15.));
#290 = LINE('',#291,#292);
#291 = CARTESIAN_POINT('',(-59.,42.2,5.));
#292 = VECTOR('',#293,1.);
#293 = DIRECTION('',(-0.,-0.,-1.));
#294 = ORIENTED_EDGE('',*,*,#295,.T.);
#295 = EDGE_CURVE('',#288,#296,#298,.T.);
#296 = VERTEX_POINT('',#297);
#297 = CARTESIAN_POINT('',(-59.,42.470551395899,14.999999999999));
#298 = LINE('',#299,#300);
#299 = CARTESIAN_POINT('',(-59.,42.2,15.));
#300 = VECTOR('',#301,1.);
#301 = DIRECTION('',(0.,1.,0.));
#302 = ORIENTED_EDGE('',*,*,#303,.F.);
#303 = EDGE_CURVE('',#304,#296,#306,.T.);
#304 = VERTEX_POINT('',#305);
#305 = CARTESIAN_POINT('',(-59.,42.470551395899,69.1));
#306 = LINE('',#307,#308);
#307 = CARTESIAN_POINT('',(-59.,42.470551395899,0.));
#308 = VECTOR('',#309,1.);
#309 = DIRECTION('',(0.,0.,-1.));
#310 = ORIENTED_EDGE('',*,*,#311,.F.);
#311 = EDGE_CURVE('',#80,#304,#312,.T.);
#312 = LINE('',#313,#314);
#313 = CARTESIAN_POINT('',(-59.,5.,69.1));
#314 = VECTOR('',#315,1.);
#315 = DIRECTION('',(0.,1.,0.));
#316 = ORIENTED_EDGE('',*,*,#79,.T.);
#317 = ORIENTED_EDGE('',*,*,#318,.F.);
#318 = EDGE_CURVE('',#319,#82,#321,.T.);
#319 = VERTEX_POINT('',#320);
#320 = CARTESIAN_POINT('',(-59.,10.549999999999,1.));
#321 = LINE('',#322,#323);
#322 = CARTESIAN_POINT('',(-59.,10.549999999999,1.));
#323 = VECTOR('',#324,1.);
#324 = DIRECTION('',(0.,-1.,0.));
#325 = ORIENTED_EDGE('',*,*,#326,.F.);
#326 = EDGE_CURVE('',#327,#319,#329,.T.);
#327 = VERTEX_POINT('',#328);
#328 = CARTESIAN_POINT('',(-59.,10.549999999999,59.58578643763));
#329 = LINE('',#330,#331);
#330 = CARTESIAN_POINT('',(-59.,10.549999999999,60.000000000003));
#331 = VECTOR('',#332,1.);
#332 = DIRECTION('',(0.,0.,-1.));
#333 = ORIENTED_EDGE('',*,*,#334,.T.);
#334 = EDGE_CURVE('',#327,#335,#337,.T.);
#335 = VERTEX_POINT('',#336);
#336 = CARTESIAN_POINT('',(-59.,10.842893218813,60.292893218817));
#337 = CIRCLE('',#338,1.);
#338 = AXIS2_PLACEMENT_3D('',#339,#340,#341);
#339 = CARTESIAN_POINT('',(-59.,11.549999999999,59.58578643763));
#340 = DIRECTION('',(-1.,0.,0.));
#341 = DIRECTION('',(0.,0.,1.));
#342 = ORIENTED_EDGE('',*,*,#343,.F.);
#343 = EDGE_CURVE('',#344,#335,#346,.T.);
#344 = VERTEX_POINT('',#345);
#345 = CARTESIAN_POINT('',(-59.,13.842893218814,63.292893218815));
#346 = LINE('',#347,#348);
#347 = CARTESIAN_POINT('',(-59.,15.550000000001,65.));
#348 = VECTOR('',#349,1.);
#349 = DIRECTION('',(0.,-0.707106781187,-0.707106781186));
#350 = ORIENTED_EDGE('',*,*,#351,.F.);
#351 = EDGE_CURVE('',#352,#344,#354,.T.);
#352 = VERTEX_POINT('',#353);
#353 = CARTESIAN_POINT('',(-59.,15.550000000001,62.585786437628));
#354 = CIRCLE('',#355,1.);
#355 = AXIS2_PLACEMENT_3D('',#356,#357,#358);
#356 = CARTESIAN_POINT('',(-59.,14.550000000001,62.585786437628));
#357 = DIRECTION('',(1.,0.,-0.));
#358 = DIRECTION('',(0.,0.,1.));
#359 = ORIENTED_EDGE('',*,*,#360,.F.);
#360 = EDGE_CURVE('',#361,#352,#363,.T.);
#361 = VERTEX_POINT('',#362);
#362 = CARTESIAN_POINT('',(-59.,15.550000000001,1.));
#363 = LINE('',#364,#365);
#364 = CARTESIAN_POINT('',(-59.,15.550000000001,2.267560201166E-14));
#365 = VECTOR('',#366,1.);
#366 = DIRECTION('',(0.,0.,1.));
#367 = ORIENTED_EDGE('',*,*,#368,.F.);
#368 = EDGE_CURVE('',#369,#361,#371,.T.);
#369 = VERTEX_POINT('',#370);
#370 = CARTESIAN_POINT('',(-59.,21.1,1.));
#371 = LINE('',#372,#373);
#372 = CARTESIAN_POINT('',(-59.,21.1,1.));
#373 = VECTOR('',#374,1.);
#374 = DIRECTION('',(0.,-1.,0.));
#375 = ORIENTED_EDGE('',*,*,#376,.F.);
#376 = EDGE_CURVE('',#377,#369,#379,.T.);
#377 = VERTEX_POINT('',#378);
#378 = CARTESIAN_POINT('',(-59.,21.1,39.58578643763));
#379 = LINE('',#380,#381);
#380 = CARTESIAN_POINT('',(-59.,21.1,40.000000000003));
#381 = VECTOR('',#382,1.);
#382 = DIRECTION('',(0.,0.,-1.));
#383 = ORIENTED_EDGE('',*,*,#384,.T.);
#384 = EDGE_CURVE('',#377,#385,#387,.T.);
#385 = VERTEX_POINT('',#386);
#386 = CARTESIAN_POINT('',(-59.,21.392893218814,40.292893218816));
#387 = CIRCLE('',#388,1.);
#388 = AXIS2_PLACEMENT_3D('',#389,#390,#391);
#389 = CARTESIAN_POINT('',(-59.,22.1,39.58578643763));
#390 = DIRECTION('',(-1.,0.,0.));
#391 = DIRECTION('',(0.,0.,1.));
#392 = ORIENTED_EDGE('',*,*,#393,.F.);
#393 = EDGE_CURVE('',#394,#385,#396,.T.);
#394 = VERTEX_POINT('',#395);
#395 = CARTESIAN_POINT('',(-59.,24.392893218815,43.292893218815));
#396 = LINE('',#397,#398);
#397 = CARTESIAN_POINT('',(-59.,26.100000000001,45.));
#398 = VECTOR('',#399,1.);
#399 = DIRECTION('',(0.,-0.707106781187,-0.707106781186));
#400 = ORIENTED_EDGE('',*,*,#401,.F.);
#401 = EDGE_CURVE('',#402,#394,#404,.T.);
#402 = VERTEX_POINT('',#403);
#403 = CARTESIAN_POINT('',(-59.,26.100000000001,42.585786437628));
#404 = CIRCLE('',#405,1.);
#405 = AXIS2_PLACEMENT_3D('',#406,#407,#408);
#406 = CARTESIAN_POINT('',(-59.,25.100000000001,42.585786437628));
#407 = DIRECTION('',(1.,0.,-0.));
#408 = DIRECTION('',(0.,0.,1.));
#409 = ORIENTED_EDGE('',*,*,#410,.F.);
#410 = EDGE_CURVE('',#411,#402,#413,.T.);
#411 = VERTEX_POINT('',#412);
#412 = CARTESIAN_POINT('',(-59.,26.100000000001,1.));
#413 = LINE('',#414,#415);
#414 = CARTESIAN_POINT('',(-59.,26.100000000001,0.));
#415 = VECTOR('',#416,1.);
#416 = DIRECTION('',(0.,0.,1.));
#417 = ORIENTED_EDGE('',*,*,#418,.F.);
#418 = EDGE_CURVE('',#419,#411,#421,.T.);
#419 = VERTEX_POINT('',#420);
#420 = CARTESIAN_POINT('',(-59.,31.650000000001,1.));
#421 = LINE('',#422,#423);
#422 = CARTESIAN_POINT('',(-59.,31.650000000001,1.));
#423 = VECTOR('',#424,1.);
#424 = DIRECTION('',(0.,-1.,0.));
#425 = ORIENTED_EDGE('',*,*,#426,.F.);
#426 = EDGE_CURVE('',#427,#419,#429,.T.);
#427 = VERTEX_POINT('',#428);
#428 = CARTESIAN_POINT('',(-59.,31.650000000001,19.585786437631));
#429 = LINE('',#430,#431);
#430 = CARTESIAN_POINT('',(-59.,31.650000000001,20.000000000004));
#431 = VECTOR('',#432,1.);
#432 = DIRECTION('',(0.,0.,-1.));
#433 = ORIENTED_EDGE('',*,*,#434,.T.);
#434 = EDGE_CURVE('',#427,#435,#437,.T.);
#435 = VERTEX_POINT('',#436);
#436 = CARTESIAN_POINT('',(-59.,31.942893218814,20.292893218817));
#437 = CIRCLE('',#438,1.);
#438 = AXIS2_PLACEMENT_3D('',#439,#440,#441);
#439 = CARTESIAN_POINT('',(-59.,32.650000000001,19.585786437631));
#440 = DIRECTION('',(-1.,0.,0.));
#441 = DIRECTION('',(0.,0.,1.));
#442 = ORIENTED_EDGE('',*,*,#443,.F.);
#443 = EDGE_CURVE('',#444,#435,#446,.T.);
#444 = VERTEX_POINT('',#445);
#445 = CARTESIAN_POINT('',(-59.,34.942893218814,23.292893218816));
#446 = LINE('',#447,#448);
#447 = CARTESIAN_POINT('',(-59.,36.650000000001,25.000000000002));
#448 = VECTOR('',#449,1.);
#449 = DIRECTION('',(0.,-0.707106781187,-0.707106781186));
#450 = ORIENTED_EDGE('',*,*,#451,.F.);
#451 = EDGE_CURVE('',#272,#444,#452,.T.);
#452 = CIRCLE('',#453,1.);
#453 = AXIS2_PLACEMENT_3D('',#454,#455,#456);
#454 = CARTESIAN_POINT('',(-59.,35.650000000001,22.58578643763));
#455 = DIRECTION('',(1.,0.,-0.));
#456 = DIRECTION('',(0.,0.,1.));
#457 = PLANE('',#458);
#458 = AXIS2_PLACEMENT_3D('',#459,#460,#461);
#459 = CARTESIAN_POINT('',(-59.,23.728982080945,35.006293617005));
#460 = DIRECTION('',(1.,2.301763417227E-16,0.));
#461 = DIRECTION('',(-2.301763417227E-16,1.,0.));
#462 = ADVANCED_FACE('',(#463),#488,.T.);
#463 = FACE_BOUND('',#464,.F.);
#464 = EDGE_LOOP('',(#465,#473,#474,#482));
#465 = ORIENTED_EDGE('',*,*,#466,.F.);
#466 = EDGE_CURVE('',#114,#467,#469,.T.);
#467 = VERTEX_POINT('',#468);
#468 = CARTESIAN_POINT('',(60.,4.,-4.107825191113E-15));
#469 = LINE('',#470,#471);
#470 = CARTESIAN_POINT('',(59.333333333333,4.666666666667,0.666666666667
    ));
#471 = VECTOR('',#472,1.);
#472 = DIRECTION('',(0.57735026919,-0.57735026919,-0.57735026919));
#473 = ORIENTED_EDGE('',*,*,#121,.T.);
#474 = ORIENTED_EDGE('',*,*,#475,.T.);
#475 = EDGE_CURVE('',#82,#476,#478,.T.);
#476 = VERTEX_POINT('',#477);
#477 = CARTESIAN_POINT('',(-60.,4.,-3.330669073875E-16));
#478 = LINE('',#479,#480);
#479 = CARTESIAN_POINT('',(-38.74166666666,25.258333333333,
    21.258333333333));
#480 = VECTOR('',#481,1.);
#481 = DIRECTION('',(-0.57735026919,-0.57735026919,-0.57735026919));
#482 = ORIENTED_EDGE('',*,*,#483,.F.);
#483 = EDGE_CURVE('',#467,#476,#484,.T.);
#484 = LINE('',#485,#486);
#485 = CARTESIAN_POINT('',(59.,4.,0.));
#486 = VECTOR('',#487,1.);
#487 = DIRECTION('',(-1.,0.,0.));
#488 = PLANE('',#489);
#489 = AXIS2_PLACEMENT_3D('',#490,#491,#492);
#490 = CARTESIAN_POINT('',(59.,4.5,0.5));
#491 = DIRECTION('',(0.,0.707106781187,-0.707106781187));
#492 = DIRECTION('',(1.,0.,0.));
#493 = ADVANCED_FACE('',(#494),#512,.T.);
#494 = FACE_BOUND('',#495,.F.);
#495 = EDGE_LOOP('',(#496,#497,#505,#511));
#496 = ORIENTED_EDGE('',*,*,#89,.F.);
#497 = ORIENTED_EDGE('',*,*,#498,.T.);
#498 = EDGE_CURVE('',#90,#499,#501,.T.);
#499 = VERTEX_POINT('',#500);
#500 = CARTESIAN_POINT('',(-59.9,42.421852144638,70.));
#501 = LINE('',#502,#503);
#502 = CARTESIAN_POINT('',(-59.9,5.,70.));
#503 = VECTOR('',#504,1.);
#504 = DIRECTION('',(0.,1.,0.));
#505 = ORIENTED_EDGE('',*,*,#506,.T.);
#506 = EDGE_CURVE('',#499,#304,#507,.T.);
#507 = LINE('',#508,#509);
#508 = CARTESIAN_POINT('',(-59.95548670384,42.418849743602,
    70.055486703844));
#509 = VECTOR('',#510,1.);
#510 = DIRECTION('',(0.706589760361,3.823376919875E-02,-0.706589760361)
  );
#511 = ORIENTED_EDGE('',*,*,#311,.F.);
#512 = PLANE('',#513);
#513 = AXIS2_PLACEMENT_3D('',#514,#515,#516);
#514 = CARTESIAN_POINT('',(-59.45,5.,69.55));
#515 = DIRECTION('',(0.707106781187,4.896411197623E-16,0.707106781187));
#516 = DIRECTION('',(3.462285561317E-16,-1.,3.462285561317E-16));
#517 = ADVANCED_FACE('',(#518),#709,.T.);
#518 = FACE_BOUND('',#519,.T.);
#519 = EDGE_LOOP('',(#520,#530,#536,#537,#545,#553,#561,#569,#577,#585,
    #594,#602,#611,#619,#627,#635,#644,#652,#661,#669,#677,#685,#694,
    #702));
#520 = ORIENTED_EDGE('',*,*,#521,.F.);
#521 = EDGE_CURVE('',#522,#524,#526,.T.);
#522 = VERTEX_POINT('',#523);
#523 = CARTESIAN_POINT('',(59.,10.549999999999,1.));
#524 = VERTEX_POINT('',#525);
#525 = CARTESIAN_POINT('',(59.,10.549999999999,59.58578643763));
#526 = LINE('',#527,#528);
#527 = CARTESIAN_POINT('',(59.,10.549999999999,47.503146808504));
#528 = VECTOR('',#529,1.);
#529 = DIRECTION('',(0.,0.,1.));
#530 = ORIENTED_EDGE('',*,*,#531,.F.);
#531 = EDGE_CURVE('',#114,#522,#532,.T.);
#532 = LINE('',#533,#534);
#533 = CARTESIAN_POINT('',(59.,5.,1.));
#534 = VECTOR('',#535,1.);
#535 = DIRECTION('',(0.,1.,0.));
#536 = ORIENTED_EDGE('',*,*,#113,.T.);
#537 = ORIENTED_EDGE('',*,*,#538,.F.);
#538 = EDGE_CURVE('',#539,#106,#541,.T.);
#539 = VERTEX_POINT('',#540);
#540 = CARTESIAN_POINT('',(59.,42.470551395899,69.1));
#541 = LINE('',#542,#543);
#542 = CARTESIAN_POINT('',(59.,42.470551395899,69.1));
#543 = VECTOR('',#544,1.);
#544 = DIRECTION('',(0.,-1.,0.));
#545 = ORIENTED_EDGE('',*,*,#546,.T.);
#546 = EDGE_CURVE('',#539,#547,#549,.T.);
#547 = VERTEX_POINT('',#548);
#548 = CARTESIAN_POINT('',(59.,42.470551395899,14.999999999999));
#549 = LINE('',#550,#551);
#550 = CARTESIAN_POINT('',(59.,42.470551395899,0.));
#551 = VECTOR('',#552,1.);
#552 = DIRECTION('',(0.,0.,-1.));
#553 = ORIENTED_EDGE('',*,*,#554,.T.);
#554 = EDGE_CURVE('',#547,#555,#557,.T.);
#555 = VERTEX_POINT('',#556);
#556 = CARTESIAN_POINT('',(59.,42.2,15.));
#557 = LINE('',#558,#559);
#558 = CARTESIAN_POINT('',(59.,32.964491040473,15.));
#559 = VECTOR('',#560,1.);
#560 = DIRECTION('',(0.,-1.,0.));
#561 = ORIENTED_EDGE('',*,*,#562,.T.);
#562 = EDGE_CURVE('',#555,#563,#565,.T.);
#563 = VERTEX_POINT('',#564);
#564 = CARTESIAN_POINT('',(59.,42.2,1.));
#565 = LINE('',#566,#567);
#566 = CARTESIAN_POINT('',(59.,42.2,20.003146808502));
#567 = VECTOR('',#568,1.);
#568 = DIRECTION('',(0.,0.,-1.));
#569 = ORIENTED_EDGE('',*,*,#570,.F.);
#570 = EDGE_CURVE('',#571,#563,#573,.T.);
#571 = VERTEX_POINT('',#572);
#572 = CARTESIAN_POINT('',(59.,36.650000000001,1.));
#573 = LINE('',#574,#575);
#574 = CARTESIAN_POINT('',(59.,36.650000000001,1.));
#575 = VECTOR('',#576,1.);
#576 = DIRECTION('',(0.,1.,0.));
#577 = ORIENTED_EDGE('',*,*,#578,.F.);
#578 = EDGE_CURVE('',#579,#571,#581,.T.);
#579 = VERTEX_POINT('',#580);
#580 = CARTESIAN_POINT('',(59.,36.650000000001,22.58578643763));
#581 = LINE('',#582,#583);
#582 = CARTESIAN_POINT('',(59.,36.650000000001,17.503146808502));
#583 = VECTOR('',#584,1.);
#584 = DIRECTION('',(0.,0.,-1.));
#585 = ORIENTED_EDGE('',*,*,#586,.T.);
#586 = EDGE_CURVE('',#579,#587,#589,.T.);
#587 = VERTEX_POINT('',#588);
#588 = CARTESIAN_POINT('',(59.,34.942893218814,23.292893218816));
#589 = CIRCLE('',#590,1.);
#590 = AXIS2_PLACEMENT_3D('',#591,#592,#593);
#591 = CARTESIAN_POINT('',(59.,35.650000000001,22.58578643763));
#592 = DIRECTION('',(1.,0.,-0.));
#593 = DIRECTION('',(0.,0.,1.));
#594 = ORIENTED_EDGE('',*,*,#595,.F.);
#595 = EDGE_CURVE('',#596,#587,#598,.T.);
#596 = VERTEX_POINT('',#597);
#597 = CARTESIAN_POINT('',(59.,31.942893218814,20.292893218817));
#598 = LINE('',#599,#600);
#599 = CARTESIAN_POINT('',(59.,35.921318924486,24.271318924488));
#600 = VECTOR('',#601,1.);
#601 = DIRECTION('',(0.,0.707106781187,0.707106781186));
#602 = ORIENTED_EDGE('',*,*,#603,.F.);
#603 = EDGE_CURVE('',#604,#596,#606,.T.);
#604 = VERTEX_POINT('',#605);
#605 = CARTESIAN_POINT('',(59.,31.650000000001,19.585786437631));
#606 = CIRCLE('',#607,1.);
#607 = AXIS2_PLACEMENT_3D('',#608,#609,#610);
#608 = CARTESIAN_POINT('',(59.,32.650000000001,19.585786437631));
#609 = DIRECTION('',(-1.,0.,0.));
#610 = DIRECTION('',(0.,0.,1.));
#611 = ORIENTED_EDGE('',*,*,#612,.F.);
#612 = EDGE_CURVE('',#613,#604,#615,.T.);
#613 = VERTEX_POINT('',#614);
#614 = CARTESIAN_POINT('',(59.,31.650000000001,1.));
#615 = LINE('',#616,#617);
#616 = CARTESIAN_POINT('',(59.,31.650000000001,27.503146808504));
#617 = VECTOR('',#618,1.);
#618 = DIRECTION('',(0.,0.,1.));
#619 = ORIENTED_EDGE('',*,*,#620,.F.);
#620 = EDGE_CURVE('',#621,#613,#623,.T.);
#621 = VERTEX_POINT('',#622);
#622 = CARTESIAN_POINT('',(59.,26.100000000001,1.));
#623 = LINE('',#624,#625);
#624 = CARTESIAN_POINT('',(59.,26.100000000001,1.));
#625 = VECTOR('',#626,1.);
#626 = DIRECTION('',(0.,1.,0.));
#627 = ORIENTED_EDGE('',*,*,#628,.F.);
#628 = EDGE_CURVE('',#629,#621,#631,.T.);
#629 = VERTEX_POINT('',#630);
#630 = CARTESIAN_POINT('',(59.,26.100000000001,42.585786437628));
#631 = LINE('',#632,#633);
#632 = CARTESIAN_POINT('',(59.,26.100000000001,17.503146808502));
#633 = VECTOR('',#634,1.);
#634 = DIRECTION('',(0.,0.,-1.));
#635 = ORIENTED_EDGE('',*,*,#636,.T.);
#636 = EDGE_CURVE('',#629,#637,#639,.T.);
#637 = VERTEX_POINT('',#638);
#638 = CARTESIAN_POINT('',(59.,24.392893218815,43.292893218815));
#639 = CIRCLE('',#640,1.);
#640 = AXIS2_PLACEMENT_3D('',#641,#642,#643);
#641 = CARTESIAN_POINT('',(59.,25.100000000001,42.585786437628));
#642 = DIRECTION('',(1.,0.,-0.));
#643 = DIRECTION('',(0.,0.,1.));
#644 = ORIENTED_EDGE('',*,*,#645,.F.);
#645 = EDGE_CURVE('',#646,#637,#648,.T.);
#646 = VERTEX_POINT('',#647);
#647 = CARTESIAN_POINT('',(59.,21.392893218814,40.292893218816));
#648 = LINE('',#649,#650);
#649 = CARTESIAN_POINT('',(59.,23.008818924488,41.908818924489));
#650 = VECTOR('',#651,1.);
#651 = DIRECTION('',(0.,0.707106781187,0.707106781186));
#652 = ORIENTED_EDGE('',*,*,#653,.F.);
#653 = EDGE_CURVE('',#654,#646,#656,.T.);
#654 = VERTEX_POINT('',#655);
#655 = CARTESIAN_POINT('',(59.,21.1,39.58578643763));
#656 = CIRCLE('',#657,1.);
#657 = AXIS2_PLACEMENT_3D('',#658,#659,#660);
#658 = CARTESIAN_POINT('',(59.,22.1,39.58578643763));
#659 = DIRECTION('',(-1.,0.,0.));
#660 = DIRECTION('',(0.,0.,1.));
#661 = ORIENTED_EDGE('',*,*,#662,.F.);
#662 = EDGE_CURVE('',#663,#654,#665,.T.);
#663 = VERTEX_POINT('',#664);
#664 = CARTESIAN_POINT('',(59.,21.1,1.));
#665 = LINE('',#666,#667);
#666 = CARTESIAN_POINT('',(59.,21.1,37.503146808504));
#667 = VECTOR('',#668,1.);
#668 = DIRECTION('',(0.,0.,1.));
#669 = ORIENTED_EDGE('',*,*,#670,.F.);
#670 = EDGE_CURVE('',#671,#663,#673,.T.);
#671 = VERTEX_POINT('',#672);
#672 = CARTESIAN_POINT('',(59.,15.550000000001,1.));
#673 = LINE('',#674,#675);
#674 = CARTESIAN_POINT('',(59.,15.550000000001,1.));
#675 = VECTOR('',#676,1.);
#676 = DIRECTION('',(0.,1.,0.));
#677 = ORIENTED_EDGE('',*,*,#678,.F.);
#678 = EDGE_CURVE('',#679,#671,#681,.T.);
#679 = VERTEX_POINT('',#680);
#680 = CARTESIAN_POINT('',(59.,15.550000000001,62.585786437628));
#681 = LINE('',#682,#683);
#682 = CARTESIAN_POINT('',(59.,15.550000000001,17.503146808502));
#683 = VECTOR('',#684,1.);
#684 = DIRECTION('',(0.,0.,-1.));
#685 = ORIENTED_EDGE('',*,*,#686,.T.);
#686 = EDGE_CURVE('',#679,#687,#689,.T.);
#687 = VERTEX_POINT('',#688);
#688 = CARTESIAN_POINT('',(59.,13.842893218814,63.292893218815));
#689 = CIRCLE('',#690,1.);
#690 = AXIS2_PLACEMENT_3D('',#691,#692,#693);
#691 = CARTESIAN_POINT('',(59.,14.550000000001,62.585786437628));
#692 = DIRECTION('',(1.,0.,-0.));
#693 = DIRECTION('',(0.,0.,1.));
#694 = ORIENTED_EDGE('',*,*,#695,.F.);
#695 = EDGE_CURVE('',#696,#687,#698,.T.);
#696 = VERTEX_POINT('',#697);
#697 = CARTESIAN_POINT('',(59.,10.842893218813,60.292893218817));
#698 = LINE('',#699,#700);
#699 = CARTESIAN_POINT('',(59.,10.09631892449,59.546318924493));
#700 = VECTOR('',#701,1.);
#701 = DIRECTION('',(0.,0.707106781187,0.707106781186));
#702 = ORIENTED_EDGE('',*,*,#703,.F.);
#703 = EDGE_CURVE('',#524,#696,#704,.T.);
#704 = CIRCLE('',#705,1.);
#705 = AXIS2_PLACEMENT_3D('',#706,#707,#708);
#706 = CARTESIAN_POINT('',(59.,11.549999999999,59.58578643763));
#707 = DIRECTION('',(-1.,0.,0.));
#708 = DIRECTION('',(0.,0.,1.));
#709 = PLANE('',#710);
#710 = AXIS2_PLACEMENT_3D('',#711,#712,#713);
#711 = CARTESIAN_POINT('',(59.,23.728982080945,35.006293617004));
#712 = DIRECTION('',(-1.,-0.,-0.));
#713 = DIRECTION('',(0.,0.,-1.));
#714 = ADVANCED_FACE('',(#715),#781,.T.);
#715 = FACE_BOUND('',#716,.T.);
#716 = EDGE_LOOP('',(#717,#727,#735,#743,#751,#757,#758,#759,#767,#775)
  );
#717 = ORIENTED_EDGE('',*,*,#718,.F.);
#718 = EDGE_CURVE('',#719,#721,#723,.T.);
#719 = VERTEX_POINT('',#720);
#720 = CARTESIAN_POINT('',(64.,4.499999999959,70.));
#721 = VERTEX_POINT('',#722);
#722 = CARTESIAN_POINT('',(-64.,4.499999999959,70.));
#723 = LINE('',#724,#725);
#724 = CARTESIAN_POINT('',(64.,4.499999999959,70.));
#725 = VECTOR('',#726,1.);
#726 = DIRECTION('',(-1.,-0.,-0.));
#727 = ORIENTED_EDGE('',*,*,#728,.T.);
#728 = EDGE_CURVE('',#719,#729,#731,.T.);
#729 = VERTEX_POINT('',#730);
#730 = CARTESIAN_POINT('',(64.,47.579434282938,70.));
#731 = LINE('',#732,#733);
#732 = CARTESIAN_POINT('',(64.,0.,70.));
#733 = VECTOR('',#734,1.);
#734 = DIRECTION('',(0.,1.,0.));
#735 = ORIENTED_EDGE('',*,*,#736,.F.);
#736 = EDGE_CURVE('',#737,#729,#739,.T.);
#737 = VERTEX_POINT('',#738);
#738 = CARTESIAN_POINT('',(60.4597954564,47.579434282939,70.));
#739 = LINE('',#740,#741);
#740 = CARTESIAN_POINT('',(-32.29193746112,47.579434282939,70.));
#741 = VECTOR('',#742,1.);
#742 = DIRECTION('',(1.,-1.815306863231E-15,0.));
#743 = ORIENTED_EDGE('',*,*,#744,.T.);
#744 = EDGE_CURVE('',#737,#745,#747,.T.);
#745 = VERTEX_POINT('',#746);
#746 = CARTESIAN_POINT('',(59.9,42.421852144637,70.));
#747 = LINE('',#748,#749);
#748 = CARTESIAN_POINT('',(73.120186773748,164.22383962009,70.));
#749 = VECTOR('',#750,1.);
#750 = DIRECTION('',(-0.107904622009,-0.994161250778,0.));
#751 = ORIENTED_EDGE('',*,*,#752,.T.);
#752 = EDGE_CURVE('',#745,#98,#753,.T.);
#753 = LINE('',#754,#755);
#754 = CARTESIAN_POINT('',(59.9,42.470551395899,70.));
#755 = VECTOR('',#756,1.);
#756 = DIRECTION('',(0.,-1.,0.));
#757 = ORIENTED_EDGE('',*,*,#97,.F.);
#758 = ORIENTED_EDGE('',*,*,#498,.T.);
#759 = ORIENTED_EDGE('',*,*,#760,.T.);
#760 = EDGE_CURVE('',#499,#761,#763,.T.);
#761 = VERTEX_POINT('',#762);
#762 = CARTESIAN_POINT('',(-60.4597954564,47.579434282939,70.));
#763 = LINE('',#764,#765);
#764 = CARTESIAN_POINT('',(-59.8947451257,42.373437236091,70.));
#765 = VECTOR('',#766,1.);
#766 = DIRECTION('',(-0.107904622009,0.994161250778,0.));
#767 = ORIENTED_EDGE('',*,*,#768,.F.);
#768 = EDGE_CURVE('',#769,#761,#771,.T.);
#769 = VERTEX_POINT('',#770);
#770 = CARTESIAN_POINT('',(-64.,47.579434282939,70.));
#771 = LINE('',#772,#773);
#772 = CARTESIAN_POINT('',(-32.29193746112,47.579434282939,70.));
#773 = VECTOR('',#774,1.);
#774 = DIRECTION('',(1.,-1.815306863231E-15,0.));
#775 = ORIENTED_EDGE('',*,*,#776,.F.);
#776 = EDGE_CURVE('',#721,#769,#777,.T.);
#777 = LINE('',#778,#779);
#778 = CARTESIAN_POINT('',(-64.,68.31301149367,70.));
#779 = VECTOR('',#780,1.);
#780 = DIRECTION('',(0.,1.,0.));
#781 = PLANE('',#782);
#782 = AXIS2_PLACEMENT_3D('',#783,#784,#785);
#783 = CARTESIAN_POINT('',(1.402624936558E-15,94.426022987339,70.));
#784 = DIRECTION('',(0.,0.,1.));
#785 = DIRECTION('',(1.,0.,0.));
#786 = ADVANCED_FACE('',(#787),#798,.T.);
#787 = FACE_BOUND('',#788,.F.);
#788 = EDGE_LOOP('',(#789,#795,#796,#797));
#789 = ORIENTED_EDGE('',*,*,#790,.F.);
#790 = EDGE_CURVE('',#745,#539,#791,.T.);
#791 = LINE('',#792,#793);
#792 = CARTESIAN_POINT('',(61.104939040228,42.356652556775,
    71.204939040228));
#793 = VECTOR('',#794,1.);
#794 = DIRECTION('',(-0.706589760361,3.823376919869E-02,-0.706589760361)
  );
#795 = ORIENTED_EDGE('',*,*,#752,.T.);
#796 = ORIENTED_EDGE('',*,*,#105,.T.);
#797 = ORIENTED_EDGE('',*,*,#538,.F.);
#798 = PLANE('',#799);
#799 = AXIS2_PLACEMENT_3D('',#800,#801,#802);
#800 = CARTESIAN_POINT('',(59.45,42.470551395899,69.55));
#801 = DIRECTION('',(-0.707106781187,1.398974627892E-17,0.707106781187)
  );
#802 = DIRECTION('',(9.892244460906E-18,1.,-9.892244460905E-18));
#803 = ADVANCED_FACE('',(#804),#823,.F.);
#804 = FACE_BOUND('',#805,.F.);
#805 = EDGE_LOOP('',(#806,#814,#821,#822));
#806 = ORIENTED_EDGE('',*,*,#807,.F.);
#807 = EDGE_CURVE('',#808,#133,#810,.T.);
#808 = VERTEX_POINT('',#809);
#809 = CARTESIAN_POINT('',(-42.2,1.,54.1));
#810 = LINE('',#811,#812);
#811 = CARTESIAN_POINT('',(-42.2,1.201261312644E-14,54.1));
#812 = VECTOR('',#813,1.);
#813 = DIRECTION('',(0.,1.,-2.22044604925E-16));
#814 = ORIENTED_EDGE('',*,*,#815,.F.);
#815 = EDGE_CURVE('',#808,#808,#816,.T.);
#816 = CIRCLE('',#817,1.8);
#817 = AXIS2_PLACEMENT_3D('',#818,#819,#820);
#818 = CARTESIAN_POINT('',(-44.,1.,54.1));
#819 = DIRECTION('',(0.,-1.,0.));
#820 = DIRECTION('',(1.,0.,0.));
#821 = ORIENTED_EDGE('',*,*,#807,.T.);
#822 = ORIENTED_EDGE('',*,*,#132,.T.);
#823 = CYLINDRICAL_SURFACE('',#824,1.8);
#824 = AXIS2_PLACEMENT_3D('',#825,#826,#827);
#825 = CARTESIAN_POINT('',(-44.,1.201261312644E-14,54.1));
#826 = DIRECTION('',(0.,-1.,2.22044604925E-16));
#827 = DIRECTION('',(1.,0.,0.));
#828 = ADVANCED_FACE('',(#829),#848,.F.);
#829 = FACE_BOUND('',#830,.F.);
#830 = EDGE_LOOP('',(#831,#839,#846,#847));
#831 = ORIENTED_EDGE('',*,*,#832,.F.);
#832 = EDGE_CURVE('',#833,#144,#835,.T.);
#833 = VERTEX_POINT('',#834);
#834 = CARTESIAN_POINT('',(45.8,1.,15.99999999987));
#835 = LINE('',#836,#837);
#836 = CARTESIAN_POINT('',(45.8,3.552713678772E-15,15.99999999987));
#837 = VECTOR('',#838,1.);
#838 = DIRECTION('',(0.,1.,-2.22044604925E-16));
#839 = ORIENTED_EDGE('',*,*,#840,.F.);
#840 = EDGE_CURVE('',#833,#833,#841,.T.);
#841 = CIRCLE('',#842,1.8);
#842 = AXIS2_PLACEMENT_3D('',#843,#844,#845);
#843 = CARTESIAN_POINT('',(44.,1.,15.99999999987));
#844 = DIRECTION('',(0.,-1.,0.));
#845 = DIRECTION('',(1.,0.,0.));
#846 = ORIENTED_EDGE('',*,*,#832,.T.);
#847 = ORIENTED_EDGE('',*,*,#143,.T.);
#848 = CYLINDRICAL_SURFACE('',#849,1.8);
#849 = AXIS2_PLACEMENT_3D('',#850,#851,#852);
#850 = CARTESIAN_POINT('',(44.,3.552713678772E-15,15.99999999987));
#851 = DIRECTION('',(0.,-1.,2.22044604925E-16));
#852 = DIRECTION('',(1.,0.,0.));
#853 = ADVANCED_FACE('',(#854),#873,.F.);
#854 = FACE_BOUND('',#855,.F.);
#855 = EDGE_LOOP('',(#856,#864,#871,#872));
#856 = ORIENTED_EDGE('',*,*,#857,.F.);
#857 = EDGE_CURVE('',#858,#155,#860,.T.);
#858 = VERTEX_POINT('',#859);
#859 = CARTESIAN_POINT('',(1.8,1.,35.05));
#860 = LINE('',#861,#862);
#861 = CARTESIAN_POINT('',(1.8,7.782663402622E-15,35.05));
#862 = VECTOR('',#863,1.);
#863 = DIRECTION('',(0.,1.,-2.22044604925E-16));
#864 = ORIENTED_EDGE('',*,*,#865,.F.);
#865 = EDGE_CURVE('',#858,#858,#866,.T.);
#866 = CIRCLE('',#867,1.8);
#867 = AXIS2_PLACEMENT_3D('',#868,#869,#870);
#868 = CARTESIAN_POINT('',(0.,1.,35.05));
#869 = DIRECTION('',(0.,-1.,0.));
#870 = DIRECTION('',(1.,0.,0.));
#871 = ORIENTED_EDGE('',*,*,#857,.T.);
#872 = ORIENTED_EDGE('',*,*,#154,.T.);
#873 = CYLINDRICAL_SURFACE('',#874,1.8);
#874 = AXIS2_PLACEMENT_3D('',#875,#876,#877);
#875 = CARTESIAN_POINT('',(0.,7.782663402622E-15,35.05));
#876 = DIRECTION('',(0.,-1.,2.22044604925E-16));
#877 = DIRECTION('',(1.,0.,0.));
#878 = ADVANCED_FACE('',(#879),#898,.F.);
#879 = FACE_BOUND('',#880,.F.);
#880 = EDGE_LOOP('',(#881,#889,#896,#897));
#881 = ORIENTED_EDGE('',*,*,#882,.F.);
#882 = EDGE_CURVE('',#883,#166,#885,.T.);
#883 = VERTEX_POINT('',#884);
#884 = CARTESIAN_POINT('',(45.8,1.,54.1));
#885 = LINE('',#886,#887);
#886 = CARTESIAN_POINT('',(45.8,1.201261312644E-14,54.1));
#887 = VECTOR('',#888,1.);
#888 = DIRECTION('',(0.,1.,-2.22044604925E-16));
#889 = ORIENTED_EDGE('',*,*,#890,.F.);
#890 = EDGE_CURVE('',#883,#883,#891,.T.);
#891 = CIRCLE('',#892,1.8);
#892 = AXIS2_PLACEMENT_3D('',#893,#894,#895);
#893 = CARTESIAN_POINT('',(44.,1.,54.1));
#894 = DIRECTION('',(0.,-1.,0.));
#895 = DIRECTION('',(1.,0.,0.));
#896 = ORIENTED_EDGE('',*,*,#882,.T.);
#897 = ORIENTED_EDGE('',*,*,#165,.T.);
#898 = CYLINDRICAL_SURFACE('',#899,1.8);
#899 = AXIS2_PLACEMENT_3D('',#900,#901,#902);
#900 = CARTESIAN_POINT('',(44.,1.201261312644E-14,54.1));
#901 = DIRECTION('',(0.,-1.,2.22044604925E-16));
#902 = DIRECTION('',(1.,0.,0.));
#903 = ADVANCED_FACE('',(#904),#915,.F.);
#904 = FACE_BOUND('',#905,.F.);
#905 = EDGE_LOOP('',(#906,#912,#913,#914));
#906 = ORIENTED_EDGE('',*,*,#907,.F.);
#907 = EDGE_CURVE('',#808,#183,#908,.T.);
#908 = LINE('',#909,#910);
#909 = CARTESIAN_POINT('',(-42.2,1.,54.1));
#910 = VECTOR('',#911,1.);
#911 = DIRECTION('',(0.707106781187,-0.707106781187,0.));
#912 = ORIENTED_EDGE('',*,*,#815,.T.);
#913 = ORIENTED_EDGE('',*,*,#907,.T.);
#914 = ORIENTED_EDGE('',*,*,#182,.F.);
#915 = CONICAL_SURFACE('',#916,1.8,0.785398163397);
#916 = AXIS2_PLACEMENT_3D('',#917,#918,#919);
#917 = CARTESIAN_POINT('',(-44.,1.,54.1));
#918 = DIRECTION('',(0.,-1.,0.));
#919 = DIRECTION('',(1.,0.,0.));
#920 = ADVANCED_FACE('',(#921,#964,#989,#1023,#1057),#1091,.T.);
#921 = FACE_BOUND('',#922,.T.);
#922 = EDGE_LOOP('',(#923,#934,#942,#951,#957,#958));
#923 = ORIENTED_EDGE('',*,*,#924,.T.);
#924 = EDGE_CURVE('',#925,#927,#929,.T.);
#925 = VERTEX_POINT('',#926);
#926 = CARTESIAN_POINT('',(-64.,36.788972082017,0.));
#927 = VERTEX_POINT('',#928);
#928 = CARTESIAN_POINT('',(-64.58387492219,47.579434282939,0.));
#929 = CIRCLE('',#930,100.);
#930 = AXIS2_PLACEMENT_3D('',#931,#932,#933);
#931 = CARTESIAN_POINT('',(-164.,36.788972082017,0.));
#932 = DIRECTION('',(-0.,0.,1.));
#933 = DIRECTION('',(0.,-1.,0.));
#934 = ORIENTED_EDGE('',*,*,#935,.T.);
#935 = EDGE_CURVE('',#927,#936,#938,.T.);
#936 = VERTEX_POINT('',#937);
#937 = CARTESIAN_POINT('',(64.583874922197,47.579434282939,0.));
#938 = LINE('',#939,#940);
#939 = CARTESIAN_POINT('',(-64.58387492224,47.579434282939,0.));
#940 = VECTOR('',#941,1.);
#941 = DIRECTION('',(1.,-1.815306863231E-15,0.));
#942 = ORIENTED_EDGE('',*,*,#943,.F.);
#943 = EDGE_CURVE('',#944,#936,#946,.T.);
#944 = VERTEX_POINT('',#945);
#945 = CARTESIAN_POINT('',(64.,36.788972082017,0.));
#946 = CIRCLE('',#947,100.);
#947 = AXIS2_PLACEMENT_3D('',#948,#949,#950);
#948 = CARTESIAN_POINT('',(164.,36.788972082017,0.));
#949 = DIRECTION('',(-0.,-0.,-1.));
#950 = DIRECTION('',(0.,-1.,0.));
#951 = ORIENTED_EDGE('',*,*,#952,.F.);
#952 = EDGE_CURVE('',#196,#944,#953,.T.);
#953 = LINE('',#954,#955);
#954 = CARTESIAN_POINT('',(64.,0.,0.));
#955 = VECTOR('',#956,1.);
#956 = DIRECTION('',(0.,1.,0.));
#957 = ORIENTED_EDGE('',*,*,#193,.F.);
#958 = ORIENTED_EDGE('',*,*,#959,.F.);
#959 = EDGE_CURVE('',#925,#194,#960,.T.);
#960 = LINE('',#961,#962);
#961 = CARTESIAN_POINT('',(-64.,42.2,0.));
#962 = VECTOR('',#963,1.);
#963 = DIRECTION('',(0.,-1.,0.));
#964 = FACE_BOUND('',#965,.T.);
#965 = EDGE_LOOP('',(#966,#976,#982,#983));
#966 = ORIENTED_EDGE('',*,*,#967,.F.);
#967 = EDGE_CURVE('',#968,#970,#972,.T.);
#968 = VERTEX_POINT('',#969);
#969 = CARTESIAN_POINT('',(-60.,11.549999999999,3.330669073875E-16));
#970 = VERTEX_POINT('',#971);
#971 = CARTESIAN_POINT('',(60.,11.549999999999,3.330669073875E-16));
#972 = LINE('',#973,#974);
#973 = CARTESIAN_POINT('',(-59.,11.549999999999,0.));
#974 = VECTOR('',#975,1.);
#975 = DIRECTION('',(1.,0.,0.));
#976 = ORIENTED_EDGE('',*,*,#977,.T.);
#977 = EDGE_CURVE('',#968,#476,#978,.T.);
#978 = LINE('',#979,#980);
#979 = CARTESIAN_POINT('',(-60.,10.549999999999,0.));
#980 = VECTOR('',#981,1.);
#981 = DIRECTION('',(0.,-1.,0.));
#982 = ORIENTED_EDGE('',*,*,#483,.F.);
#983 = ORIENTED_EDGE('',*,*,#984,.T.);
#984 = EDGE_CURVE('',#467,#970,#985,.T.);
#985 = LINE('',#986,#987);
#986 = CARTESIAN_POINT('',(60.,5.,0.));
#987 = VECTOR('',#988,1.);
#988 = DIRECTION('',(0.,1.,0.));
#989 = FACE_BOUND('',#990,.T.);
#990 = EDGE_LOOP('',(#991,#1001,#1009,#1017));
#991 = ORIENTED_EDGE('',*,*,#992,.T.);
#992 = EDGE_CURVE('',#993,#995,#997,.T.);
#993 = VERTEX_POINT('',#994);
#994 = CARTESIAN_POINT('',(-60.,22.1,-4.107825191113E-15));
#995 = VERTEX_POINT('',#996);
#996 = CARTESIAN_POINT('',(-60.,14.550000000001,-4.107825191113E-15));
#997 = LINE('',#998,#999);
#998 = CARTESIAN_POINT('',(-60.,21.1,0.));
#999 = VECTOR('',#1000,1.);
#1000 = DIRECTION('',(0.,-1.,0.));
#1001 = ORIENTED_EDGE('',*,*,#1002,.T.);
#1002 = EDGE_CURVE('',#995,#1003,#1005,.T.);
#1003 = VERTEX_POINT('',#1004);
#1004 = CARTESIAN_POINT('',(60.,14.550000000001,9.436895709314E-16));
#1005 = LINE('',#1006,#1007);
#1006 = CARTESIAN_POINT('',(-59.,14.550000000001,0.));
#1007 = VECTOR('',#1008,1.);
#1008 = DIRECTION('',(1.,0.,0.));
#1009 = ORIENTED_EDGE('',*,*,#1010,.T.);
#1010 = EDGE_CURVE('',#1003,#1011,#1013,.T.);
#1011 = VERTEX_POINT('',#1012);
#1012 = CARTESIAN_POINT('',(60.,22.1,-3.330669073875E-16));
#1013 = LINE('',#1014,#1015);
#1014 = CARTESIAN_POINT('',(60.,15.550000000001,0.));
#1015 = VECTOR('',#1016,1.);
#1016 = DIRECTION('',(0.,1.,0.));
#1017 = ORIENTED_EDGE('',*,*,#1018,.F.);
#1018 = EDGE_CURVE('',#993,#1011,#1019,.T.);
#1019 = LINE('',#1020,#1021);
#1020 = CARTESIAN_POINT('',(-59.,22.1,0.));
#1021 = VECTOR('',#1022,1.);
#1022 = DIRECTION('',(1.,0.,0.));
#1023 = FACE_BOUND('',#1024,.T.);
#1024 = EDGE_LOOP('',(#1025,#1035,#1043,#1051));
#1025 = ORIENTED_EDGE('',*,*,#1026,.T.);
#1026 = EDGE_CURVE('',#1027,#1029,#1031,.T.);
#1027 = VERTEX_POINT('',#1028);
#1028 = CARTESIAN_POINT('',(-60.,25.100000000001,9.436895709314E-16));
#1029 = VERTEX_POINT('',#1030);
#1030 = CARTESIAN_POINT('',(60.,25.100000000001,9.436895709314E-16));
#1031 = LINE('',#1032,#1033);
#1032 = CARTESIAN_POINT('',(-59.,25.100000000001,0.));
#1033 = VECTOR('',#1034,1.);
#1034 = DIRECTION('',(1.,0.,0.));
#1035 = ORIENTED_EDGE('',*,*,#1036,.T.);
#1036 = EDGE_CURVE('',#1029,#1037,#1039,.T.);
#1037 = VERTEX_POINT('',#1038);
#1038 = CARTESIAN_POINT('',(60.,32.650000000001,-1.554312234475E-15));
#1039 = LINE('',#1040,#1041);
#1040 = CARTESIAN_POINT('',(60.,26.100000000001,0.));
#1041 = VECTOR('',#1042,1.);
#1042 = DIRECTION('',(0.,1.,0.));
#1043 = ORIENTED_EDGE('',*,*,#1044,.F.);
#1044 = EDGE_CURVE('',#1045,#1037,#1047,.T.);
#1045 = VERTEX_POINT('',#1046);
#1046 = CARTESIAN_POINT('',(-60.,32.650000000001,-4.107825191113E-15));
#1047 = LINE('',#1048,#1049);
#1048 = CARTESIAN_POINT('',(-59.,32.650000000001,0.));
#1049 = VECTOR('',#1050,1.);
#1050 = DIRECTION('',(1.,0.,0.));
#1051 = ORIENTED_EDGE('',*,*,#1052,.T.);
#1052 = EDGE_CURVE('',#1045,#1027,#1053,.T.);
#1053 = LINE('',#1054,#1055);
#1054 = CARTESIAN_POINT('',(-60.,31.650000000001,0.));
#1055 = VECTOR('',#1056,1.);
#1056 = DIRECTION('',(0.,-1.,0.));
#1057 = FACE_BOUND('',#1058,.T.);
#1058 = EDGE_LOOP('',(#1059,#1069,#1077,#1085));
#1059 = ORIENTED_EDGE('',*,*,#1060,.T.);
#1060 = EDGE_CURVE('',#1061,#1063,#1065,.T.);
#1061 = VERTEX_POINT('',#1062);
#1062 = CARTESIAN_POINT('',(-60.,35.650000000001,9.436895709314E-16));
#1063 = VERTEX_POINT('',#1064);
#1064 = CARTESIAN_POINT('',(60.,35.650000000001,9.436895709314E-16));
#1065 = LINE('',#1066,#1067);
#1066 = CARTESIAN_POINT('',(-59.,35.650000000001,0.));
#1067 = VECTOR('',#1068,1.);
#1068 = DIRECTION('',(1.,0.,0.));
#1069 = ORIENTED_EDGE('',*,*,#1070,.T.);
#1070 = EDGE_CURVE('',#1063,#1071,#1073,.T.);
#1071 = VERTEX_POINT('',#1072);
#1072 = CARTESIAN_POINT('',(60.,43.2,9.436895709314E-16));
#1073 = LINE('',#1074,#1075);
#1074 = CARTESIAN_POINT('',(60.,36.650000000001,0.));
#1075 = VECTOR('',#1076,1.);
#1076 = DIRECTION('',(0.,1.,0.));
#1077 = ORIENTED_EDGE('',*,*,#1078,.F.);
#1078 = EDGE_CURVE('',#1079,#1071,#1081,.T.);
#1079 = VERTEX_POINT('',#1080);
#1080 = CARTESIAN_POINT('',(-60.,43.2,-3.774758283726E-15));
#1081 = LINE('',#1082,#1083);
#1082 = CARTESIAN_POINT('',(-59.,43.2,0.));
#1083 = VECTOR('',#1084,1.);
#1084 = DIRECTION('',(1.,0.,0.));
#1085 = ORIENTED_EDGE('',*,*,#1086,.T.);
#1086 = EDGE_CURVE('',#1079,#1061,#1087,.T.);
#1087 = LINE('',#1088,#1089);
#1088 = CARTESIAN_POINT('',(-60.,42.2,0.));
#1089 = VECTOR('',#1090,1.);
#1090 = DIRECTION('',(0.,-1.,0.));
#1091 = PLANE('',#1092);
#1092 = AXIS2_PLACEMENT_3D('',#1093,#1094,#1095);
#1093 = CARTESIAN_POINT('',(0.,94.27388291358,0.));
#1094 = DIRECTION('',(-0.,-0.,-1.));
#1095 = DIRECTION('',(-1.,0.,0.));
#1096 = ADVANCED_FACE('',(#1097),#1138,.F.);
#1097 = FACE_BOUND('',#1098,.F.);
#1098 = EDGE_LOOP('',(#1099,#1100,#1108,#1116,#1124,#1130,#1131,#1137));
#1099 = ORIENTED_EDGE('',*,*,#959,.F.);
#1100 = ORIENTED_EDGE('',*,*,#1101,.T.);
#1101 = EDGE_CURVE('',#925,#1102,#1104,.T.);
#1102 = VERTEX_POINT('',#1103);
#1103 = CARTESIAN_POINT('',(-64.,36.788972082017,68.516125077829));
#1104 = LINE('',#1105,#1106);
#1105 = CARTESIAN_POINT('',(-64.,36.788972082017,0.));
#1106 = VECTOR('',#1107,1.);
#1107 = DIRECTION('',(0.,0.,1.));
#1108 = ORIENTED_EDGE('',*,*,#1109,.F.);
#1109 = EDGE_CURVE('',#1110,#1102,#1112,.T.);
#1110 = VERTEX_POINT('',#1111);
#1111 = CARTESIAN_POINT('',(-64.,42.2,69.1));
#1112 = LINE('',#1113,#1114);
#1113 = CARTESIAN_POINT('',(-64.,106.31992565831,76.01883634142));
#1114 = VECTOR('',#1115,1.);
#1115 = DIRECTION('',(0.,-0.994228646323,-0.107281866272));
#1116 = ORIENTED_EDGE('',*,*,#1117,.F.);
#1117 = EDGE_CURVE('',#1118,#1110,#1120,.T.);
#1118 = VERTEX_POINT('',#1119);
#1119 = CARTESIAN_POINT('',(-64.,47.579434282939,69.680465822924));
#1120 = LINE('',#1121,#1122);
#1121 = CARTESIAN_POINT('',(-64.,106.31992565831,76.01883634142));
#1122 = VECTOR('',#1123,1.);
#1123 = DIRECTION('',(0.,-0.994228646323,-0.107281866272));
#1124 = ORIENTED_EDGE('',*,*,#1125,.T.);
#1125 = EDGE_CURVE('',#1118,#769,#1126,.T.);
#1126 = LINE('',#1127,#1128);
#1127 = CARTESIAN_POINT('',(-64.,47.579434282939,0.));
#1128 = VECTOR('',#1129,1.);
#1129 = DIRECTION('',(0.,0.,1.));
#1130 = ORIENTED_EDGE('',*,*,#776,.F.);
#1131 = ORIENTED_EDGE('',*,*,#1132,.T.);
#1132 = EDGE_CURVE('',#721,#204,#1133,.T.);
#1133 = LINE('',#1134,#1135);
#1134 = CARTESIAN_POINT('',(-64.,-4.59931034494,61.911724137793));
#1135 = VECTOR('',#1136,1.);
#1136 = DIRECTION('',(0.,-0.747409318681,-0.664363838833));
#1137 = ORIENTED_EDGE('',*,*,#203,.F.);
#1138 = PLANE('',#1139);
#1139 = AXIS2_PLACEMENT_3D('',#1140,#1141,#1142);
#1140 = CARTESIAN_POINT('',(-64.,42.2,0.));
#1141 = DIRECTION('',(1.,0.,0.));
#1142 = DIRECTION('',(0.,-1.,0.));
#1143 = ADVANCED_FACE('',(#1144),#1185,.F.);
#1144 = FACE_BOUND('',#1145,.F.);
#1145 = EDGE_LOOP('',(#1146,#1154,#1155,#1156,#1162,#1163,#1171,#1179));
#1146 = ORIENTED_EDGE('',*,*,#1147,.F.);
#1147 = EDGE_CURVE('',#944,#1148,#1150,.T.);
#1148 = VERTEX_POINT('',#1149);
#1149 = CARTESIAN_POINT('',(64.,36.788972082017,68.516125077829));
#1150 = LINE('',#1151,#1152);
#1151 = CARTESIAN_POINT('',(64.,36.788972082017,0.));
#1152 = VECTOR('',#1153,1.);
#1153 = DIRECTION('',(0.,0.,1.));
#1154 = ORIENTED_EDGE('',*,*,#952,.F.);
#1155 = ORIENTED_EDGE('',*,*,#219,.T.);
#1156 = ORIENTED_EDGE('',*,*,#1157,.T.);
#1157 = EDGE_CURVE('',#212,#719,#1158,.T.);
#1158 = LINE('',#1159,#1160);
#1159 = CARTESIAN_POINT('',(64.,0.,66.));
#1160 = VECTOR('',#1161,1.);
#1161 = DIRECTION('',(0.,0.747409318681,0.664363838833));
#1162 = ORIENTED_EDGE('',*,*,#728,.T.);
#1163 = ORIENTED_EDGE('',*,*,#1164,.T.);
#1164 = EDGE_CURVE('',#729,#1165,#1167,.T.);
#1165 = VERTEX_POINT('',#1166);
#1166 = CARTESIAN_POINT('',(64.,47.579434282938,69.680465822924));
#1167 = LINE('',#1168,#1169);
#1168 = CARTESIAN_POINT('',(64.,47.579434282938,0.));
#1169 = VECTOR('',#1170,1.);
#1170 = DIRECTION('',(0.,0.,-1.));
#1171 = ORIENTED_EDGE('',*,*,#1172,.T.);
#1172 = EDGE_CURVE('',#1165,#1173,#1175,.T.);
#1173 = VERTEX_POINT('',#1174);
#1174 = CARTESIAN_POINT('',(64.,42.2,69.1));
#1175 = LINE('',#1176,#1177);
#1176 = CARTESIAN_POINT('',(64.,17.705650085783,66.456946431145));
#1177 = VECTOR('',#1178,1.);
#1178 = DIRECTION('',(-0.,-0.994228646323,-0.107281866272));
#1179 = ORIENTED_EDGE('',*,*,#1180,.T.);
#1180 = EDGE_CURVE('',#1173,#1148,#1181,.T.);
#1181 = LINE('',#1182,#1183);
#1182 = CARTESIAN_POINT('',(64.,17.705650085783,66.456946431145));
#1183 = VECTOR('',#1184,1.);
#1184 = DIRECTION('',(-0.,-0.994228646323,-0.107281866272));
#1185 = PLANE('',#1186);
#1186 = AXIS2_PLACEMENT_3D('',#1187,#1188,#1189);
#1187 = CARTESIAN_POINT('',(64.,0.,0.));
#1188 = DIRECTION('',(-1.,0.,0.));
#1189 = DIRECTION('',(0.,1.,0.));
#1190 = ADVANCED_FACE('',(#1191),#1197,.F.);
#1191 = FACE_BOUND('',#1192,.F.);
#1192 = EDGE_LOOP('',(#1193,#1194,#1195,#1196));
#1193 = ORIENTED_EDGE('',*,*,#1157,.F.);
#1194 = ORIENTED_EDGE('',*,*,#211,.T.);
#1195 = ORIENTED_EDGE('',*,*,#1132,.F.);
#1196 = ORIENTED_EDGE('',*,*,#718,.F.);
#1197 = PLANE('',#1198);
#1198 = AXIS2_PLACEMENT_3D('',#1199,#1200,#1201);
#1199 = CARTESIAN_POINT('',(64.,0.,66.));
#1200 = DIRECTION('',(0.,0.664363838833,-0.747409318681));
#1201 = DIRECTION('',(0.,0.747409318681,0.664363838833));
#1202 = ADVANCED_FACE('',(#1203),#1214,.F.);
#1203 = FACE_BOUND('',#1204,.F.);
#1204 = EDGE_LOOP('',(#1205,#1211,#1212,#1213));
#1205 = ORIENTED_EDGE('',*,*,#1206,.F.);
#1206 = EDGE_CURVE('',#858,#231,#1207,.T.);
#1207 = LINE('',#1208,#1209);
#1208 = CARTESIAN_POINT('',(1.8,1.,35.05));
#1209 = VECTOR('',#1210,1.);
#1210 = DIRECTION('',(0.707106781187,-0.707106781187,0.));
#1211 = ORIENTED_EDGE('',*,*,#865,.T.);
#1212 = ORIENTED_EDGE('',*,*,#1206,.T.);
#1213 = ORIENTED_EDGE('',*,*,#230,.F.);
#1214 = CONICAL_SURFACE('',#1215,1.8,0.785398163397);
#1215 = AXIS2_PLACEMENT_3D('',#1216,#1217,#1218);
#1216 = CARTESIAN_POINT('',(0.,1.,35.05));
#1217 = DIRECTION('',(0.,-1.,0.));
#1218 = DIRECTION('',(1.,0.,0.));
#1219 = ADVANCED_FACE('',(#1220),#1231,.F.);
#1220 = FACE_BOUND('',#1221,.F.);
#1221 = EDGE_LOOP('',(#1222,#1228,#1229,#1230));
#1222 = ORIENTED_EDGE('',*,*,#1223,.F.);
#1223 = EDGE_CURVE('',#833,#242,#1224,.T.);
#1224 = LINE('',#1225,#1226);
#1225 = CARTESIAN_POINT('',(45.8,1.,15.99999999987));
#1226 = VECTOR('',#1227,1.);
#1227 = DIRECTION('',(0.707106781187,-0.707106781187,0.));
#1228 = ORIENTED_EDGE('',*,*,#840,.T.);
#1229 = ORIENTED_EDGE('',*,*,#1223,.T.);
#1230 = ORIENTED_EDGE('',*,*,#241,.F.);
#1231 = CONICAL_SURFACE('',#1232,1.8,0.785398163397);
#1232 = AXIS2_PLACEMENT_3D('',#1233,#1234,#1235);
#1233 = CARTESIAN_POINT('',(44.,1.,15.99999999987));
#1234 = DIRECTION('',(0.,-1.,0.));
#1235 = DIRECTION('',(1.,0.,0.));
#1236 = ADVANCED_FACE('',(#1237),#1248,.F.);
#1237 = FACE_BOUND('',#1238,.F.);
#1238 = EDGE_LOOP('',(#1239,#1245,#1246,#1247));
#1239 = ORIENTED_EDGE('',*,*,#1240,.F.);
#1240 = EDGE_CURVE('',#883,#253,#1241,.T.);
#1241 = LINE('',#1242,#1243);
#1242 = CARTESIAN_POINT('',(45.8,1.,54.1));
#1243 = VECTOR('',#1244,1.);
#1244 = DIRECTION('',(0.707106781187,-0.707106781187,0.));
#1245 = ORIENTED_EDGE('',*,*,#890,.T.);
#1246 = ORIENTED_EDGE('',*,*,#1240,.T.);
#1247 = ORIENTED_EDGE('',*,*,#252,.F.);
#1248 = CONICAL_SURFACE('',#1249,1.8,0.785398163397);
#1249 = AXIS2_PLACEMENT_3D('',#1250,#1251,#1252);
#1250 = CARTESIAN_POINT('',(44.,1.,54.1));
#1251 = DIRECTION('',(0.,-1.,0.));
#1252 = DIRECTION('',(1.,0.,0.));
#1253 = ADVANCED_FACE('',(#1254),#1270,.F.);
#1254 = FACE_BOUND('',#1255,.F.);
#1255 = EDGE_LOOP('',(#1256,#1257,#1263,#1264));
#1256 = ORIENTED_EDGE('',*,*,#269,.F.);
#1257 = ORIENTED_EDGE('',*,*,#1258,.T.);
#1258 = EDGE_CURVE('',#270,#571,#1259,.T.);
#1259 = LINE('',#1260,#1261);
#1260 = CARTESIAN_POINT('',(-59.,36.650000000001,1.));
#1261 = VECTOR('',#1262,1.);
#1262 = DIRECTION('',(1.,0.,0.));
#1263 = ORIENTED_EDGE('',*,*,#578,.F.);
#1264 = ORIENTED_EDGE('',*,*,#1265,.F.);
#1265 = EDGE_CURVE('',#272,#579,#1266,.T.);
#1266 = LINE('',#1267,#1268);
#1267 = CARTESIAN_POINT('',(-59.,36.650000000001,22.58578643763));
#1268 = VECTOR('',#1269,1.);
#1269 = DIRECTION('',(1.,0.,0.));
#1270 = PLANE('',#1271);
#1271 = AXIS2_PLACEMENT_3D('',#1272,#1273,#1274);
#1272 = CARTESIAN_POINT('',(-59.,36.650000000001,-2.253329969588E-40));
#1273 = DIRECTION('',(0.,-1.,0.));
#1274 = DIRECTION('',(0.,0.,1.));
#1275 = ADVANCED_FACE('',(#1276),#1287,.T.);
#1276 = FACE_BOUND('',#1277,.T.);
#1277 = EDGE_LOOP('',(#1278,#1279,#1285,#1286));
#1278 = ORIENTED_EDGE('',*,*,#451,.T.);
#1279 = ORIENTED_EDGE('',*,*,#1280,.T.);
#1280 = EDGE_CURVE('',#444,#587,#1281,.T.);
#1281 = LINE('',#1282,#1283);
#1282 = CARTESIAN_POINT('',(-59.,34.942893218814,23.292893218816));
#1283 = VECTOR('',#1284,1.);
#1284 = DIRECTION('',(1.,0.,0.));
#1285 = ORIENTED_EDGE('',*,*,#586,.F.);
#1286 = ORIENTED_EDGE('',*,*,#1265,.F.);
#1287 = CYLINDRICAL_SURFACE('',#1288,1.);
#1288 = AXIS2_PLACEMENT_3D('',#1289,#1290,#1291);
#1289 = CARTESIAN_POINT('',(-59.,35.650000000001,22.58578643763));
#1290 = DIRECTION('',(1.,0.,0.));
#1291 = DIRECTION('',(0.,1.,0.));
#1292 = ADVANCED_FACE('',(#1293),#1309,.T.);
#1293 = FACE_BOUND('',#1294,.T.);
#1294 = EDGE_LOOP('',(#1295,#1301,#1302,#1308));
#1295 = ORIENTED_EDGE('',*,*,#1296,.F.);
#1296 = EDGE_CURVE('',#280,#1079,#1297,.T.);
#1297 = LINE('',#1298,#1299);
#1298 = CARTESIAN_POINT('',(-59.33333333333,42.533333333333,
    0.666666666667));
#1299 = VECTOR('',#1300,1.);
#1300 = DIRECTION('',(-0.57735026919,0.57735026919,-0.57735026919));
#1301 = ORIENTED_EDGE('',*,*,#279,.T.);
#1302 = ORIENTED_EDGE('',*,*,#1303,.T.);
#1303 = EDGE_CURVE('',#270,#1061,#1304,.T.);
#1304 = LINE('',#1305,#1306);
#1305 = CARTESIAN_POINT('',(-58.40833333333,37.241666666667,
    1.591666666667));
#1306 = VECTOR('',#1307,1.);
#1307 = DIRECTION('',(-0.57735026919,-0.57735026919,-0.57735026919));
#1308 = ORIENTED_EDGE('',*,*,#1086,.F.);
#1309 = PLANE('',#1310);
#1310 = AXIS2_PLACEMENT_3D('',#1311,#1312,#1313);
#1311 = CARTESIAN_POINT('',(-59.5,42.2,0.5));
#1312 = DIRECTION('',(0.707106781187,5.045716313948E-16,-0.707106781187)
  );
#1313 = DIRECTION('',(3.567860221536E-16,-1.,-3.567860221536E-16));
#1314 = ADVANCED_FACE('',(#1315),#1326,.F.);
#1315 = FACE_BOUND('',#1316,.F.);
#1316 = EDGE_LOOP('',(#1317,#1318,#1319,#1320));
#1317 = ORIENTED_EDGE('',*,*,#443,.F.);
#1318 = ORIENTED_EDGE('',*,*,#1280,.T.);
#1319 = ORIENTED_EDGE('',*,*,#595,.F.);
#1320 = ORIENTED_EDGE('',*,*,#1321,.F.);
#1321 = EDGE_CURVE('',#435,#596,#1322,.T.);
#1322 = LINE('',#1323,#1324);
#1323 = CARTESIAN_POINT('',(-59.,31.942893218814,20.292893218817));
#1324 = VECTOR('',#1325,1.);
#1325 = DIRECTION('',(1.,0.,0.));
#1326 = PLANE('',#1327);
#1327 = AXIS2_PLACEMENT_3D('',#1328,#1329,#1330);
#1328 = CARTESIAN_POINT('',(-59.,36.650000000001,25.000000000002));
#1329 = DIRECTION('',(0.,0.707106781186,-0.707106781187));
#1330 = DIRECTION('',(0.,-0.707106781187,-0.707106781186));
#1331 = ADVANCED_FACE('',(#1332),#1348,.T.);
#1332 = FACE_BOUND('',#1333,.T.);
#1333 = EDGE_LOOP('',(#1334,#1335,#1341,#1342));
#1334 = ORIENTED_EDGE('',*,*,#287,.T.);
#1335 = ORIENTED_EDGE('',*,*,#1336,.T.);
#1336 = EDGE_CURVE('',#280,#563,#1337,.T.);
#1337 = LINE('',#1338,#1339);
#1338 = CARTESIAN_POINT('',(-59.,42.2,1.));
#1339 = VECTOR('',#1340,1.);
#1340 = DIRECTION('',(1.,0.,0.));
#1341 = ORIENTED_EDGE('',*,*,#562,.F.);
#1342 = ORIENTED_EDGE('',*,*,#1343,.F.);
#1343 = EDGE_CURVE('',#288,#555,#1344,.T.);
#1344 = LINE('',#1345,#1346);
#1345 = CARTESIAN_POINT('',(-59.,42.2,15.));
#1346 = VECTOR('',#1347,1.);
#1347 = DIRECTION('',(1.,0.,0.));
#1348 = PLANE('',#1349);
#1349 = AXIS2_PLACEMENT_3D('',#1350,#1351,#1352);
#1350 = CARTESIAN_POINT('',(-3.419153014184E-15,42.2,7.5));
#1351 = DIRECTION('',(-0.,-1.,-9.348917613871E-16));
#1352 = DIRECTION('',(0.,9.348917613871E-16,-1.));
#1353 = ADVANCED_FACE('',(#1354),#1365,.T.);
#1354 = FACE_BOUND('',#1355,.F.);
#1355 = EDGE_LOOP('',(#1356,#1357,#1358,#1359));
#1356 = ORIENTED_EDGE('',*,*,#434,.T.);
#1357 = ORIENTED_EDGE('',*,*,#1321,.T.);
#1358 = ORIENTED_EDGE('',*,*,#603,.F.);
#1359 = ORIENTED_EDGE('',*,*,#1360,.F.);
#1360 = EDGE_CURVE('',#427,#604,#1361,.T.);
#1361 = LINE('',#1362,#1363);
#1362 = CARTESIAN_POINT('',(-59.,31.650000000001,19.585786437631));
#1363 = VECTOR('',#1364,1.);
#1364 = DIRECTION('',(1.,0.,0.));
#1365 = CYLINDRICAL_SURFACE('',#1366,1.);
#1366 = AXIS2_PLACEMENT_3D('',#1367,#1368,#1369);
#1367 = CARTESIAN_POINT('',(-59.,32.650000000001,19.585786437631));
#1368 = DIRECTION('',(1.,0.,0.));
#1369 = DIRECTION('',(0.,-1.,0.));
#1370 = ADVANCED_FACE('',(#1371),#1382,.T.);
#1371 = FACE_BOUND('',#1372,.T.);
#1372 = EDGE_LOOP('',(#1373,#1374,#1375,#1376));
#1373 = ORIENTED_EDGE('',*,*,#295,.F.);
#1374 = ORIENTED_EDGE('',*,*,#1343,.T.);
#1375 = ORIENTED_EDGE('',*,*,#554,.F.);
#1376 = ORIENTED_EDGE('',*,*,#1377,.F.);
#1377 = EDGE_CURVE('',#296,#547,#1378,.T.);
#1378 = LINE('',#1379,#1380);
#1379 = CARTESIAN_POINT('',(-59.,42.470551395899,14.999999999999));
#1380 = VECTOR('',#1381,1.);
#1381 = DIRECTION('',(1.,0.,0.));
#1382 = PLANE('',#1383);
#1383 = AXIS2_PLACEMENT_3D('',#1384,#1385,#1386);
#1384 = CARTESIAN_POINT('',(-59.,42.2,15.));
#1385 = DIRECTION('',(0.,0.,1.));
#1386 = DIRECTION('',(0.,1.,0.));
#1387 = ADVANCED_FACE('',(#1388),#1399,.F.);
#1388 = FACE_BOUND('',#1389,.F.);
#1389 = EDGE_LOOP('',(#1390,#1391,#1392,#1393));
#1390 = ORIENTED_EDGE('',*,*,#426,.F.);
#1391 = ORIENTED_EDGE('',*,*,#1360,.T.);
#1392 = ORIENTED_EDGE('',*,*,#612,.F.);
#1393 = ORIENTED_EDGE('',*,*,#1394,.F.);
#1394 = EDGE_CURVE('',#419,#613,#1395,.T.);
#1395 = LINE('',#1396,#1397);
#1396 = CARTESIAN_POINT('',(-59.,31.650000000001,1.));
#1397 = VECTOR('',#1398,1.);
#1398 = DIRECTION('',(1.,0.,0.));
#1399 = PLANE('',#1400);
#1400 = AXIS2_PLACEMENT_3D('',#1401,#1402,#1403);
#1401 = CARTESIAN_POINT('',(-59.,31.650000000001,20.000000000004));
#1402 = DIRECTION('',(0.,1.,0.));
#1403 = DIRECTION('',(0.,0.,-1.));
#1404 = ADVANCED_FACE('',(#1405),#1430,.T.);
#1405 = FACE_BOUND('',#1406,.T.);
#1406 = EDGE_LOOP('',(#1407,#1417,#1423,#1424));
#1407 = ORIENTED_EDGE('',*,*,#1408,.T.);
#1408 = EDGE_CURVE('',#1409,#1411,#1413,.T.);
#1409 = VERTEX_POINT('',#1410);
#1410 = CARTESIAN_POINT('',(-59.55450972001,47.579434282939,
    16.092304270927));
#1411 = VERTEX_POINT('',#1412);
#1412 = CARTESIAN_POINT('',(-59.55450972001,47.579434282939,69.1));
#1413 = LINE('',#1414,#1415);
#1414 = CARTESIAN_POINT('',(-59.55450972001,47.579434282939,0.));
#1415 = VECTOR('',#1416,1.);
#1416 = DIRECTION('',(0.,0.,1.));
#1417 = ORIENTED_EDGE('',*,*,#1418,.F.);
#1418 = EDGE_CURVE('',#304,#1411,#1419,.T.);
#1419 = LINE('',#1420,#1421);
#1420 = CARTESIAN_POINT('',(-59.,42.470551395899,69.1));
#1421 = VECTOR('',#1422,1.);
#1422 = DIRECTION('',(-0.107904622009,0.994161250778,0.));
#1423 = ORIENTED_EDGE('',*,*,#303,.T.);
#1424 = ORIENTED_EDGE('',*,*,#1425,.T.);
#1425 = EDGE_CURVE('',#296,#1409,#1426,.T.);
#1426 = LINE('',#1427,#1428);
#1427 = CARTESIAN_POINT('',(-59.,42.470551395899,14.999999999999));
#1428 = VECTOR('',#1429,1.);
#1429 = DIRECTION('',(-0.105546647127,0.9724364422,0.207911690776));
#1430 = PLANE('',#1431);
#1431 = AXIS2_PLACEMENT_3D('',#1432,#1433,#1434);
#1432 = CARTESIAN_POINT('',(-74.0291937461,180.93952311004,0.));
#1433 = DIRECTION('',(0.994161250778,0.107904622009,0.));
#1434 = DIRECTION('',(0.107904622009,-0.994161250778,0.));
#1435 = ADVANCED_FACE('',(#1436),#1452,.T.);
#1436 = FACE_BOUND('',#1437,.T.);
#1437 = EDGE_LOOP('',(#1438,#1444,#1445,#1451));
#1438 = ORIENTED_EDGE('',*,*,#1439,.F.);
#1439 = EDGE_CURVE('',#419,#1045,#1440,.T.);
#1440 = LINE('',#1441,#1442);
#1441 = CARTESIAN_POINT('',(-59.33333333333,31.983333333334,
    0.666666666667));
#1442 = VECTOR('',#1443,1.);
#1443 = DIRECTION('',(-0.57735026919,0.57735026919,-0.57735026919));
#1444 = ORIENTED_EDGE('',*,*,#418,.T.);
#1445 = ORIENTED_EDGE('',*,*,#1446,.T.);
#1446 = EDGE_CURVE('',#411,#1027,#1447,.T.);
#1447 = LINE('',#1448,#1449);
#1448 = CARTESIAN_POINT('',(-58.40833333333,26.691666666668,
    1.591666666667));
#1449 = VECTOR('',#1450,1.);
#1450 = DIRECTION('',(-0.57735026919,-0.57735026919,-0.57735026919));
#1451 = ORIENTED_EDGE('',*,*,#1052,.F.);
#1452 = PLANE('',#1453);
#1453 = AXIS2_PLACEMENT_3D('',#1454,#1455,#1456);
#1454 = CARTESIAN_POINT('',(-59.5,31.650000000001,0.5));
#1455 = DIRECTION('',(0.707106781187,0.,-0.707106781187));
#1456 = DIRECTION('',(0.,-1.,0.));
#1457 = ADVANCED_FACE('',(#1458),#1474,.F.);
#1458 = FACE_BOUND('',#1459,.F.);
#1459 = EDGE_LOOP('',(#1460,#1461,#1467,#1468));
#1460 = ORIENTED_EDGE('',*,*,#410,.F.);
#1461 = ORIENTED_EDGE('',*,*,#1462,.T.);
#1462 = EDGE_CURVE('',#411,#621,#1463,.T.);
#1463 = LINE('',#1464,#1465);
#1464 = CARTESIAN_POINT('',(-59.,26.100000000001,1.));
#1465 = VECTOR('',#1466,1.);
#1466 = DIRECTION('',(1.,0.,0.));
#1467 = ORIENTED_EDGE('',*,*,#628,.F.);
#1468 = ORIENTED_EDGE('',*,*,#1469,.F.);
#1469 = EDGE_CURVE('',#402,#629,#1470,.T.);
#1470 = LINE('',#1471,#1472);
#1471 = CARTESIAN_POINT('',(-59.,26.100000000001,42.585786437628));
#1472 = VECTOR('',#1473,1.);
#1473 = DIRECTION('',(1.,0.,0.));
#1474 = PLANE('',#1475);
#1475 = AXIS2_PLACEMENT_3D('',#1476,#1477,#1478);
#1476 = CARTESIAN_POINT('',(-59.,26.100000000001,0.));
#1477 = DIRECTION('',(0.,-1.,0.));
#1478 = DIRECTION('',(0.,0.,1.));
#1479 = ADVANCED_FACE('',(#1480),#1491,.T.);
#1480 = FACE_BOUND('',#1481,.T.);
#1481 = EDGE_LOOP('',(#1482,#1483,#1489,#1490));
#1482 = ORIENTED_EDGE('',*,*,#401,.T.);
#1483 = ORIENTED_EDGE('',*,*,#1484,.T.);
#1484 = EDGE_CURVE('',#394,#637,#1485,.T.);
#1485 = LINE('',#1486,#1487);
#1486 = CARTESIAN_POINT('',(-59.,24.392893218815,43.292893218815));
#1487 = VECTOR('',#1488,1.);
#1488 = DIRECTION('',(1.,0.,0.));
#1489 = ORIENTED_EDGE('',*,*,#636,.F.);
#1490 = ORIENTED_EDGE('',*,*,#1469,.F.);
#1491 = CYLINDRICAL_SURFACE('',#1492,1.);
#1492 = AXIS2_PLACEMENT_3D('',#1493,#1494,#1495);
#1493 = CARTESIAN_POINT('',(-59.,25.100000000001,42.585786437628));
#1494 = DIRECTION('',(1.,0.,0.));
#1495 = DIRECTION('',(0.,1.,0.));
#1496 = ADVANCED_FACE('',(#1497),#1508,.T.);
#1497 = FACE_BOUND('',#1498,.T.);
#1498 = EDGE_LOOP('',(#1499,#1505,#1506,#1507));
#1499 = ORIENTED_EDGE('',*,*,#1500,.F.);
#1500 = EDGE_CURVE('',#319,#968,#1501,.T.);
#1501 = LINE('',#1502,#1503);
#1502 = CARTESIAN_POINT('',(-59.33333333333,10.883333333333,
    0.666666666667));
#1503 = VECTOR('',#1504,1.);
#1504 = DIRECTION('',(-0.57735026919,0.57735026919,-0.57735026919));
#1505 = ORIENTED_EDGE('',*,*,#318,.T.);
#1506 = ORIENTED_EDGE('',*,*,#475,.T.);
#1507 = ORIENTED_EDGE('',*,*,#977,.F.);
#1508 = PLANE('',#1509);
#1509 = AXIS2_PLACEMENT_3D('',#1510,#1511,#1512);
#1510 = CARTESIAN_POINT('',(-59.5,10.549999999999,0.5));
#1511 = DIRECTION('',(0.707106781187,5.045716313948E-16,-0.707106781187)
  );
#1512 = DIRECTION('',(3.567860221536E-16,-1.,-3.567860221536E-16));
#1513 = ADVANCED_FACE('',(#1514),#1525,.F.);
#1514 = FACE_BOUND('',#1515,.F.);
#1515 = EDGE_LOOP('',(#1516,#1517,#1518,#1519));
#1516 = ORIENTED_EDGE('',*,*,#393,.F.);
#1517 = ORIENTED_EDGE('',*,*,#1484,.T.);
#1518 = ORIENTED_EDGE('',*,*,#645,.F.);
#1519 = ORIENTED_EDGE('',*,*,#1520,.F.);
#1520 = EDGE_CURVE('',#385,#646,#1521,.T.);
#1521 = LINE('',#1522,#1523);
#1522 = CARTESIAN_POINT('',(-59.,21.392893218814,40.292893218816));
#1523 = VECTOR('',#1524,1.);
#1524 = DIRECTION('',(1.,0.,0.));
#1525 = PLANE('',#1526);
#1526 = AXIS2_PLACEMENT_3D('',#1527,#1528,#1529);
#1527 = CARTESIAN_POINT('',(-59.,26.100000000001,45.));
#1528 = DIRECTION('',(0.,0.707106781186,-0.707106781187));
#1529 = DIRECTION('',(0.,-0.707106781187,-0.707106781186));
#1530 = ADVANCED_FACE('',(#1531),#1547,.F.);
#1531 = FACE_BOUND('',#1532,.F.);
#1532 = EDGE_LOOP('',(#1533,#1534,#1540,#1541));
#1533 = ORIENTED_EDGE('',*,*,#326,.F.);
#1534 = ORIENTED_EDGE('',*,*,#1535,.T.);
#1535 = EDGE_CURVE('',#327,#524,#1536,.T.);
#1536 = LINE('',#1537,#1538);
#1537 = CARTESIAN_POINT('',(-59.,10.549999999999,59.58578643763));
#1538 = VECTOR('',#1539,1.);
#1539 = DIRECTION('',(1.,0.,0.));
#1540 = ORIENTED_EDGE('',*,*,#521,.F.);
#1541 = ORIENTED_EDGE('',*,*,#1542,.F.);
#1542 = EDGE_CURVE('',#319,#522,#1543,.T.);
#1543 = LINE('',#1544,#1545);
#1544 = CARTESIAN_POINT('',(-59.,10.549999999999,1.));
#1545 = VECTOR('',#1546,1.);
#1546 = DIRECTION('',(1.,0.,0.));
#1547 = PLANE('',#1548);
#1548 = AXIS2_PLACEMENT_3D('',#1549,#1550,#1551);
#1549 = CARTESIAN_POINT('',(-59.,10.549999999999,60.000000000003));
#1550 = DIRECTION('',(0.,1.,0.));
#1551 = DIRECTION('',(0.,0.,-1.));
#1552 = ADVANCED_FACE('',(#1553),#1564,.T.);
#1553 = FACE_BOUND('',#1554,.F.);
#1554 = EDGE_LOOP('',(#1555,#1556,#1557,#1558));
#1555 = ORIENTED_EDGE('',*,*,#384,.T.);
#1556 = ORIENTED_EDGE('',*,*,#1520,.T.);
#1557 = ORIENTED_EDGE('',*,*,#653,.F.);
#1558 = ORIENTED_EDGE('',*,*,#1559,.F.);
#1559 = EDGE_CURVE('',#377,#654,#1560,.T.);
#1560 = LINE('',#1561,#1562);
#1561 = CARTESIAN_POINT('',(-59.,21.1,39.58578643763));
#1562 = VECTOR('',#1563,1.);
#1563 = DIRECTION('',(1.,0.,0.));
#1564 = CYLINDRICAL_SURFACE('',#1565,1.);
#1565 = AXIS2_PLACEMENT_3D('',#1566,#1567,#1568);
#1566 = CARTESIAN_POINT('',(-59.,22.1,39.58578643763));
#1567 = DIRECTION('',(1.,0.,0.));
#1568 = DIRECTION('',(0.,-1.,0.));
#1569 = ADVANCED_FACE('',(#1570),#1581,.T.);
#1570 = FACE_BOUND('',#1571,.F.);
#1571 = EDGE_LOOP('',(#1572,#1573,#1579,#1580));
#1572 = ORIENTED_EDGE('',*,*,#334,.T.);
#1573 = ORIENTED_EDGE('',*,*,#1574,.T.);
#1574 = EDGE_CURVE('',#335,#696,#1575,.T.);
#1575 = LINE('',#1576,#1577);
#1576 = CARTESIAN_POINT('',(-59.,10.842893218813,60.292893218817));
#1577 = VECTOR('',#1578,1.);
#1578 = DIRECTION('',(1.,0.,0.));
#1579 = ORIENTED_EDGE('',*,*,#703,.F.);
#1580 = ORIENTED_EDGE('',*,*,#1535,.F.);
#1581 = CYLINDRICAL_SURFACE('',#1582,1.);
#1582 = AXIS2_PLACEMENT_3D('',#1583,#1584,#1585);
#1583 = CARTESIAN_POINT('',(-59.,11.549999999999,59.58578643763));
#1584 = DIRECTION('',(1.,0.,0.));
#1585 = DIRECTION('',(0.,-1.,0.));
#1586 = ADVANCED_FACE('',(#1587),#1598,.F.);
#1587 = FACE_BOUND('',#1588,.F.);
#1588 = EDGE_LOOP('',(#1589,#1590,#1591,#1592));
#1589 = ORIENTED_EDGE('',*,*,#376,.F.);
#1590 = ORIENTED_EDGE('',*,*,#1559,.T.);
#1591 = ORIENTED_EDGE('',*,*,#662,.F.);
#1592 = ORIENTED_EDGE('',*,*,#1593,.F.);
#1593 = EDGE_CURVE('',#369,#663,#1594,.T.);
#1594 = LINE('',#1595,#1596);
#1595 = CARTESIAN_POINT('',(-59.,21.1,1.));
#1596 = VECTOR('',#1597,1.);
#1597 = DIRECTION('',(1.,0.,0.));
#1598 = PLANE('',#1599);
#1599 = AXIS2_PLACEMENT_3D('',#1600,#1601,#1602);
#1600 = CARTESIAN_POINT('',(-59.,21.1,40.000000000003));
#1601 = DIRECTION('',(0.,1.,0.));
#1602 = DIRECTION('',(0.,0.,-1.));
#1603 = ADVANCED_FACE('',(#1604),#1615,.F.);
#1604 = FACE_BOUND('',#1605,.F.);
#1605 = EDGE_LOOP('',(#1606,#1607,#1613,#1614));
#1606 = ORIENTED_EDGE('',*,*,#343,.F.);
#1607 = ORIENTED_EDGE('',*,*,#1608,.T.);
#1608 = EDGE_CURVE('',#344,#687,#1609,.T.);
#1609 = LINE('',#1610,#1611);
#1610 = CARTESIAN_POINT('',(-59.,13.842893218814,63.292893218815));
#1611 = VECTOR('',#1612,1.);
#1612 = DIRECTION('',(1.,0.,0.));
#1613 = ORIENTED_EDGE('',*,*,#695,.F.);
#1614 = ORIENTED_EDGE('',*,*,#1574,.F.);
#1615 = PLANE('',#1616);
#1616 = AXIS2_PLACEMENT_3D('',#1617,#1618,#1619);
#1617 = CARTESIAN_POINT('',(-59.,15.550000000001,65.));
#1618 = DIRECTION('',(0.,0.707106781186,-0.707106781187));
#1619 = DIRECTION('',(0.,-0.707106781187,-0.707106781186));
#1620 = ADVANCED_FACE('',(#1621),#1637,.T.);
#1621 = FACE_BOUND('',#1622,.T.);
#1622 = EDGE_LOOP('',(#1623,#1629,#1630,#1636));
#1623 = ORIENTED_EDGE('',*,*,#1624,.F.);
#1624 = EDGE_CURVE('',#369,#993,#1625,.T.);
#1625 = LINE('',#1626,#1627);
#1626 = CARTESIAN_POINT('',(-59.33333333333,21.433333333333,
    0.666666666667));
#1627 = VECTOR('',#1628,1.);
#1628 = DIRECTION('',(-0.57735026919,0.57735026919,-0.57735026919));
#1629 = ORIENTED_EDGE('',*,*,#368,.T.);
#1630 = ORIENTED_EDGE('',*,*,#1631,.T.);
#1631 = EDGE_CURVE('',#361,#995,#1632,.T.);
#1632 = LINE('',#1633,#1634);
#1633 = CARTESIAN_POINT('',(-58.40833333333,16.141666666667,
    1.591666666667));
#1634 = VECTOR('',#1635,1.);
#1635 = DIRECTION('',(-0.57735026919,-0.57735026919,-0.57735026919));
#1636 = ORIENTED_EDGE('',*,*,#992,.F.);
#1637 = PLANE('',#1638);
#1638 = AXIS2_PLACEMENT_3D('',#1639,#1640,#1641);
#1639 = CARTESIAN_POINT('',(-59.5,21.1,0.5));
#1640 = DIRECTION('',(0.707106781187,0.,-0.707106781187));
#1641 = DIRECTION('',(0.,-1.,0.));
#1642 = ADVANCED_FACE('',(#1643),#1654,.T.);
#1643 = FACE_BOUND('',#1644,.T.);
#1644 = EDGE_LOOP('',(#1645,#1646,#1647,#1648));
#1645 = ORIENTED_EDGE('',*,*,#351,.T.);
#1646 = ORIENTED_EDGE('',*,*,#1608,.T.);
#1647 = ORIENTED_EDGE('',*,*,#686,.F.);
#1648 = ORIENTED_EDGE('',*,*,#1649,.F.);
#1649 = EDGE_CURVE('',#352,#679,#1650,.T.);
#1650 = LINE('',#1651,#1652);
#1651 = CARTESIAN_POINT('',(-59.,15.550000000001,62.585786437628));
#1652 = VECTOR('',#1653,1.);
#1653 = DIRECTION('',(1.,0.,0.));
#1654 = CYLINDRICAL_SURFACE('',#1655,1.);
#1655 = AXIS2_PLACEMENT_3D('',#1656,#1657,#1658);
#1656 = CARTESIAN_POINT('',(-59.,14.550000000001,62.585786437628));
#1657 = DIRECTION('',(1.,0.,0.));
#1658 = DIRECTION('',(0.,1.,0.));
#1659 = ADVANCED_FACE('',(#1660),#1671,.F.);
#1660 = FACE_BOUND('',#1661,.F.);
#1661 = EDGE_LOOP('',(#1662,#1663,#1669,#1670));
#1662 = ORIENTED_EDGE('',*,*,#360,.F.);
#1663 = ORIENTED_EDGE('',*,*,#1664,.T.);
#1664 = EDGE_CURVE('',#361,#671,#1665,.T.);
#1665 = LINE('',#1666,#1667);
#1666 = CARTESIAN_POINT('',(-59.,15.550000000001,1.));
#1667 = VECTOR('',#1668,1.);
#1668 = DIRECTION('',(1.,0.,0.));
#1669 = ORIENTED_EDGE('',*,*,#678,.F.);
#1670 = ORIENTED_EDGE('',*,*,#1649,.F.);
#1671 = PLANE('',#1672);
#1672 = AXIS2_PLACEMENT_3D('',#1673,#1674,#1675);
#1673 = CARTESIAN_POINT('',(-59.,15.550000000001,2.267560201166E-14));
#1674 = DIRECTION('',(0.,-1.,0.));
#1675 = DIRECTION('',(0.,0.,1.));
#1676 = ADVANCED_FACE('',(#1677),#1688,.T.);
#1677 = FACE_BOUND('',#1678,.T.);
#1678 = EDGE_LOOP('',(#1679,#1680,#1681,#1687));
#1679 = ORIENTED_EDGE('',*,*,#466,.F.);
#1680 = ORIENTED_EDGE('',*,*,#531,.T.);
#1681 = ORIENTED_EDGE('',*,*,#1682,.T.);
#1682 = EDGE_CURVE('',#522,#970,#1683,.T.);
#1683 = LINE('',#1684,#1685);
#1684 = CARTESIAN_POINT('',(38.741666666667,-9.708333333334,
    21.258333333333));
#1685 = VECTOR('',#1686,1.);
#1686 = DIRECTION('',(0.57735026919,0.57735026919,-0.57735026919));
#1687 = ORIENTED_EDGE('',*,*,#984,.F.);
#1688 = PLANE('',#1689);
#1689 = AXIS2_PLACEMENT_3D('',#1690,#1691,#1692);
#1690 = CARTESIAN_POINT('',(59.5,5.,0.5));
#1691 = DIRECTION('',(-0.707106781187,0.,-0.707106781187));
#1692 = DIRECTION('',(0.,1.,0.));
#1693 = ADVANCED_FACE('',(#1694),#1705,.T.);
#1694 = FACE_BOUND('',#1695,.F.);
#1695 = EDGE_LOOP('',(#1696,#1697,#1698,#1704));
#1696 = ORIENTED_EDGE('',*,*,#506,.F.);
#1697 = ORIENTED_EDGE('',*,*,#760,.T.);
#1698 = ORIENTED_EDGE('',*,*,#1699,.T.);
#1699 = EDGE_CURVE('',#761,#1411,#1700,.T.);
#1700 = LINE('',#1701,#1702);
#1701 = CARTESIAN_POINT('',(-43.63006687657,47.579434282939,
    53.268535984817));
#1702 = VECTOR('',#1703,1.);
#1703 = DIRECTION('',(0.709174095137,-1.287368602127E-15,-0.705033405441
    ));
#1704 = ORIENTED_EDGE('',*,*,#1418,.F.);
#1705 = PLANE('',#1706);
#1706 = AXIS2_PLACEMENT_3D('',#1707,#1708,#1709);
#1707 = CARTESIAN_POINT('',(-59.44737256285,42.421994315995,69.55));
#1708 = DIRECTION('',(0.702978162018,7.630008994409E-02,0.707106781187)
  );
#1709 = DIRECTION('',(0.107904622009,-0.994161250778,-2.289834988289E-16
    ));
#1710 = ADVANCED_FACE('',(#1711),#1736,.T.);
#1711 = FACE_BOUND('',#1712,.T.);
#1712 = EDGE_LOOP('',(#1713,#1721,#1729,#1735));
#1713 = ORIENTED_EDGE('',*,*,#1714,.F.);
#1714 = EDGE_CURVE('',#1715,#539,#1717,.T.);
#1715 = VERTEX_POINT('',#1716);
#1716 = CARTESIAN_POINT('',(59.554509720011,47.579434282939,69.1));
#1717 = LINE('',#1718,#1719);
#1718 = CARTESIAN_POINT('',(72.225441648047,164.3209537799,69.1));
#1719 = VECTOR('',#1720,1.);
#1720 = DIRECTION('',(-0.107904622009,-0.994161250778,0.));
#1721 = ORIENTED_EDGE('',*,*,#1722,.T.);
#1722 = EDGE_CURVE('',#1715,#1723,#1725,.T.);
#1723 = VERTEX_POINT('',#1724);
#1724 = CARTESIAN_POINT('',(59.554509720012,47.579434282939,
    16.092304270927));
#1725 = LINE('',#1726,#1727);
#1726 = CARTESIAN_POINT('',(59.554509720012,47.579434282939,0.));
#1727 = VECTOR('',#1728,1.);
#1728 = DIRECTION('',(0.,0.,-1.));
#1729 = ORIENTED_EDGE('',*,*,#1730,.T.);
#1730 = EDGE_CURVE('',#1723,#547,#1731,.T.);
#1731 = LINE('',#1732,#1733);
#1732 = CARTESIAN_POINT('',(58.192117437645,35.027260054734,
    13.408587728181));
#1733 = VECTOR('',#1734,1.);
#1734 = DIRECTION('',(-0.105546647127,-0.9724364422,-0.207911690776));
#1735 = ORIENTED_EDGE('',*,*,#546,.F.);
#1736 = PLANE('',#1737);
#1737 = AXIS2_PLACEMENT_3D('',#1738,#1739,#1740);
#1738 = CARTESIAN_POINT('',(59.029193746109,42.739523110046,0.));
#1739 = DIRECTION('',(-0.994161250778,0.107904622009,0.));
#1740 = DIRECTION('',(0.107904622009,0.994161250778,0.));
#1741 = ADVANCED_FACE('',(#1742),#1758,.T.);
#1742 = FACE_BOUND('',#1743,.T.);
#1743 = EDGE_LOOP('',(#1744,#1750,#1751,#1757));
#1744 = ORIENTED_EDGE('',*,*,#1745,.F.);
#1745 = EDGE_CURVE('',#671,#1003,#1746,.T.);
#1746 = LINE('',#1747,#1748);
#1747 = CARTESIAN_POINT('',(39.666666666667,34.883333333334,
    20.333333333333));
#1748 = VECTOR('',#1749,1.);
#1749 = DIRECTION('',(0.57735026919,-0.57735026919,-0.57735026919));
#1750 = ORIENTED_EDGE('',*,*,#670,.T.);
#1751 = ORIENTED_EDGE('',*,*,#1752,.T.);
#1752 = EDGE_CURVE('',#663,#1011,#1753,.T.);
#1753 = LINE('',#1754,#1755);
#1754 = CARTESIAN_POINT('',(38.741666666667,0.841666666667,
    21.258333333333));
#1755 = VECTOR('',#1756,1.);
#1756 = DIRECTION('',(0.57735026919,0.57735026919,-0.57735026919));
#1757 = ORIENTED_EDGE('',*,*,#1010,.F.);
#1758 = PLANE('',#1759);
#1759 = AXIS2_PLACEMENT_3D('',#1760,#1761,#1762);
#1760 = CARTESIAN_POINT('',(59.5,15.550000000001,0.5));
#1761 = DIRECTION('',(-0.707106781187,0.,-0.707106781187));
#1762 = DIRECTION('',(0.,1.,0.));
#1763 = ADVANCED_FACE('',(#1764),#1780,.T.);
#1764 = FACE_BOUND('',#1765,.T.);
#1765 = EDGE_LOOP('',(#1766,#1772,#1773,#1779));
#1766 = ORIENTED_EDGE('',*,*,#1767,.F.);
#1767 = EDGE_CURVE('',#571,#1063,#1768,.T.);
#1768 = LINE('',#1769,#1770);
#1769 = CARTESIAN_POINT('',(39.666666666667,55.983333333334,
    20.333333333333));
#1770 = VECTOR('',#1771,1.);
#1771 = DIRECTION('',(0.57735026919,-0.57735026919,-0.57735026919));
#1772 = ORIENTED_EDGE('',*,*,#570,.T.);
#1773 = ORIENTED_EDGE('',*,*,#1774,.T.);
#1774 = EDGE_CURVE('',#563,#1071,#1775,.T.);
#1775 = LINE('',#1776,#1777);
#1776 = CARTESIAN_POINT('',(38.741666666667,21.941666666667,
    21.258333333333));
#1777 = VECTOR('',#1778,1.);
#1778 = DIRECTION('',(0.57735026919,0.57735026919,-0.57735026919));
#1779 = ORIENTED_EDGE('',*,*,#1070,.F.);
#1780 = PLANE('',#1781);
#1781 = AXIS2_PLACEMENT_3D('',#1782,#1783,#1784);
#1782 = CARTESIAN_POINT('',(59.5,36.650000000001,0.5));
#1783 = DIRECTION('',(-0.707106781187,0.,-0.707106781187));
#1784 = DIRECTION('',(0.,1.,0.));
#1785 = ADVANCED_FACE('',(#1786),#1802,.T.);
#1786 = FACE_BOUND('',#1787,.T.);
#1787 = EDGE_LOOP('',(#1788,#1794,#1795,#1801));
#1788 = ORIENTED_EDGE('',*,*,#1789,.F.);
#1789 = EDGE_CURVE('',#621,#1029,#1790,.T.);
#1790 = LINE('',#1791,#1792);
#1791 = CARTESIAN_POINT('',(39.666666666667,45.433333333334,
    20.333333333333));
#1792 = VECTOR('',#1793,1.);
#1793 = DIRECTION('',(0.57735026919,-0.57735026919,-0.57735026919));
#1794 = ORIENTED_EDGE('',*,*,#620,.T.);
#1795 = ORIENTED_EDGE('',*,*,#1796,.T.);
#1796 = EDGE_CURVE('',#613,#1037,#1797,.T.);
#1797 = LINE('',#1798,#1799);
#1798 = CARTESIAN_POINT('',(38.741666666667,11.391666666667,
    21.258333333333));
#1799 = VECTOR('',#1800,1.);
#1800 = DIRECTION('',(0.57735026919,0.57735026919,-0.57735026919));
#1801 = ORIENTED_EDGE('',*,*,#1036,.F.);
#1802 = PLANE('',#1803);
#1803 = AXIS2_PLACEMENT_3D('',#1804,#1805,#1806);
#1804 = CARTESIAN_POINT('',(59.5,26.100000000001,0.5));
#1805 = DIRECTION('',(-0.707106781187,0.,-0.707106781187));
#1806 = DIRECTION('',(0.,1.,0.));
#1807 = ADVANCED_FACE('',(#1808),#1858,.T.);
#1808 = FACE_BOUND('',#1809,.T.);
#1809 = EDGE_LOOP('',(#1810,#1811,#1819,#1825,#1826,#1827,#1828,#1829,
    #1835,#1836,#1842,#1843,#1844,#1852));
#1810 = ORIENTED_EDGE('',*,*,#935,.F.);
#1811 = ORIENTED_EDGE('',*,*,#1812,.T.);
#1812 = EDGE_CURVE('',#927,#1813,#1815,.T.);
#1813 = VERTEX_POINT('',#1814);
#1814 = CARTESIAN_POINT('',(-64.58387492217,47.579434282939,69.1));
#1815 = LINE('',#1816,#1817);
#1816 = CARTESIAN_POINT('',(-64.58387492217,47.579434282939,0.));
#1817 = VECTOR('',#1818,1.);
#1818 = DIRECTION('',(0.,0.,1.));
#1819 = ORIENTED_EDGE('',*,*,#1820,.T.);
#1820 = EDGE_CURVE('',#1813,#1118,#1821,.T.);
#1821 = LINE('',#1822,#1823);
#1822 = CARTESIAN_POINT('',(-85.22847975531,47.579434282939,
    48.575933837255));
#1823 = VECTOR('',#1824,1.);
#1824 = DIRECTION('',(0.709174095137,-1.287368602127E-15,0.705033405441)
  );
#1825 = ORIENTED_EDGE('',*,*,#1125,.T.);
#1826 = ORIENTED_EDGE('',*,*,#768,.T.);
#1827 = ORIENTED_EDGE('',*,*,#1699,.T.);
#1828 = ORIENTED_EDGE('',*,*,#1408,.F.);
#1829 = ORIENTED_EDGE('',*,*,#1830,.F.);
#1830 = EDGE_CURVE('',#1723,#1409,#1831,.T.);
#1831 = LINE('',#1832,#1833);
#1832 = CARTESIAN_POINT('',(-61.79193746112,47.579434282939,
    16.092304270927));
#1833 = VECTOR('',#1834,1.);
#1834 = DIRECTION('',(-1.,1.815306863231E-15,3.881215294214E-16));
#1835 = ORIENTED_EDGE('',*,*,#1722,.F.);
#1836 = ORIENTED_EDGE('',*,*,#1837,.T.);
#1837 = EDGE_CURVE('',#1715,#737,#1838,.T.);
#1838 = LINE('',#1839,#1840);
#1839 = CARTESIAN_POINT('',(14.474756246948,47.579434282939,
    24.283455902442));
#1840 = VECTOR('',#1841,1.);
#1841 = DIRECTION('',(0.709174095137,-1.287368602127E-15,0.705033405441)
  );
#1842 = ORIENTED_EDGE('',*,*,#736,.T.);
#1843 = ORIENTED_EDGE('',*,*,#1164,.T.);
#1844 = ORIENTED_EDGE('',*,*,#1845,.T.);
#1845 = EDGE_CURVE('',#1165,#1846,#1848,.T.);
#1846 = VERTEX_POINT('',#1847);
#1847 = CARTESIAN_POINT('',(64.583874922171,47.579434282939,69.1));
#1848 = LINE('',#1849,#1850);
#1849 = CARTESIAN_POINT('',(49.00572669271,47.579434282939,
    84.587191328611));
#1850 = VECTOR('',#1851,1.);
#1851 = DIRECTION('',(0.709174095137,-1.287368602127E-15,-0.705033405441
    ));
#1852 = ORIENTED_EDGE('',*,*,#1853,.F.);
#1853 = EDGE_CURVE('',#936,#1846,#1854,.T.);
#1854 = LINE('',#1855,#1856);
#1855 = CARTESIAN_POINT('',(64.583874922171,47.579434282939,0.));
#1856 = VECTOR('',#1857,1.);
#1857 = DIRECTION('',(0.,0.,1.));
#1858 = PLANE('',#1859);
#1859 = AXIS2_PLACEMENT_3D('',#1860,#1861,#1862);
#1860 = CARTESIAN_POINT('',(-64.58387492224,47.579434282939,0.));
#1861 = DIRECTION('',(1.815306863231E-15,1.,0.));
#1862 = DIRECTION('',(1.,-1.815306863231E-15,0.));
#1863 = ADVANCED_FACE('',(#1864),#1870,.T.);
#1864 = FACE_BOUND('',#1865,.F.);
#1865 = EDGE_LOOP('',(#1866,#1867,#1868,#1869));
#1866 = ORIENTED_EDGE('',*,*,#1837,.T.);
#1867 = ORIENTED_EDGE('',*,*,#744,.T.);
#1868 = ORIENTED_EDGE('',*,*,#790,.T.);
#1869 = ORIENTED_EDGE('',*,*,#1714,.F.);
#1870 = PLANE('',#1871);
#1871 = AXIS2_PLACEMENT_3D('',#1872,#1873,#1874);
#1872 = CARTESIAN_POINT('',(72.672814210897,164.2723967,69.55));
#1873 = DIRECTION('',(-0.702978162018,7.630008994409E-02,0.707106781187)
  );
#1874 = DIRECTION('',(0.107904622009,0.994161250778,5.20417042793E-16));
#1875 = ADVANCED_FACE('',(#1876),#1888,.F.);
#1876 = FACE_BOUND('',#1877,.F.);
#1877 = EDGE_LOOP('',(#1878,#1879,#1880,#1887));
#1878 = ORIENTED_EDGE('',*,*,#924,.T.);
#1879 = ORIENTED_EDGE('',*,*,#1812,.T.);
#1880 = ORIENTED_EDGE('',*,*,#1881,.F.);
#1881 = EDGE_CURVE('',#1102,#1813,#1882,.T.);
#1882 = ELLIPSE('',#1883,141.42135623731,100.);
#1883 = AXIS2_PLACEMENT_3D('',#1884,#1885,#1886);
#1884 = CARTESIAN_POINT('',(-164.,36.788972082017,-30.9));
#1885 = DIRECTION('',(-0.702978162018,-7.630008994409E-02,0.707106781187
    ));
#1886 = DIRECTION('',(0.702978162018,7.630008994409E-02,0.707106781187)
  );
#1887 = ORIENTED_EDGE('',*,*,#1101,.F.);
#1888 = CYLINDRICAL_SURFACE('',#1889,100.);
#1889 = AXIS2_PLACEMENT_3D('',#1890,#1891,#1892);
#1890 = CARTESIAN_POINT('',(-164.,36.788972082017,0.));
#1891 = DIRECTION('',(0.,0.,1.));
#1892 = DIRECTION('',(1.,0.,0.));
#1893 = ADVANCED_FACE('',(#1894),#1906,.F.);
#1894 = FACE_BOUND('',#1895,.T.);
#1895 = EDGE_LOOP('',(#1896,#1897,#1898,#1905));
#1896 = ORIENTED_EDGE('',*,*,#943,.T.);
#1897 = ORIENTED_EDGE('',*,*,#1853,.T.);
#1898 = ORIENTED_EDGE('',*,*,#1899,.F.);
#1899 = EDGE_CURVE('',#1148,#1846,#1900,.T.);
#1900 = ELLIPSE('',#1901,141.42135623731,100.);
#1901 = AXIS2_PLACEMENT_3D('',#1902,#1903,#1904);
#1902 = CARTESIAN_POINT('',(164.,36.788972082017,-30.9));
#1903 = DIRECTION('',(-0.702978162018,7.630008994409E-02,-0.707106781187
    ));
#1904 = DIRECTION('',(-0.702978162018,7.630008994409E-02,0.707106781187)
  );
#1905 = ORIENTED_EDGE('',*,*,#1147,.F.);
#1906 = CYLINDRICAL_SURFACE('',#1907,100.);
#1907 = AXIS2_PLACEMENT_3D('',#1908,#1909,#1910);
#1908 = CARTESIAN_POINT('',(164.,36.788972082017,0.));
#1909 = DIRECTION('',(0.,0.,1.));
#1910 = DIRECTION('',(-1.,0.,0.));
#1911 = ADVANCED_FACE('',(#1912),#1918,.F.);
#1912 = FACE_BOUND('',#1913,.F.);
#1913 = EDGE_LOOP('',(#1914,#1915,#1916,#1917));
#1914 = ORIENTED_EDGE('',*,*,#1500,.F.);
#1915 = ORIENTED_EDGE('',*,*,#1542,.T.);
#1916 = ORIENTED_EDGE('',*,*,#1682,.T.);
#1917 = ORIENTED_EDGE('',*,*,#967,.F.);
#1918 = PLANE('',#1919);
#1919 = AXIS2_PLACEMENT_3D('',#1920,#1921,#1922);
#1920 = CARTESIAN_POINT('',(-59.,11.049999999999,0.5));
#1921 = DIRECTION('',(0.,0.707106781187,0.707106781187));
#1922 = DIRECTION('',(1.,0.,0.));
#1923 = ADVANCED_FACE('',(#1924),#1930,.F.);
#1924 = FACE_BOUND('',#1925,.F.);
#1925 = EDGE_LOOP('',(#1926,#1927,#1928,#1929));
#1926 = ORIENTED_EDGE('',*,*,#1624,.F.);
#1927 = ORIENTED_EDGE('',*,*,#1593,.T.);
#1928 = ORIENTED_EDGE('',*,*,#1752,.T.);
#1929 = ORIENTED_EDGE('',*,*,#1018,.F.);
#1930 = PLANE('',#1931);
#1931 = AXIS2_PLACEMENT_3D('',#1932,#1933,#1934);
#1932 = CARTESIAN_POINT('',(-59.,21.6,0.5));
#1933 = DIRECTION('',(0.,0.707106781187,0.707106781187));
#1934 = DIRECTION('',(1.,0.,0.));
#1935 = ADVANCED_FACE('',(#1936),#1942,.F.);
#1936 = FACE_BOUND('',#1937,.T.);
#1937 = EDGE_LOOP('',(#1938,#1939,#1940,#1941));
#1938 = ORIENTED_EDGE('',*,*,#1631,.F.);
#1939 = ORIENTED_EDGE('',*,*,#1664,.T.);
#1940 = ORIENTED_EDGE('',*,*,#1745,.T.);
#1941 = ORIENTED_EDGE('',*,*,#1002,.F.);
#1942 = PLANE('',#1943);
#1943 = AXIS2_PLACEMENT_3D('',#1944,#1945,#1946);
#1944 = CARTESIAN_POINT('',(-59.,15.050000000001,0.5));
#1945 = DIRECTION('',(0.,-0.707106781187,0.707106781187));
#1946 = DIRECTION('',(-1.,-0.,-0.));
#1947 = ADVANCED_FACE('',(#1948),#1954,.F.);
#1948 = FACE_BOUND('',#1949,.T.);
#1949 = EDGE_LOOP('',(#1950,#1951,#1952,#1953));
#1950 = ORIENTED_EDGE('',*,*,#1446,.F.);
#1951 = ORIENTED_EDGE('',*,*,#1462,.T.);
#1952 = ORIENTED_EDGE('',*,*,#1789,.T.);
#1953 = ORIENTED_EDGE('',*,*,#1026,.F.);
#1954 = PLANE('',#1955);
#1955 = AXIS2_PLACEMENT_3D('',#1956,#1957,#1958);
#1956 = CARTESIAN_POINT('',(-59.,25.600000000001,0.5));
#1957 = DIRECTION('',(0.,-0.707106781187,0.707106781187));
#1958 = DIRECTION('',(-1.,-0.,-0.));
#1959 = ADVANCED_FACE('',(#1960),#1966,.F.);
#1960 = FACE_BOUND('',#1961,.F.);
#1961 = EDGE_LOOP('',(#1962,#1963,#1964,#1965));
#1962 = ORIENTED_EDGE('',*,*,#1439,.F.);
#1963 = ORIENTED_EDGE('',*,*,#1394,.T.);
#1964 = ORIENTED_EDGE('',*,*,#1796,.T.);
#1965 = ORIENTED_EDGE('',*,*,#1044,.F.);
#1966 = PLANE('',#1967);
#1967 = AXIS2_PLACEMENT_3D('',#1968,#1969,#1970);
#1968 = CARTESIAN_POINT('',(-59.,32.150000000001,0.5));
#1969 = DIRECTION('',(0.,0.707106781187,0.707106781187));
#1970 = DIRECTION('',(1.,0.,0.));
#1971 = ADVANCED_FACE('',(#1972),#1978,.F.);
#1972 = FACE_BOUND('',#1973,.T.);
#1973 = EDGE_LOOP('',(#1974,#1975,#1976,#1977));
#1974 = ORIENTED_EDGE('',*,*,#1303,.F.);
#1975 = ORIENTED_EDGE('',*,*,#1258,.T.);
#1976 = ORIENTED_EDGE('',*,*,#1767,.T.);
#1977 = ORIENTED_EDGE('',*,*,#1060,.F.);
#1978 = PLANE('',#1979);
#1979 = AXIS2_PLACEMENT_3D('',#1980,#1981,#1982);
#1980 = CARTESIAN_POINT('',(-59.,36.150000000001,0.5));
#1981 = DIRECTION('',(0.,-0.707106781187,0.707106781187));
#1982 = DIRECTION('',(-1.,-0.,-0.));
#1983 = ADVANCED_FACE('',(#1984),#1990,.T.);
#1984 = FACE_BOUND('',#1985,.F.);
#1985 = EDGE_LOOP('',(#1986,#1987,#1988,#1989));
#1986 = ORIENTED_EDGE('',*,*,#1296,.F.);
#1987 = ORIENTED_EDGE('',*,*,#1336,.T.);
#1988 = ORIENTED_EDGE('',*,*,#1774,.T.);
#1989 = ORIENTED_EDGE('',*,*,#1078,.F.);
#1990 = PLANE('',#1991);
#1991 = AXIS2_PLACEMENT_3D('',#1992,#1993,#1994);
#1992 = CARTESIAN_POINT('',(-59.,42.7,0.5));
#1993 = DIRECTION('',(0.,-0.707106781187,-0.707106781187));
#1994 = DIRECTION('',(-1.,-0.,-0.));
#1995 = ADVANCED_FACE('',(#1996),#2002,.F.);
#1996 = FACE_BOUND('',#1997,.F.);
#1997 = EDGE_LOOP('',(#1998,#1999,#2000,#2001));
#1998 = ORIENTED_EDGE('',*,*,#1881,.T.);
#1999 = ORIENTED_EDGE('',*,*,#1820,.T.);
#2000 = ORIENTED_EDGE('',*,*,#1117,.T.);
#2001 = ORIENTED_EDGE('',*,*,#1109,.T.);
#2002 = PLANE('',#2003);
#2003 = AXIS2_PLACEMENT_3D('',#2004,#2005,#2006);
#2004 = CARTESIAN_POINT('',(-78.43237729727,179.34065245789,69.55));
#2005 = DIRECTION('',(0.702978162018,7.630008994409E-02,-0.707106781187)
  );
#2006 = DIRECTION('',(0.107904622009,-0.994161250778,-6.938893903907E-17
    ));
#2007 = ADVANCED_FACE('',(#2008),#2014,.F.);
#2008 = FACE_BOUND('',#2009,.F.);
#2009 = EDGE_LOOP('',(#2010,#2011,#2012,#2013));
#2010 = ORIENTED_EDGE('',*,*,#1845,.T.);
#2011 = ORIENTED_EDGE('',*,*,#1899,.F.);
#2012 = ORIENTED_EDGE('',*,*,#1180,.F.);
#2013 = ORIENTED_EDGE('',*,*,#1172,.F.);
#2014 = PLANE('',#2015);
#2015 = AXIS2_PLACEMENT_3D('',#2016,#2017,#2018);
#2016 = CARTESIAN_POINT('',(63.55262743715,42.248557079904,69.55));
#2017 = DIRECTION('',(-0.702978162018,7.630008994409E-02,-0.707106781187
    ));
#2018 = DIRECTION('',(0.107904622009,0.994161250778,-1.873501354055E-16)
  );
#2019 = ADVANCED_FACE('',(#2020),#2026,.T.);
#2020 = FACE_BOUND('',#2021,.T.);
#2021 = EDGE_LOOP('',(#2022,#2023,#2024,#2025));
#2022 = ORIENTED_EDGE('',*,*,#1425,.F.);
#2023 = ORIENTED_EDGE('',*,*,#1377,.T.);
#2024 = ORIENTED_EDGE('',*,*,#1730,.F.);
#2025 = ORIENTED_EDGE('',*,*,#1830,.T.);
#2026 = PLANE('',#2027);
#2027 = AXIS2_PLACEMENT_3D('',#2028,#2029,#2030);
#2028 = CARTESIAN_POINT('',(-59.,42.470551395899,14.999999999999));
#2029 = DIRECTION('',(0.,-0.209079535273,0.977898638883));
#2030 = DIRECTION('',(-0.105546647127,0.9724364422,0.207911690776));
#2031 = ( GEOMETRIC_REPRESENTATION_CONTEXT(3) 
GLOBAL_UNCERTAINTY_ASSIGNED_CONTEXT((#2035)) 
GLOBAL_UNIT_ASSIGNED_CONTEXT((#2032,#2033,#2034)) REPRESENTATION_CONTEXT
('Context #1','3D Context with UNIT and UNCERTAINTY') );
#2032 = ( LENGTH_UNIT() NAMED_UNIT(*) SI_UNIT(.MILLI.,.METRE.) );
#2033 = ( NAMED_UNIT(*) PLANE_ANGLE_UNIT() SI_UNIT($,.RADIAN.) );
#2034 = ( NAMED_UNIT(*) SI_UNIT($,.STERADIAN.) SOLID_ANGLE_UNIT() );
#2035 = UNCERTAINTY_MEASURE_WITH_UNIT(LENGTH_MEASURE(1.E-05),#2032,
  'distance_accuracy_value','confusion accuracy');
#2036 = PRODUCT_RELATED_PRODUCT_CATEGORY('part',$,(#7));
#2037 = MECHANICAL_DESIGN_GEOMETRIC_PRESENTATION_REPRESENTATION('',(
    #2038),#2031);
#2038 = STYLED_ITEM('color',(#2039),#15);
#2039 = PRESENTATION_STYLE_ASSIGNMENT((#2040,#2046));
#2040 = SURFACE_STYLE_USAGE(.BOTH.,#2041);
#2041 = SURFACE_SIDE_STYLE('',(#2042));
#2042 = SURFACE_STYLE_FILL_AREA(#2043);
#2043 = FILL_AREA_STYLE('',(#2044));
#2044 = FILL_AREA_STYLE_COLOUR('',#2045);
#2045 = COLOUR_RGB('',0.678431390124,0.709803936702,0.741176476869);
#2046 = CURVE_STYLE('',#2047,POSITIVE_LENGTH_MEASURE(0.1),#2048);
#2047 = DRAUGHTING_PRE_DEFINED_CURVE_FONT('continuous');
#2048 = COLOUR_RGB('',9.803921802644E-02,9.803921802644E-02,
  9.803921802644E-02);
ENDSEC;
END-ISO-10303-21;
